<mxfile host="app.diagrams.net" agent="Mozilla/5.0 (Windows NT 10.0; Win64; x64; rv:138.0) Gecko/20100101 Firefox/138.0" version="26.2.14">
  <diagram name="Page-1" id="KcS_eZSueZukbb7S6-XR">
    <mxGraphModel grid="1" page="1" gridSize="10" guides="1" tooltips="1" connect="1" arrows="1" fold="1" pageScale="1" pageWidth="1169" pageHeight="827" math="0" shadow="0">
      <root>
        <mxCell id="0" />
        <mxCell id="1" parent="0" />
        <mxCell id="FJbFZdLH_GVMFSv8Vmyc-2" value="" style="shape=image;verticalLabelPosition=bottom;labelBackgroundColor=default;verticalAlign=top;aspect=fixed;imageAspect=0;image=data:image/png,iVBORw0KGgoAAAANSUhEUgAAAn4AAAC3CAYAAACMqFM1AAAgAElEQVR4XuzdBfRtVfUH+gWKqICAgCAlaRBS0tLSIiLSIEijdEt3SCotoShKKEg3KCDdJUh3S6mPhvf/rPHWffvuu8/Z5xe3uHOOwbhwzz57r/VdM77zu9Y+jPW///3vkxQWCAQCgUAgEAgEAoFAIPCpR2AsxO+LX/zip36iMcFAIBAIBAKBQCAQCATGZAT+n//n/0lB/MZkD4i5BwKBQCAQCAQCgcAYg0AQvzFmqWOigUAgEAgEAoFAIDCmIxDEb0z3gJh/IBAIBAKBQCAQCIwxCATxG2OWOiYaCAQCgUAgEAgEAmM6AkH8xnQPiPkHAoFAIBAIBAKBwBiDQBC/MWapY6KBQCAQCAQCgUAgMKYjEMRvTPeAmH8gEAgEAoFAIBAIjDEIBPEbY5Y6JhoIBAKBQCAQCAQCYzoCYwzxu+aaa9L3vve9tO6666Y//OEPY/q6j5D5f/jhh2mcccZJU089dXr22WdHyDPjIYFAIBAIBAKBQCDQGYGRTvzmm2++dPvttw81wimmmCLNM888aeutt07LLLPMoKzfE088kf74xz+mWWaZJa266qqDcs8LL7wwrbzyymmVVVZJ5513Xtphhx3SkUceOeTek002WZp22mnz5zvttFP63Oc+NyjPHehNLrjggvTDH/5wqNsY27e+9a207LLLpl/84hdpookmGuhj0scff5wOPPDANN5446Xtt99+wPdzgzfffDNNPPHE+V777LNP2nvvvYfcd+ONN06nnnpquv/++9Nss802KM8bETf56KOP0kknnZT+8pe/pHvuuSf5v+jMOuusuVHZcccd01hjjZWHMcccc+R123fffXsa1jnnnJPWWGON9MEHH6TPfvazrd8p/jvJJJOkRx55JH35y1/O33nqqafS9NNPn9Zcc8105plntt5nTLzgzjvvTOutt1566KGH0q9+9aucu4rJPdttt1264YYb0oQTTph+9KMfpcMPP3zIul511VXZl/mtfLHzzjunn/zkJ0O+//TTT6dNN90050mfy4kHH3xw+sxnPtMI9fPPP5922223dPXVV+dr5B95qVx/7rnn5jHytZlnnjk/a6uttkpjjz124/1eeumlHGfGqWAstthi+b/l0mKa6W222Sa98cYb6e67705zzjnnaOMGL7/8ctpoo43SJZdckn784x+nP//5z0PG/sknn2TsTjvttNy8yivHHntsmnvuufM1//3vf9Muu+ySv/t//wes9N3vfjf99re/HZI/33333bTlllumK664IufDJZZYIh166KFpqqmm6oiPZ/3ud7/L6wPjY445Js0777zDXL/44oun6667rjUu29a71+eNqgvazfe6xVbb2pqvOFVT+MhCCy2U13qRRRbpCIUY/+Uvf5luvPHGhMfIqXyLiVlxWbezzjor5+kmk1f233//9I9//CPn4+WWWy7nipKb5fY99tgjj9Pfvfrqqz0t0yhD/BZYYIE0/vjj50FLlP6hFkl2Ct6oaJ2I3ze/+c2scj3zzDO5gLIFF1ww/f3vfx8lyF8hfpNPPnmaffbZ8/gkrXvvvTcn9nXWWSedccYZoyLkQxE//vL444+nr3zlK3msoyvxU+gPO+ywXFQUdcXkoosuSi+++GI6/vjj0xZbbJGefPLJNMMMM6S99tqrZ+K3/vrrp9///vd9Jn6wlLAkExbEr3soWKNtt902Nzgakyrx899IENKw1lpr5Rh74IEHcjKXsG+55ZacGxBCxFqRfu2113KuQLCo5hqyxx57LH3jG9/IPvH222+nI444omMzpTggGv587rnnhnoe4r722mvnPCSvPvjggznmFaVdd911mIkiK64z5q997Wtp3HHHzTlNU2tM5rzBBhvkfGEOb7311mhF/BRURRcG1qpO/MSApn2mmWZKiy66aCaAGiN5x3xXWmmldPHFF+fP5KNLL700Lb300unKK6/MWP70pz/NJA5esBJLmre//vWvjU6FOLiXZ6y44orpT3/6U35OeV75EjKy+eabZ//o1pC1rXevzxsVi4GGuZvvtcVW29paa6Tt85//fFLTEXFkTi72d3Xj+/yEH1mTyy+/PMfy3/72t4SkI41IoTHL5cU0Zk1ChfjSYPznP/9Jc801V9LQvfLKK2mFFVbIjcYLL7yQm7p//vOfuWZMOumkox/xQ/C+853vDAED+eD0JUG+//77uegJGB0opdDCFVKI6eqKJUzdFAVFAH3729/Oiahpqxd4Ep6khi1LtLoxRAKQE0wwQVp44YVzx6fDxb5XW221dNRRR+XE2Yn4VZPyv/71r0ykfPeggw7KatrItkL86gnIWHWYkrv5UwBuvfXW3KXcddddOXmZi4JFPRB4SIvkAg+ObX10WRyUMlff6qUI+L7E6BpFjdrgvqwEB2zvuOOOdPrpp+dgQ4x0WkXxE4gPP/xwJkUKbxPxQ7w967bbbssBSM2kQE433XRDrS8f23PPPTP59TmfobRde+21uRD8+te/HqKYSQYnnHBCfrYxKJYDVZAFNx+tKiXUGsqBIsIPjaNY2TrvNr9yz/Id8SA+uq1nUfwQDPdGCih9deKnyxSL8KFwiUU4S25MZ3zzzTfnz+BqHX/+859nFYwvIQli/eSTT05f/epX83e6jWtkx0vb8/kVH/j3v/+d58df+DRT9BV/ip88wufhS9WFsTXhU+JGPBbCVop5yTHIGtysBXJBAYJ73RAExYfypKi//vrrmbCJRcqhHCRHHnDAAWn++efPSoK4QjIQmLoZo+JnzJQutvzyy+eidtNNN+XG0Vh+85vf5Hv7+9FJ8ZOP33vvvTwnTZf8TikvRhElQlg3ZGz33XfP8zzuuOPydxRwu1N8HElecsklswqnpsiXsJdvkBBkQRxOM800uWA3WSGKcORX5XliRWPL5DJ52o6A3NuN+Mln3da7l+e1+f/I+lyN6uZ7/LZbbHVb25/97Gd5XdW9soNkx5Ah+1/60peGmXYhinIA3Ess2wnQgCPq1l9uJHS1meZfLll99dXTJptskqjHaiEupFHBX3wu9sxFgzDaKX514gd4BbYoHLYKES4qBkJH7tTtYMWSaCGKghNQij2ypcC4d534KVpLLbVUxl7SxtYVW44kSJEaZEZhooxJkiRZ11lgAdML8XP/8iwJ9vrrr29b7+H+eSfip6OwlYTwCSokjUNJYAq7eXB+hBtJOPHEEzPxYroYHRHHcx8FB2GpEz9bHYWcCyAFj4xuq1wytN6IGEKoqCD5MFPMEFNqhyJmi51Ur1jdd999eWu0rvj94Ac/yMrZfvvtl7fVkBDraH2Rl7K+5ixBS/i2uCVVpM6Wj27r/PPPz8/zpzFaR4Fo/oofX2vaiul1IRVdxRzp5df1blJHZ+ww4rM6PvHQbX7GJgFZQ/f0DISx23oW4ue7klQ5D1snfkg4wk/BUnz8u2RECZKYyhpLbtaFz0haiOGUU06Z8RK35qBJssbdxtUrjiPrOrFC7SlbOVXFr6gKMNNMMD4IA7giw/II4ovIyS988Otf/3r2d9+BEd9ELCh+CEp1m7U6bznKupTi4zPNKz8Vm1SBqpUxlwa7DUMEyDjFISIp98rDmsVCCEcn4lfWrhDguuJHpZMP5QFWcr5cIwdYS3Eop7KyXhpW6yhvaA6JChopDZn46GRyHtKosH/hC1/IeUHs2kY/+uij89fUQKSeT8g7fTmCUV/vXp7X5hMj63M1upvvwb5bbHVbW3Fr/axb2bpF4K1FpyNbmlsiRCHthAR5gVqHQGreEHW5Vd2yvo4BVI+FdMOy+GhRlPmkGsuMabQkftWtXkXCJCUVCbKwWUmrvCRwyimn5MADpDMzAFbMS9KhOkmQBfQ68StJqqrClQKMAFpwpIVJ0IgB4qlY6dIx916Jn+JLUURKdWsj25q2eo2JQoO0bbjhhvlcg2KAiOkoYM04P2fTBSn6cC2FThKllr7zzju5yAicKvErjuuaRx99NHdNCpLCJBkilpRVRM3zPFexs+4wpD74jvtaP+qsRIoImVOd+AlY3bwiSKGkWiAnAga5MjZJXTE1JiQFyZJgJVqEyXm60nwIOL5B7Sv38qcmhQLQX0NcJSl+Zn4UM9t/FCDqIyvdZHWrt9v8xAM1wrZEOePXtp6laFkn6g4SoXniu9UzfggxDBAMhNxaiUcdqLWgetjeUJgoKJoDZFKD5RxjaYTKmreNq7+4jujvNRE/RYCvakDtYJSzgAqWc0AKgO9pnKgEfA9J5J/iiFpA6YMzslxMfIrTuvFDxaSa10quq559pT4i+mKAGmkN2s4gizvEVJx4PtJTtdGR+JXxdyJ+mjyfUVY0qoo2JYefW0+NDgw1hQov0YFCaE3FzWabbTbM2pX82uSf7ifXyVusjKuQO02zuFF71EUNci/Er9N6tz1vRMdQf5/X5HvyfrfY6ra2mi3Y1uPOliwhqWmr1zqcffbZec3UNCam1H01hs9cdtll2V/EEKGEOaOoye5k1OQiLBAekEvrVrXRlvjVJ825Ff4CPCdvMgurACEkVWKFwFA4OhE/97UtUu1OdWbIhKInYC0QQkCRYqVgla6wr8TP4pSA7q+DD8b3ml7uqBYURQgh8qfOtW7mgZxTxRApDly23At5aiJ+ti4lvWpXXboiqmo5RI74OdCsgDEqF+ytlXWm+Dm/JIiKnI9oUJYQkFLgfEdBo6YoosUEITJpfctzfYaYUNXKmYxyPqZ024VI1fEoZy4Gsja2sG0LagxsBRg7Q4QR0Cbi121+EkOd+LWtJ+KnQFATKN1UJclRkYd7KTAIiKTq+bY3i5VDyoX4IbQUBWQGubCulEtnUxzHKLHZNq7ycstA8B0R320ifhoX84QFUzDkHqqO835UB8VEPLEZZ5wxH2fQqMg7mlqquMKG1IldWIoz99Cslu+6RuMgdzURP9f7HkPKrYvYpZzbikLSrat4YdTZ6i8gID7uoUHhFwgQ1aLYp5H4FQW1zFGjSb1B8BT5sjNV/1z+0nARCqyp+9gFEUOInfqkztSxtg1MVa0TPzVO/pRnjQHp1HxViZ/xqJnVeLRb0229uz3PM0YXa/I99b1bbHVbW7sYmjUvxYkN53QprUgfXNTHOtbWWpNWJX5qjDWQ89QvjZM1U3dKTidQaSz4UjFchNDAKP8aDvmC7zhzqumv2mhL/MpWLzkcyNQ+BaYcIkb8BJDCXjWOa3EUJtcKGkYdotK1ET8KIoLIJEyLWSV+1Z8iqXeFvRI/REIxLGMZ2cHUtNVblAUOj/yyUpARDwpo1SR+xADxqyoJyCBH7Ub84EwBYvC31VonfuVMmmuqQV0nftbZM0tC1A0Zj+7b3+u6BZgARBJ141XiV11fyVUyQHyckXLQHkmtEz/ksLxZbHwUUOdBBtOQKmd8FNZCCo2/KH5w6za/bsSv03pa+0L8zB/xRjbEBJW7ED9+jDAgqmJM0kJO6sSPgmyM1sQ2SCEjyK1YrRO/TuPq9PbqYOI9GPdqIn7ui8CVIiHJO1cmJ5StV8XfmVd5jL+JK4QZwShrUI4buJ9mVAFBDvgh/2CKg1ihHjuaoelh5cylolF/W992rQaBvyAjhWj6nnHIx3UreVIM+/din0biZ25Ispwmp1C+be2WnIDciRG7CLbn7RhocCjb5cWLcqTBvRBGirlaQlUqL3kUrMsxAGTe9jkV/fvf/34mkHKVP8WSfKnpstsi93lBRVNR/fUEL/bU3x6ur3e35xnf6GKdfK9bbHVbW8RL80tps+vIkHnbsvJYE9Z2BGEmlpG28p5A9R5VPK0P/oKcyqXVdxyIGLaGq8af5EzNV9l1Kp+P9sTPRMpeuUKH6AkunazESBXSJUtStgsFjGSmQOqui7OX81htW73lULXnIpxYdXWrd6DEz1kY6hQVp2wbjuxgaiJ+unidCEOcqBJlC676sylIkYTknE/Z6i1OqrAoShy021ZvOXfpWZKgZFjf6u2V+LlHeSGEL0i8xi/BSZilM1ckkUBnZ3RfiEf9/GEb8Stbvba3EXlqpYaFMiLp98cQZ1u61Gp+B1uGWPHd0syU7tBhbwfzS0HoND9Jqyh+pYi0rWc541eIL8Ki4ZKc4Ir4OWSO6FaV8IJLOWheFL9eiV/buPqD68j4ThPxU5yd07K+lGGEzZpS3igACIUzrAqwbf1yINxbwgpJiY/y1q18ougjfPy4btbMeolP5IK/8wWEhU/ZUlKYqBbiVz51vfuVprl6T2OzlS8P8num+CmC1ZdY/P2nkfiJBQRcLXJ8orxsoSkUt5pAeQ9GlFPnzxEF+cd/w03+F6+skPCq+lrF27ojc3YzfE+sU8kRSeNAOpqMUCIf1a1tvbs9b6AvrY3IGGzyvbbY6ra2GiCEGs/wj7ysYTvkkEOG/NJCfX5FKHCddfKSj3PNmgSxTDwxJuuIkDvmQUVXp5xFrxtFXiPufYLyE17GZPegusvme58K4icBKTiSXNmKtb0BCN2s350SEJQAiQnpK/vrFAZds31x52s6Eb+ybeuMlu8qus7c2JvnEA6O1olBr4pf+TkXC4JQUS6xei8VIK0j2zq93FEcu7zIwOERGjhzXMlMkS7KTjlPpGhYEyoUgktRayJ+5l0O/helwPYExaIciC1n/PpC/GyhGGfZdkT8NAmIrMRru5oEj6RJuBQoCicC0xfFT5KXDK0lMmzs/Mac+VF/rWxlIwQSgW1phYL/23515qskCfOEtXF0m59kAWs+5+yj+VLMu61nnfiZTznn6N+L4gczvoHwi1VbwXClOFk/nSpFq1fi1+Zn/cV1RH0PAULo5AekSiJHvPiJZE+ltl1NQYcL/yxvabqesqvR8j2EjD9L7Mihplc+cX9nJfkgEl7eEm6aoy1bRIEyJWY1s4WkKUjIC8VCA4Y8UsHLueX6/YyFn1ln6i4C6ZyZ75uHIxNIIOMPCltRpGxDl9+7G1Fr0dfnyIUKqdxlTSit8JMbkKJC9BA6Mc7XYcC31Qd/r14gWHIe4l7e4jSWspNiveAlXyD5vlPOkFfHjBTYPUDuNQrylibLGtXPYNa3epvm3rbefXleX7Ed3terG918r/ySQ6fYaltb/iAukEDiki1ff8qpcmndvODGN/gBf9DwacRgjIe4l3u6przoYV0Lya/fD7eRwwlaJY7ci8BRfhaqEMbyUmD5SSYxWH7rr2kdRpnf8au/1Vu65/ImLNUC68WqJUPqjM6zHHKUmJwfsygSqYIJrPIWZ9PPuQDcgWoBqejqgP237rzp/zrRK/GrAo2UOhugU7BVMCpYJ+KHaCAGnNXLMfCAJ0KIgCPFziFI6Mw6wFmx0onoTCW4cpZBF9r0cy7uZz0EiOJoi1GRYv0hfr5ne7o4fdl6LoFG0dCRS6R8xHN15f6+L8TPcyhviCNCr1Cb70B/ZxLRkxAUdQHNZxRbCQeZQrwlFcnE2hmz8yvd5idB2OZwHsQLHrblqBbd1rOJ+FERJDk+UYifs0aIuyaG2odUGAvyLhFZi74QP7h2G9eoEDPdxiBm7D7UTdzbwlEAkO+ioCLlVOpicp3E7dyQeFCsy/ke11g//quZRQgQSN/v9IPLCmJ581Ohsm7yGvJJheLD1hDhQebkS0cImn6iwvM1rho+ZEWOsHXFryi75Y3vJnw6vYAyKq1neSGsPibFWVG2U6DRKm/8I/S27eFWsLHNKt7Epa18DXE5/K/AIuzynRiWM6g43X4gH4HmA46x2IXy6xZNv/PWC/HrZb17fd6otG7G0ovvdYuttrX1DHVbrBAzqLXEJ41YJ1N75EJHJPiIIxflx5k9z9oTDPgWhV/cq7OdTB61fewlSD6jBotVwhhBQy5oMvkI4e1kI534DZYz2U8HpkXRGZU3YRDE0emQ6mDhMSLuI5EJPoof4owsI+Lwb9qGGhFjimcEAoFAIBAIBAKBQGcEPjXEr7yRqRN2NoIETEGpnuELRxhcBMrbms5XUABI0zqYbttQgzuCuFsgEAgEAoFAIBAI9AWBTw3xozDZqnL+jNkG8dME5c22voAS1/aGAOkavuTr8nMptmxtb1Xfeu3tbnFVIBAIBAKBQCAQCAxvBD41xG94AxX3DwQCgUAgEAgEAoFAYHRHIIjf6L6CMf5AIBAIBAKBQCAQCAR6RCCIX49AxWWBQCAQCAQCgUAgEAiM7ggE8RvdVzDGHwgEAoFAIBAIBAKBQI8IBPHrEai4LBAIBAKBQCAQCAQCgdEdgSB+o/sKxvgDgUAgEAgEAoFAIBDoEYEgfj0CFZcFAoFAIBAIBAKBQCAwuiOQid//TeKT0X0iMf5AIBAIBAKBQCAQCAQCgXYExvq//x9nEL92nOKKQCAQCAQCgUAgEAgERnsEgviN9ksYEwgEAoFAIBAIBAKBQKA3BIL49YZTXBUIBAKBQCAQCAQCgcBoj0AQv9F+CWMCgUAgEAgEAoFAIBAI9IZAEL/ecIqrAoFAIBAIBAKBQCAQGO0RCOI32i9hTCAQCAQCgUAgEAgEAoHeEAji1xtOcVUgEAgEAoFAIBAIBAKjPQJB/Eb7JYwJBAKBQCAQCAQCgUAg0BsCQfx6wymuCgQCgUAgEAgEAoFAYLRHIIjfaL+EI28Cb775ZppqqqnSbbfdlmadddYBD2TTTTdN448/fjryyCMHfK+4QSAQCAQCgUAgEAgMi0DPxO/3v/99OuOMM9J9992XvvnNb6YjjjgizTPPPCMV04cffjitt956abLJJkuXXnrpUGMxzm233Tb985//zORk6623Tuuvv/6Qa84666x00kknJfeYc8450w477JC+973v5c8/+eSTtNtuu6ULL7wwITcLLbRQOuGEE9Kkk06aP/d3m2++ebr55pvT5z//+fSDH/wgHXLIIekzn/nMkPt3G9tIBe3/e/gGG2yQPve5z6Xf/OY3Qw3nww8/TBNOOGG64IILhuDRabyuvemmm7IfjDfeeOmhhx5KL7zwQlpqqaX6NcU24mdNf/3rX6dbb701/fvf/06zzz57WnjhhdOuu+6a58JOOeWU9JOf/GTIf3cbiP9n4TnnnJNgEdYbAn/5y19yHO233345Zqq25pprpvnnnz9tt912rTcbrPt0e9DHH3+cDjzwwPTLX/4yx/ISSywx5PK2GH/33XdzTIuDN954I333u99Ne+65Z/rGN76R7/H888+nfffdN1111VXZ95dbbrm0xx57pIkmmmjIM+QkPi1X+Kxqv/3tb9Npp52WHn/88Rw/sFx88cUbp/Pf//43HXTQQeniiy9O//nPf9Kiiy6a9tprrzTjjDP2lG/OO++8nOvuvffe9LWvfS3ts88+afnllx/y3W5jaXv2E088kQ444ID0t7/9LU0wwQT5vubq3wdqwyO/W9dJJpmkcWh//OMf0w9/+MOc//fee+907rnnpvfeey8tu+yy2Y96Xdv6zc8888zczD7zzDPpW9/61lC1s83P2sby97//Pd/vzjvvTDPMMEOOzU022WSY+X300UdpkUUWyXOo1spudXAg6/fWW2/lcVxyySXJv3/2s58dcru2+nn99denww47LN1xxx1ppplmynPaeOON8/etkZiqm9pQ4qEb3j/72c/S6aefPtTXp5tuuvTggw92nG63OG7Df3jyjDaO0239eiJ+N954Y1pmmWVywAgCxRI5uP/++/OfI8POP//8nHBmnnnm7FhVZ1bQZ5tttuwsFpoitfbaaycJUNI8++yzc3ESMEsuuWT605/+lJPhLbfckgPzqKOOSr/73e/SH/7wh/TVr3417bjjjun1119PF110UZ7qj3/840zyjj766Pz3HHO11VZLu+yyS/6829hGBlZNzxwM4le/r/WQyPzZH+tG/J5++um04IILpnXXXTetvvrquYBddtllOUFbD4lCkp5iiinSs88+m5XDNlOs9t9//3Tttde2XRqf/38IIGw77bRTJiB33XVXmnbaaYdg01fiNxj36bQwCMtaa62VJHVNq5isEr+2GNcoKjwHH3xwmmaaaTLx0uhJtmOPPXaad9550yyzzJJJjibkF7/4RS5SGg+GmGlQ/u9/iTmEFJaxarYOPfTQTAb4tFzjObfffnu+R90UUIVbjuLX8o753H333TkPdcs35rDYYovlxvX73/9+Jo9wl9M9q20s3Z6NlMw999xpww03zM0WzLfccsucMxHNgdjwzO/1cT3yyCO5vsFKcw9fZJjfmIu8Xghz29rW780HVlxxxXw/tYd//OpXvxpSO7v5WakxncZC1FC/EB3+iFh6lobEelRNw8zn1bdSK9vqYH/XD2H3/O985zuZZNWJX7f6qTkxJ42lmopYEXAOP/zwXMOPP/74nPdLLe4r3uoHwaDU6rY5dovjNvzb8G3LQd1wauM4bfPqifhtttlmWe0rKpAEpNAed9xxI00t+fOf/5yD9eSTT86Fu0r8EDbjk6SLIXpvv/12OvXUU3PX4N+32GKLIZ/PMcccOSEWx6AirbPOOvnzF198MSdJXRVlieNQt0rRMxaJXwJRFLqNrW1BRtTnvRI/Kiii9Y9//CMXOIXM+lMnqlu95gxzNvnkkydKwEsvvZRJ8w033JC++MUvZjVAAaWSMkVHQlIwVlpppUwaKQVNW73IuYT2r3/9ayiIkPXXXnstq5PVTl5QIZI6TmvuOmuoMJnP1VdfnVZeeeUh9yrb1a41LkTT9jWVpygx11xzTTr22GOHdNeIhARS5jOi1m5kPgfxU9Snn376vP6awGJ14tcJe9f35T79mS9FThcvR1A5/vrXvw5F/MRwpxi3oyHhW99CFvkDoueeFD7xjqzZbWByCjJXco6CZzfiRz/6US6AVcWPCqBBqSp88KQwrrHGGsNMF7miCJZ8JM/MNddc6YEHHsjr0C3fGCPCSvEshsxNOeWUOZ7axtLt2eOMM05WQBVAxIghKeKXKDAQG575vT4ueWnVVVfNQgEyawfIWkCSmzwAACAASURBVFJxm6zb2tavp/aqCQhLsfnmmy+pqRtttFFXP4Npt7EgfHwGWSpmDtS1E088ccjfIYR2reRDebDUyrY62N/1k+/VAHl56aWXHor4qQvd6qfxPfbYY0MRV8KKGEaYzVftrat2ZaxteKszGiD492Ld1roN/zZ8u+WgNp7h3t04TtvceiJ+HFXCs5Bf+MIX0hVXXJET2s9//vO8jTIyTSdQJ36SMpJS3cYEVNkmrI8XCfz617+eE6jFsDVclY5djxgiAYq8Yl+VhktR4NQcvljT2EYmVtVn90r8FM5XXnklk36JCAGDg+DUyVXP+CHNFJai+ClscFO0kEDF9Nvf/nb2GYVhgQUWyAlKMFI9bKcolk3ED+nWMUvIklsT2bJmFJSXX345KyP+tI3GD2wJUxEQP9vT1lkyRkCK4ich6i6ROwUPWeBL7qtQ2krYfffds8L43HPPZVIriVCVxxSD1zHHHJMJH4xgS2VgVeLXhn2v9xkMXOvErzQsnWLc+taNj/Bvfq+JqRvlWPNQVyJsHdaJX/27lAEkVHMlnurm2In4odqNO+64GX+NuOuRr275RkwpptVxUVOohfy7bSzdno1giHGNlFrw/vvvZ3JhF0iRHgwb7Pxuu7NqcKTwWTsETZOvFvg7wgY/RgztDtV3t3pZWzlLvqoqcPKF/NWU56p+Jr92GwufcLRCXtMIvPrqq7kBtmbVBgKpRSDlb0S/fiyq4FGtg3Wc+rOW8myd+FGce62fnineKICaTetgbmoHHsL/NfMamNKgteFN/dbYuS9lErexDhqobta01r3i34TvQHkG/+wLx6nPrSfiV7p7Z11YWVBSrII9Mq0pMQg06g+SUIw8rBtA0upG+VMMMHiKkoKmS6oqSBzLfAUsVchWSTHbXjp4nTVi0y0Rj0ysqs/uC/GzjaCAMGeSzBHJVYQ6ET/bJjpmyovrmE5QUZVMKRFXXnllPhtUDEkTmJ1e7kA6OfyTTz6ZSaOiY02K8lonfs54WU/bG8UQQ/6h264TPwVMAkX2iiGlnrPVVltldce5LIl0TDXnnjRQ1113XSYiMFQ0JeIq8WvDvtf7DAbOdeLXFuN1Ik/lVnw0JRqHulEgfE7hlDuq1o0c8EM5R1MhpyhaTSa/uA8CxzSXjq0o5lVryoUlVyv2Yst/y3fWq9zPPTqNpe3ZijARwNleZv5IZvU83EDWcLDze3UsRd1Duh0LYI4vWEtxr8H94IMPsjqEYNRrXS/ED3GjzFR3FzSP6hDSWbW6n/UyFv7DJ+2WMDUOSS1GzLDLYq01GN2IX7UODmTNynebiJ/82Uv9dJ2cy081VWV3zlzVEeKBM+aIpLrg79SlNrzld+KEBl9tsjuoibcl39TQlbl0Wus2/Ks4DibPkIP7wnHq69kT8QOmbqJO/BRK0v7ItE6JYeKJJx6y9Wh8iJ+EjjQUk9RsAUvcuiaFvWyjPPXUU0O2cVyP+OmikBgqB5JXvQ/iJ7gw+WKfFsWPquUsChMs/MH2jg64E/Erh/ebfINaitxJdJJAMYrKV77ylda3ehVuAW8dBG1RnuvET2Kn3kl+ChRFgknEfKFO/HTPts/qpltHcqgYvqtAI7WSSHW9R2YcjKhnW1dJxwFs586QCS/z6LqrxK8N+17vMxjzqhO/thhXPIvxNf+t8FOnqy9wuebyyy9P22yzTVYxnHWrWzdyIO9Q3hBG9/GPJqtuiBVlj9phLgiIfzRX1ea0U75xVo1ics8992T1sRBAxx2KdRpLt2cbk/tZd0oftQzpENedzmD1dT0HO79Xn2/+8oBcVl4+QCDEtnWR55hzZlTtsuNV7tEL8bMVbntylVVWGfJoxM85ZOvSzc/axmI9NaFykjHzB7sqnoXMUgzlKNuVFDzPayJ+TXWwr+vUdH0T8cMXeqmffMl8KKDIlbPc1aNZ1edRFSl3xIle8S7fp3J6T0A8VV946iWOcYBu+Jd7DA+eoRb1wnE6rWNPxE+isAheZEB8JCgTRgYoNyPTmhKDBGl7shy0Nj5bvQp9UeoQWWoRsscZy8sAHMGBXt1WeYPP921Z2iKR7HQLikexstVbVwlHZeInUetm68QdbhReayxZ2OrtD/FDtmyFNimscOM7DqhW16hX4lf1N8lMQkDoSe/VrV6fOVtly8ZbmQIFaVOomoif5EEJ7bZ1+84772TVRGGTUJGBpnNZIzMmhuezq4TNc3TKfMSfyB8MNVNt2Pd6n8GYS534tcV4UWccL5Aj+ISCWrcyR01B2e7upWA0zUmxdpRAzqgasmGLrr6bgIjKvcZXrNd8Q8nS2FI7uo0Feej2bLkQ6a3GOAKJDNoZ0AwP1AY7v1fHQ1H60pe+NGQ3w2elKfBn2XYvzW45U1nu0Qvxs1ugcaw2BfKLs8xlR6qTn7WNhd9RWqvKoXyKWFHh1SnNmaMBrIn4daqDA103328ifuU4TS/1s+rX8kVVoa6OTy1xTpxK2Ave9bnZaVJDypvDTXNvWuudd965K/7uM7x4hgarjeN0W8OeiJ8JKp5UMeyawyJB5fX3wXCS/t6jKTHYBlHwdXLFBLkDkwCjRqywwgp5r5/yNNZYYw31eInL9eXnXxAKJNC5AFtYki4FiWTMdCS2IBW/qvWaiPs794F8T8cgYQimqoohwBz+NldqQn+JX3mb0DkKb0UySkApuopWIVBlHt22epF261cPzrJtZz0Ef5X4KUqeWcilDthPHtg6aCJ+FGyKI5WwGEKpAMDIv1ffuhQD1EtbKGOK1Qmbedt+Kedbbbcgfm3Y93qfwcC16eWObjGuGXQcgQIshpvO/HnRR35wVIFi0MmaCkbT3/E9+aR+Zpr/8knn8cRiMWqUPFxVkpryjXlQxx1tYLbHkHP/TSnvNhYqS7dnO/Zi+1tclJ9vKfGILA3Gdu/wyO8FQ0dAkKLyM17+HlHyEo/8WF7uKIpfET7K93shfppfecdLiMVs0SPfxJNuftY2FvlHzakqt8iPZ2kU5Dr3bzK10RGZbnVwoLHXRPyMp1v9LG/PVxVjtdWZYvdTN6aeeursd8XMQe2Q17vh7RdJtt9++6zglyMZ5VyjJt7nfYljym03/Icnz2jjOG1r1xPxIyk7HC8JAIdcLDkqeuX309oeNLw+b0oMzjsIXiRBcuMwunYvpQg6JEL345xSOX9WHZ9koGtydsB5Gp2Tg7+ls3IeBAG05YV1c0IKWl0pGpWJHyXBm16UMMEimCQQzkzxsD3B+kL84KRQKUiSvrMy8FPMnGPSQAgGgVx8Cs4Cl9RuXZytaTrjJ/B1Zc7f8UFJC2m1Vo4gUHLL29fubRva/cxJkbbN661tRNS4KDjuaXuAfyiI7qEzLwrOo48+mou+JGT9xQCSRzWkVlL6+Fn1LOnw8vNR5b5NhI0vSbww0n0jft787oZ9r/cZjHk3Eb+2GPfTEX7aQ4zXzdaN2BEr1ONu1kQO+J6m2RicVS3nj71AxTf5o2MLZcvZPZAA37MVrLj7d9uR5a1iY2jKNwiY3QpEXJ7yPb89SL3S2LWNpduzbY8qoGJEnpVD5EDbmOY0GDY88rtxaeYprFVlr4wXufAWtNxE1dQII4n13zxtWltKqnVF7PgdNU8OtbNi58wOAWKGeKmd3fzMeLqNpfzMmjxnLH7Oyta8/Oj5dasrfm11cKDr10T83LNb/XTuWzNTGi5xgKzxMXNSlxxbMHax4KiQa2GhGWrD2+5V+e1EsaOeyPO21TUyuA0VWE2qWtNat+Hfhm9bDuqGUxvHaVu7noifmwAEwIJaV694D8b/raFtgJ0+twWh4NStBDJSqgj5k+KEdJRtEcm1rs65TzkrhpxIiA6gU5EUfAFb3urSwUnKFt4Wsc5N91WUw7ax9XfOg/09RUFny+ltGQgkDv/Tn/50yFz6QvxsL8DF20aCSYeMbLm/IJP4vPFb3shFsCjJFAPbIbBE0Dq9ESjIbRVQFUjo/E+37vB1OeuEdEiyuj/BKtCLekn5kxz5RVF0qTbW0dY2hUdRlVicHaSMmE/pBCknkjY108tA1G/Xf/nLXx7spRll79dE2AzW2sDV+loDeaIb9oh7OStYnWz9Pv0FQtLle3WjdHlutxgX89W386v3QNj4b6cXfGx7iiXKc93sMChMSBy/10TYEvWbo2Ku/FyLnyLyHH7GkBT+rFHld/zS3Moz2vKN3G1NHO1wJtWZMIonaxtL27PNR2NHYRK/cqXcWVT+/q5f25wGkt+NCWnW9Jpf/cemNfWOC1FZNYRyIsLhZ3zKOeJOa+u3GG03yn+aXebYC4zEhJzF//zZ5mfyV7exuLcahZBqdmEmX2tIvBRRtzrxa6uD/V07R3aa3hgX2xqltvrpzKtdFz9To5mAvzO05iRu1Q3HFJBsjYfYqL5U1Qlv8yESaPbVEcd21CRrW44l4AjWTQ1qW+s2/NvwHSjP6BYDbWvXM/Fru1F8HggEAoFAIBAIBAKBQCAwaiMQxG/UXp8YXSAQCAQCgUAgEAgEAoOGQBC/QYMybhQIBAKBQCAQCAQCgcCojUAQv1F7fWJ0gUAgEAgEAoFAIBAIDBoCQfwGDcq4USAQCAQCgUAgEAgEAqM2AkH8Ru31idEFAoFAIBAIBAKBQCAwaAgE8Rs0KONGgUAgEAgEAoFAIBAIjNoIBPEbtdcnRhcIBAKBQCAQCAQCgcCgIRDEb9CgjBsFAoFAIBAIBAKBQCAwaiMQxG/UXp8YXSAQCAQCgUAgEAgEAoOGQCZ+X/ziFwfthnGjQCAQCAQCgUAgEAgEAoFRDwH/n/kgfqPeusSIAoFAIBAIBAKBQCAQGHQEgvgNOqRxw0AgEAgEAoFAIBAIBEZNBIL4jZrrEqMKBAKBQCAQCAQCgUBg0BEI4jfokMYNA4FAIBAIBAKBQCAQGDURCOI3aq5LjCoQCAQCgUAgEAgEAoFBRyCI36BDGjcMBAKBQCAQCAQCgUBg1EQgiN+ouS4xqkAgEAgEAoFAIBAIBAYdgSB+gw5p3DAQCAQCgUAgEAgEAoFRE4EgfqPmusSoekTgzTffTBNPPHG6//7702yzzdbjt+KyQCAQCAQCgUBgzESgT8Tv5ZdfThtttFG65JJL0o9//OP05z//eaSi9sQTT6Q999wzXXXVVWmiiSZKP/jBD9I+++yTxh9//Dwu4zv22GPT3Xffnaabbrp00EEHpe9///vDjPm5555Ls8wyS9puu+3Svvvumz9/6aWX8r2vvfba9NZbb6Vll102nXzyyan6fzh56KGH0mqrrZa+8pWv5Ouq1ja2kQWceX31q19NyyyzTLriiiuGGsaRRx6Z/va3v6WLLrpouAzv/fffT3PPPXdafvnl02GHHTbUM+6444604IILpn/84x9p/vnn7/n5AyF+vWKx2WabpQceeCCPbayxxhoytv/85z9p1llnTdtss03aYYcdeh7zmHDhlltumY477rh04403poUWWmioKYvVyy+/PE0yySRpjjnmSGeffXZaaaWVhrrm8MMPT7/61a8y7hNOOGG/Ifv4449zTjjwwAPTlVdemZZaaql8r3fffTd94QtfaLzvX/7yl7Tqqqum//73v/m7F1xwQXr77bfTEksskQ444IA000wzDfletxxwzz33pJ/97Gd5DlNPPXX2Efmz2B//+Mecn/75z3/muNh1111znmmzc889N+ffq6++esh8xMFPf/rT7KPmtcoqqyTx/JnPfCbf7u9//3vG4Lbbbktf//rX8zg233zznsciB/7kJz9JF154Yfrggw/SZz/72SHflT/32GOPvKbjjTdeWnHFFdN+++2Xc/JArRO+u+++e87ndZtrrrnSXXfdlRZddNF0ww03DPO5WD366KNb83sv+VueXH/99dNWW201pG60zbdea3rxw8cffzzttddeeb2/9KUv5RoG3wkmmCC14WA83fzw9NNPTxtssMEww3700UeH8vO2eTV93sln1J3llluu8ZavvvpqmnTSSXM9Pfjgg9Ptt9+ex8Fft9hiiyHf6RTXLuhlTmeddVaOh+effz4tvvjiudbznSa75ZZbMt433XRTmn766XOcbb311vnSp556Kv9d3U499dS04YYb5r/GG37zm98kmM4777zpF7/4RVpyySV7ykG9xtZHH32U7y3m6lykaU49Ez8JZY011ki+IMmMbOL3zjvvpG9961uZwOy22255AXbccce8eICW4BAIC/DDH/4wnX/++blASwozzzzzUFj43OIq8IX4+Ttz/eUvf5mDbdNNN80L7N5M8hWM3/jGNzIeVbDbxtafIBqs7xSyM/nkk6djjjkmE9diw5v4ec6tt96akzKiN/vss+dHc1prJQAV/L7YYBC/NiwkMGqigFXIi2277bbZb5CbUmD7MvZP87WIHwKF8FjzKj6F+C2wwAI5viRFim0hYs8++2wm1GeeeWYmEf01xA0BmmGGGdJpp52WiUkhfk33/Ne//pUWWWSRTMQUH0X9ww8/zARDkdWsmNPDDz+c59MtB8gdM844YyZX8s7NN9+cyeSll16a/fxPf/pT9iXEb+mll87FShG/9957cxPayTQb3/nOd9Irr7ySx1Lmgzgb0/HHH59ef/31nKvXWmutTMg0vsj3IYcckv/ummuuyUX017/+dSZzbWNBvlZfffUh+bRK/D755JMcG/5RHF977bVMcOXYP/zhD/1dutYc23TjddddN+fo/ffff5iP33vvvexT8jcC3y2/95K/5QJE4P/+d6fZR0vdaJtwU62pf6fqh2JFnVObEAnrrxZNOeWU6be//W3j46o4tPkhH7j44otzUzSY1s1nmp5z0kknpd///vc5lz744INZBPjrX/+afe7pp5/ORAkRhEFbXLfNST763ve+l/2TL3g2MYvoMfbYYw81PGRtzjnnzE3ZxhtvnBsra3HooYemTTbZJJPqeeaZJ+eJqihQbiIeNYvi/Lvf/W72P3GiGazzEN+prr3GuNfYUrvlUrljUIkfRxc81BpkC2E455xzBtNX+nQvTPh3v/tdLsalqFAYAM1xgMuJqqqWRD7VVFMN1SlKnnvvvXdePElDAFOmqIY6LCSFcQDqxAsvvJBZtY4BFp5HcayC3Ta2Pk10kC8uxI8jKmQKrqLG6sTvxRdfzJ0NtUAnr9NEzHRJujAqiO/qvjjpeuutl4sJc39kG4Z1o6wi5kVBo+zAURAp/r4rGAW8ZE11KUqIAiZ5IgXGIJCqW706Rp2PJgD56GZ9weK8887LgY8UTDHFFJm4Ign+NMawoRGA/bjjjpsTqkRpzYtViV/pVCkARcFZeeWVc/xRxAZi4pB/i9PPfe5z6bLLLutK/BQBhKkoYQquhC9vlKT8zW9+M1FgkMluOUBRNh95o9jPf/7zvHtwxhlnZKInfqhFxShxmtgmBaZcg0RSieQcvo/4GY9Y0Px+7Wtfy5caGwKGRCMojzzyyBAFwudrrrlmjpsTTjihdSzXXXdd9nmxxeerxM/fec4RRxyRJptssvxsc1PsqnPvzzp2w7d+P0VbIa42ENVrNOlw4lNt+R2x6FZb3JegQPlB+uabb76eiF9TrWnCpeqH1m/aaadNTz75ZN61YtYd8XjssceG+XodhzY/RJLVS1gPpnXzmfpzNAtEAOTTn+JD/eazxdSWccYZJzdwbXHdNifEme/DsM00bEWZL9eqAxoePqA2iiW1pMl81w4b4lpMLKm1a6+99jBfqa59r7GlThK85BecZ1CJn2CQjBVrwT+yFb86YhKqrnfhhRfOnQGyIOFVOxly7p133pm7blaUHI4mQCRNxA97R0CQlsUWWyxfK1koZObvGcU8q0782sbW5mzD8/NCdihl8JK0ispWJ34UGQ6l+CGB/tT92CpR+BBtRRWJ23777XNBQoQYZUEQK2R140vf/va382fIpIKn60SyqSgCSzfGzxA8Dk1l0SG5Rhd71FFHJUVYMijEj/oqwIy5ENBuWPYFC/f50Y9+lGNAYUMu+9LpD881HRXvjfh9/vOfz2oWtQhh1nSxKvHz3xQpMeVPHa9tHeutmRgsayN+Cn1phErXr3ng94qN2OdzruPj/K5bDkCG/v3vf+fri/EbBOm+++4bZlpIIHXU9mHJOfWLqMuOs1BT+F8hfraiEWvbk8XKFpTxKzRVQ8goKsbWdPSl01hK7q9v9dbHiWQZ62CpSG051njkE+rmOuusMwy2cJG3qCxIVF/yu5vVa0v1AfJfL8SvU62pD7buhwiGPIwkIP3qkEZEDCHtVWvCoc0P+TiV2REmZE0uhnc3ZbwvMdmLz4h38XTiiSfmW/NZ60mhJ8ggQPKDml4nS01x3TYnKhqlWzMvL1HQiQ3dlPbqnCn2FEP+5uiDXKcWUCgdS9HoqodNRl33mRwi3qvWlIN6iS0x7KiIxgCXGVTiVwYwqhE/BUJnznRgkiEFsIwTCFi0/yYTc3DKEkMokAikT5ddiJ/PKBCcERERbLZhbEmRo6vbo92SUqex9SVwBvta5zQVAsTvmWeeyU5ftl2rxA+Z4+BvvPFGLnpMYuBkths4t05GMCpmlBsdkDMZtsYVeWcs6+e7ynwosbo4Ur5tCwofU9g4cJW4SXzWw7MQP0m8fC6hSoKSusIsaSiedcm+CcdesSjfRRQlB4SZD8GoYDPY6zS634+SBRtNBeJnPYqqUCd+5iq+dNd80jrbrhpM60b8FFdNA8JSfS4/53caSCZuKJiSbNWacgDftl3MJ4tpbuQohaxuip9YU4yaDFnR0CB48pjGqxA/eUn8aGqLGbs4RKbFC3OduNXUUjuqamP1mZ3G0ksRV0iRStvJcstgWBvxk78LoW6Ke3jJ5SXHGFMv+b2X/N0r8etWawpGnfwQMUMs7LQwuJZz7VV8m3Bo80PqF9VKM8/HNBFqnDxe/GYga9jmM1RYOZW6V9Rqz0NgKLjEBIZcOZpUt6a4bpsTcobg8hlxv9NOO2WlTA3pdO63PFfzRkDi50QAAgWhAgnXVMASiaT2V48FWQdzUhf9qbZWrdPaV69pii05Vb7kI9TFMYb4IW4WDSnBpnUI5aUTnTpVyrk+XRk1yIFfzqgjVcCLslAnfgrQLrvskrsOAaEwcbxTTjklq1zFuiWlbmMbSDAN5LtF5VJkFGDn1AQ5TBSp8nKHA/ck7CbTQSuGEgQC5xyVLkZh0ZEpSsiaAlc9BF6/lyLr+xSIchCcSihgqgd5rY3AEHSIH/K5884759uVM34Sg8Rufl/+8pd7gqhXLKo38wxbgddff31WJMOaEShbvZJrObPnaIiC20T8JHhb5s7FDZZSVB1ZN+LHByVv22lVf1VsEQZHQajKYh/ZkoCramQn4scPHWMohvghVRqOYggaf3dPuaZsl9ZRdT7PVrU8x6rEz5gclUDyqvdF/BQE6glzTEWzgjQoWA63V8lf21jaijhSLG4pIYrvYFkb8ZMT5KpqoS3Ppl5qUDW3RSDwWS/5vZf83Qvxa6s1ZaxNfmj84kKuND9ryBfsmljHqjXhgHD04ofV+8hryLszYwO1Np9RV9UTOzvF1HOxJ3bkemfy7DYRXJCuXuO6aU6wIwypVYglgyUfsRXf6eUq9cd3jQk57vYCogbS2mhki4lvPkghFCcIYvUenXJQ+X5TbBE97Hohf3YJ8J0xhvhVF5fDOEApsXrTtm6ch5MhiLomknDp8OvEr/7d0kFTepz1K9aWlKrO3G1sAw2wXr9fJzvmJSHa4pZkKKQUM86kKDSpE54FY+eKEEiKnUSqMPp7nRtHJX13M9i5RjEq1on4+ZwULrk541ek9EL8BJHzhtam1xdEesWiOoeSyApx7hX3Me26KvEzdwoTRQIRoZwhMZqDqimiun9kcbCtG/GjglEBqoXOuSMkrKqYGZOO3fiqTVFTDqAi8K/qCw4aF0p1UebEluZTrpKTyq8R1OcuZynEikUhL1XiJ16RAgS7WNnqNY+mLXNj1tyV3Y9extKtiCs6mjF/Uu0H07rlWETIDoF5Irp1Uwg1/9Ui3DS2Tvm9LX+3ET+iQa+1pskP7ThpNKt5GIlABs0dYWGdcOjFD+t4eB48BnrG1n3biB/iIl9XjxwQI6ib1V8NsQ1sHZ3hrFrbEY5ybXVOlDk+VT0WIO/AiiJfN2vo+/gFRb7aQDT5EtzEQlFo69essMIKuXZWd7Wa1r58r1NsiXk7bUXJHiOIn3N65Wc2ys89lDd5JQHnHTBz1zCLh1RYQOcXyhul9UVxjozsTHWgTFAKWTnsi+C0ne9pG9tgnl3qa4Ktkx3fV5ycBUH0YKiQFCwdHBUozBtsugxEj1ESnDtRtGztUA6d23N2wXZYp62kMuYm4qdoKGq2HopZAwVSt9eJ+Omm4CohGn/1MG0njHrFovr9IH69eVyd+DkuQY13NliikkBHFeKHOBhTtdvn64iYWK4q/NNMM01Wxs2j6sf1c76KluRPRSwmFylUdg4oCHxUwbE11PRGYPkeNc9WYZNRECl3YtJh//LTEgiPM4uItqZO0aoqqYqtuLUb0utYOhVx90WEKVu20AbbuhE/x0sQagp8kzkPJx/BqGrd8ru17FZbqvm7jfjZPmyrNWVcTX5IJXZUQkNdXsIrW9DV5rMTDm1+6CUKPl0lPPxSzqVwDdS6ET87PYgfkln9mTRxY0fJd4tR6GynVlVtnzURv7Y5UUHFS3m5g+Lnv+UkZ/fqRsHmE2pcvTmzi6H2VJtGOwTeDxBzTf7h5TVxWq1xTWtvHN1iC+nv9FJJ9WWgpjXs+edckCiHknWVthY4M+mVM2LoI9p0OIiHbUZKHrWKbOxVfNuV3vyRhKh6nNo1tlJ0z03Eq674ITRAlxyBKMFi2PUE0pSU2sY2orGqPq+J7PgcGfZ2l0Pj5Xf8FGbqDAeldFhnRUIhYuVnKnwXDsi163xH19P2g8pNxE+HK+kio+UAuje3kXEJqhPxKz/gq+FwqAAAIABJREFUbGyCUIKwPWcLQVIRbHXrCxblu0H8evPeOvHzLXFpC8dLHwjVqED8nAmV9OW1+mFrSVtH7S1BirLiI494AaW6JduUA2xdS+4aTXHjiIkXnmzVaop0+zp021hN50T5GTWu05vpVcUPtl488nY9ZcRPvcjNyKK38qmrVAbPRNDc12f+XZFsG0vd96svdyjazh4il00vVvTmLd2v6kb8zMMalRcD6ndSp6xZfWzd8ntf8ndTYVcvnJfmN02/Zdi0u9TJD5E7CpO3zfmRHOhYgoZcPBXrhEObHxojJc1ujXiEI7w1BM6/DdS6ET+7SvyPglk1sSLPG5MGy6+J8F//uL5qTcSvbU5w89NKmiNqLKWP0KFmyE1qF/WY2AAH7wj40zGUutkh8wKb9bZ7iBw65mBLWNOhdmlMNJZeUFFbnTm1tVtIZqe172tsDRfFj7PpKuomuVXfJhuoo/Tl+4goRyg/WurApARUFCoLiKxJVLYALUZR8OrPqQejLsCWooW0denfbfGUn46R+CmLdSsFpG1sfZnnYF7biewoZpIk1aMQPw4pQdpish2lE0SqBAdzJkKBQdYUHuYanVx126nT+JuIn2spIBKQ5KZI+mmIcp6ujfiVMSB9xqUxcMi+/P5idSx9waJ8L4hfb97YRPx8U3IUl7behjfxQ2j4b900FoUo2HaV/MtPE1Wv5f/O60juCrBGhKJd3upvywHUHs/SlMhJlIOyReylp6btx/IDw+JMwdCMNVmd+FHiNbiUL804oiC+ipLobBGlUnFDHijrxuMwe9tYxLhYr5vCidg0vRns2vJjvL15zLBXteHrG/KObbNO59HsBvG3+hjb8nu3/I04N/3YL4KGxCDzfJv4UN5kr86uifh180M7KQQHucfayoHITalzbTh080ONPAXaMQx1XCxQwgb6Yk43nykknD9SzJriwN+X8/nUMKTPSwz8tS2ue5mT+VLExbi49qyilosN60ZhdM6/ybfKD4XDnqAEM2uILCPoZY6aEryDD6qLxCpnC8tPRPl+p7V3XKovsTVciF9/gze+FwiMTAQUXUGuIwsLBAKBQCAQCATGdAR63uod04GK+Y+eCOiMdVlNW72j54xi1IFAIBAIBAKBQP8RCOLXf+zim4FAIBAIBAKBQCAQCIxWCATxG62WKwYbCAQCgUAgEAgEAoFA/xEI4td/7OKbgUAgEAgEAoFAIBAIjFYIBPEbrZYrBhsIBAKBQCAQCAQCgUD/EQji13/s4puBQCAQCAQCgUAgEAiMVggE8RutlisGGwgEAoFAIBAIBAKBQP8RCOLXf+zim4FAIBAIBAKBQCAQCIxWCATxG62WKwYbCAQCgUAgEAgEAoFA/xEYQvz6f4v4ZiAQCAQCgUAgEAgEAoHA6ILAWP/73/8+GV0GG+MMBAKBQCAQCAQCgUAgEOg/AkH8+o9dfDMQCAQCgUAgEAgEAoHRCoEgfqPVcsVgA4FAIBAIBAKBQCAQ6D8CQfz6j118MxAIBAKBQCAQCAQCgdEKgSB+o9VyxWADgUAgEAgEAoFAIBDoPwJB/PqPXXwzEAgEAoFAIBAIBAKB0QqBIH6j1XLFYAOBQCAQCAQCgUAgEOg/AkH8+o9dfDMQCAQCgUAgEAgEAoHRCoEgfqPVcn36B/vWW2+lKaecMt1+++1plllm+fRPOGYYCAQCgUAgEAiMQAR6In6ffPJJOvroo9M555yTnnzyyTTnnHOmLbbYIq288sojcKj//6Ouvvrqjs9++umn0//9KHUjaTjhhBPST37yk3yj3/72t+m0005Ljz/+eJpnnnnSDjvskBZffPH82X//+9900EEHpYsvvjj95z//SYsuumjaa6+90owzzpg/v+uuu9Khhx6abrzxxjTRRBOl9dZbL+2yyy5DBtj2eX9Ae/nll9MMM8yQbrjhhjT33HP35xZ9/s4PfvCD9Le//S098MAD6Wtf+1qfv9+fL4xo4nfNNdfkteQH7733XvaFjTbaKJl73X75y1+mfffdN5100klp3XXX7c/0xpjvWMe99947/eMf/0hicrrppktLLrlk2m677dIUU0wxFA7ideaZZ05f+cpX0t13353GGmusQcHp448/TgceeGCybhdeeGFaYoklhty3LcarAzj//PPTOuusk/NB9R4PP/xwjv3JJpssXXrppY1j/uijj9IiiyyS80T1mm75p36j+liNYY899sj5oG4777xzOu644xL8P/vZzw71cX/GIvfvtttuGb8333wzLbTQQkkenXTSSfO9n3/++RwTV111VRpvvPHScsstl8dmvgO1bvj+/e9/T0cccUS68847Mw7rr79+2mSTTYZ5pPGJ6S233DKPi8ml++23X7ruuuvS22+/nb73ve+lY489Nn3xi1/sKb+fd955OQfce++9OS/us88+afnll+843bPOOitfbz5qp1rjme+++26aZJJJGr/3xz/+Mf3whz/Mn3XDodtYjOuwww4b5v5zzDFHuummm/Lfn3nmmenII49MzzzzTPrWt76VMYXXQI3/WY9LLrlkGF984okn0gEHHJBrywQTTJCxszb+Xa5oavh7rd3GrV7JM/5UK+XzH/3oR3lKMD/kkEPSBRdckN5444303e9+N+25557pG9/4RuOU77vvvrTtttumf/7zn2mqqaZKW2+9dfa1Ym1+2Bbn3XASe3Loueeem2vTsssum/NZPbY6xXW3NeyJ+HHa7bffPi8MgBAbSbWeCAfqLAP5/qmnnpr+9Kc/JYXcYi288MI5qJuKyG9+85tc7Dn8ggsumH73u9+lgw8+OKtMM800U3ZYYAqc8ccfP5NeyV9R8v+5ExiCkkMgDJtttll23LXXXjsTxW6f93eOI5r4FYKPAH3zm99Mu+++e3+H3qfvjUjixw8kCElB8lHM/vWvfyV/v+qqq+b1LyYIv/3tb+e1ffXVV3NCC2tGAFGRUK3lVlttlWafffaM2a233pouv/zydMUVV2QiWOyMM85I4lciFmulARsIvsaw1lpr5ef8/ve/z/FbJW3dYvwzn/nMkEeLZ8TN+I2z3MP9FC+E1Tw7Eb9f//rX6aijjspFtVzTln/q895ggw3SSy+9lAkWH/Vcueiee+4Z6lIkaLXVVsvEpon49Wcsxi4//uEPf0hf/epX04477phef/31dNFFFyUxMe+88+ZCLf/9+9//Tr/4xS9yDj3llFMGsnx5vTrhqwhrIpAWz0daVlxxxYxPaezLw9dYY41022235eJfiJ+/k8cVUTWNjyJwCHNb/r7jjjvSYostlsnv97///VwDd9pppywCmHfdzj777JxjECpjVqPklVtuuSX7RN0eeeSRtMwyyyTPsdbdcOjrWDwLDuZKyBCPcENOiBvW7Fe/+lW6//7704QTTtjv9UNUrcN3vvOddPrppw/lix9++GEmYxtuuGG+Rpwi5XwLzxho7X7nnXeyP4rvn//85xnHn/3sZ4lYNM0002Ti5u/Ue/9N4Ln55pvzc6txb/J8ZLbZZksbb7xxvgc/UuORbXi1+WFbnHfDyfPlQmsjf8GHuFQajeriNMV12+L1RPw4LCcx8VlnnTU7rk5i1113zWx5ZNtrr72W5ptvvtyVWqjrr78+s3Lkpcl0YFSHaoGZfvrpcycgKXBMXZkunwnGueaaK3cQksyPf/zj3Ol+7nOfy59zbkVB16uL7PZ5f7HqhfideOKJWcUs3RuyprNkCLGutnTIChhH+vznP984JB0xxxackr1kUALjyiuvzAne3//5z3/OOCuOlBX3++CDDzJRpBALQn7iH0R59dVXz92LTkbSpCIg6RLj1FNPnZNEdau327UGLgHriASRNVpllVVyUmmzF198MV+vqFr3qrnX4YcfngRUUQHg575iQPOjSVD0w4ZFgG9IVrDSJVdNMRejRc3wGZVohRVWyOTmlVdeGTBpcE/x+eCDD+YiqkP+61//OhTx6xbjckExRZ1KcO211+b4KcSP37v3ySefnD9rIn7ikEK26aab5kJfrmnLP3VE5VqNSFH45KH5558/PfroozlWmEYVIVHIYVwnfv0dC9IudksuFDcIjjxCrbLWiijVk1GqNNUK6UCsG74In5iluBVTnCmccmAxa47cUdk0AIjf+++/n5VluUdzwh577LG0wAIL5D/ds1v+NldEQa0phmRYB8SzbvAgQNghK0Zx41dNuwYaUGttPqwbDn0di9qEZInLL3zhC2nzzTdPY489djr++OOHjE0dJWQgiP01u1KTTz55UpeXXnrpoXzxueeey/lTbSm7SMgNEUaNGWjtRqwRSHNtMoRXDJc4LgqjXFFtRn1XsyP2qr6MxFtPjWqbH7bFeTecNFX8VizJj52sU1y3rV1PxK9+k0L8BJViPrJNUI0zzji5UDNqDIUSYAJU96JoY/tNpiuT3GxLKVS2NhQhpGLcccdNxxxzTCZ2PtfZIReIWCF+SIFkoRPmcN0+7+82Vhvx0xnqcHRtio2EwUkpAxK1bWpkzDgFH9KmY9XJ1I2ai9QgYwqJfxdMpGame6KmSBz7779/JnqlwEmCiiGHpRQIcv4i0bqf58PXuBQoxaNs2cBWUFWJX7drqXPIu7kjExKHAuW/qXPdzDU//elP89bCl770pVYXdq3ihtxSVaig5h42LAJ8QbNofdsMeaEMKLpPPfVUjllbQQNRHOrPbCJ+3WJcLmEKpEYFydHhV4lfeYYGoRPxU8AlbwVOEeikCtbzTzfMSlNlTBpNhZtRBy677LKcs5A1cVRVMPozFlu38qHCV465eBbiouEXy3UTE3CjCA6GNeErNyO+YljzRo3V4FpTjTtDfKmBCrQCPu2002biR3GSc+QjzSpDBieeeOKc1zSa3fI3hQiJr85PkyyfIZptZl2+/vWv5/xcnl++o8ZYR/iVde3mZ+pvr2PhNzBzFGDNNdfMt+XTCGZVJVUPNO+I2EDNdnKd+CE0cra4Uq9grzES79TGgdZufITfP/vss7lel3VX65pM7CLg8k9p8st1mhoqNuWuGCKPZxDCevHD6jM7xXkTThosfsIfKNHqv6ZArazmxl7juj73PhM/LJdzKIIGXM56DNRJ+vt9RcL2m07NIjOsn1NxJCoSZo24ICCcrBinNx9EQ4IQCIzcT5EQVEz3Qt6VxClU/kR6kEUOpouSNChfyGC3z3Wb/bE24oeMKDASZTEBJvB0l9aLGshR2kzwwU9RVgR93/OpOKycseSchTTB1bYJx3T2EwalAxZUigVl1PPhrRBSKBh5nsoikdv+KMSv/HunaykxZSunr2cQBZQgpty1mc4VgVVoKUUSPOIMn3qCbrvXmPA5X5OsJPc2U6zFsDVmihOSLb4Gy5qIX7cY91wEAYEV2wqjnY6+ED+FvZAECb+J+HXKP53mrRBQMhEaOa6ofQizsWo6+aOmp6r49XcsGiv+TlWonkWjlsg39abxoYceyoRf/hisc8idiLW8bW3kAMZf5J5iml5bdfK+3FQIgM/lJ3kNhoiHPCU3aliNv1v+lsvkVCRe/lIDCQ8UtFIvuvmta9UQ469aUXjUFE113ZpwKIShl7Egv4WwlJzFnyha1bP6xAHNMBI6UGsiNO6pQXe85oUXXsiP4CuItDgdaO1Gaj0XcbWWcjxMrY2GqGrOFrvGOV2+VDfxye+JGMU0V3wNRqzND13TFudNODlOZ2wrrbRSbrIQd0osEYegwnqJ605r2DPxKwelSewYp4UajEOgA3UuZE7iK2B0up9OFLt3oLSYRKVTk6icPfKPpMopJQZFiTO6t3+cDeAIlKkisyO+lESdlM5T19D2eX/m3Eb8SPTUtuoBZwlPQpHQkGBBjtxSVXTK9UAo4xI8EiV1i3FCyU4hMF/ETzEsgesaGCiWtg1g6NxMtZNE7Dxfl9t0KN09JGmOXogfrLtdq/ggqAiZs4jGaF7ObrSZsdiK7oX4SZgSiC6PCUIqKCXYeMP+fwT4m2ZAI9VG/OAokfHNsvULawlNszZY1kT82mIciXCkwXlE1hfih3TxQ40Of9cwNRG/Tvmn07xtMfJXDZJmRJ7RbPFBxI9C4cxxlfgNZCzyvHnIr2Ur19gQPw1XlZzLndtss00+PtLLUYte17aJ8MBBAymG5TJ52RYepU6Rp5jJDfKWHFInfpp1xVTekLPkbkqp3GX7vi1/W0+5yhlLanUhgPJiJ9NoIKPW3PpV8fQd30WkbYHWX8rxeScC3OtYzItCWxU+NLPqOdyKIX7wKU1+r+vUdF0ToaF4wkyNMRbigVhDwjqpxH2p3WKBUFM9Y2rXSk2qntlWy/iv/ON4QP18n/kgbJTg6gsyiJ91IvK0+WHBpC3Om3CS//g2foKgMy+SmIvY17D0kmM6rV/PxA8JkqABxemdiRgVzOR11t3eqjJOiZfUr2NrMs5vO0PioB5Z1Op2oXkjexJK3RQHbFyCbLK2z3vBsb/Ez72LVE1Z42QCTFHi8GVrpIyBfC0hSIh1M38Er434aQhI7jqpYvCTZJyrgXMd33Jd9Yzfl7/85a7Xlu+Q46kdui9JW4CUYOmEbekse9nqRaqdAambJFOUql7WcEy5hmJia6Vtq/cvf/nLUG/IVfEZzLfX68RP4uwW4wqTbluSt6XP+kL8+L4zdxoD1on4Vedb8k9Vse/kL1QuDREFUpxSN/i/Yyl14jeQsSBTDpUjUNW3Hqn3tjeLUmR+civypDANpjURHkRN01lVpRR6eU5+k2OQ0KKc1YlffXxImTPfTaqQa9vyNxIp91PVmowgoG4ge86zeWGwbhplDZPt2ybrdqSgen3TWJAruyeU2+qxFjtCmvMqUUdqNBNVlau/69lEaJBea1MUM/dGjMQc362/8e/zXms3jJA14ks59uX7ahaiVM5/lpegnO/m450M56mfOSYAaBDUmW5+qPlosqY4b8KpvFfgz3JOmtqvrjnji4v1NcdUx9MT8SsJWsD797LF0F+HGKzvIXGIH1JU3Z932F+yqgZReX3ceTzqAkcrb3kZD3XC4U4vHdiOtZ2nSyoGcMGgoCEYzrvpLBj5XifDKagY3T7v79zbiJ/EQlUrKp3nUPccmrdVq0OpvnUmcSMztqGqJngk1Grg+NxWt8TonzbiByNdsOcyiQ+2ZatXcHtb0BtSxXRgMK6e8ZOsul2rACJ9tvOL6ZI0AZJLN1P8FXUvAVW3iHxHJ69Y8AEJipJIHZQQiwlI271eBGlKVv1d50/D96gGts74Sn0LXmK2zpKmOIRp/Wc4+Cby2AsJ6gWvOvGjLnSLcf5KnWky/lI9DN9UkJEy8dpkFB2+2Sn/VOPX990HCRWPSy21VL4lsieeED+FlELaZIgQIjCQsRgnUlJ+wqI0hnIvIiOf+sxOyvB42akJX/5Ffa8qbGWrFgHUqDWZ/OdIkDFTM82NyXcIgBzEuuVvWDofWF5+sBae57/tPtSNAi4HyzUIeqcz3nKdRqG8jFe/TxMOvY5F3lWbKNhVk7802naEiok7PtPLkaC22GsiNJopgoB6VPJpOVKA2Fib/tZuscMP7M55SaSYeuQISYkF/w7PpjOq1TmpeTiCmC0mFhznUjO6+SFhoxvPqMZ5E05InRcjEbzyckdR/LxLwF+6xXXb0adW4meLVyKTDB2gr55RQ7ok6ZFlEh4VCYOvGoCoMT4jKftvC0aydfhfkAsEgUa5LPv2fttHkrVggHcdiZgz+Xeyq2THcSReRBAhcEbEd0vQtn3eH7zaiJ8CoLMpiU8yQ2IlOt2ON2eRPGTQ2RdKH8eqdnblnIku0FvNVSP/u17yUDi7bfUidbp/SoDzGwqd7XSJr7zc4T5lW1iitRaKh8PV9Zc7Ol2LmAkgCibyZ4wIp+dTI6yNhqDTwV7n0BAQidn1iDxCJ9iovZocpB72kkDVYKURKm8992dNP63f8bMs1kGCsvZwKqosTMWK7Xgqmu22+u4BNVZRcvav01vnfcGuaau3Lcbr9++L4lf/bl3xa8s/CoEXKspWqpxk+0+uhRvCR10q+aj6vLriN9CxiEsE0pqIDwqiM2LyC6XMFrMCWF4Y6Mu69HJtE+GhtmjK5Q/rKGfYuteMN/3KRF3x05AiGNQ3Sh2VS/NRtgK75W/khD/zawTGWvJhKoxtZfeDmXHwO2O0/kWRbZozMm0XpKru9EL82sZS7qGJUc/qzby6CUc4iFeKGBKI6JQXF3tZo07XNBEauUFNUAcQZXkb/nK3OjzQ2u38pNzt5U65md+qg8ZCtSY2OK5Ux6LMgbpIFVUTCAtqnmbVWN2DSkgBRpDb/LAtzsszO52FtMPm5VTx5+gZH0X4qi+blHv0sqtQXadW4qej6fSGHWVFIh9ZJsAU5Oq5vTIWwYhoSI46UQtXkpMgUPQRIYkSoXWgvPxkgUB0rkCwciQdnWThN/9YeXtU18KZEK7qeba2z/uDVyF+Td+lSnFmgetsFUmfY3I8hI/pUgW18zDmRMVCaG2nFnMGUqenm2/6YVGqouQv2XYjfraUEe3yFiMHlsARZAlaoi5v+vodJ1sOzidRgpp+zqXTtcbtvs4XWWfrKskjszpr620e1rqTCXTkUdeJ1FMBBLctKwQZwUemm36s3Asiusv676n1Z30/bd/hrwiB/GBdECedqyMRtg/Fl3WTPOvGP/gCv6mqwn3BSMEtinP1e5QZSb8txuvPqhM/HTXVuG5NxbuelNvyj8ZFYypWmabbcRZkBZlGlDVmJR9Vx9BX4tc2Fg2OPGIXRazKJ/KMmmD9OilDJSf1Zc2q17bhazwKoNhzLQLD37xkUbc68TMPuUHdcJaZSMDXyjmvtvwtZyBTdneckyYoFPXQGUz5rPzUTvkptPqY1KOi+shdtqf5ZHVXwXfacOg2lvJMW97Em6ZtZOKJcSBefFxs+HMg5i3Zpjec1Sa4I5yeSRWz7c2n+Fg5mz2Q2m3cxA7E3G6MPKJhsibWvezS1edXfjBbjSM8aP6ZXTH13Z/GRyioHvfq5odtsdWGE9HNdjMs8TBklJjlbfu6DTrxG4gDxHcDAQgUMke5K0R0RCCjC6dM1H+nb0Q8O54RCAQCgUAgEAiMigi0Kn6j4qBjTKM2AuR1ZyDI1LaoKBi2XXVi9Y52eM4E4aPmdtrqHZ7PjnsHAoFAIBAIBAKjIgJB/EbFVfkUjMnPOjiL5LxE+eFQ54HCAoFAIBAIBAKBQGDkIRDEb+RhH08OBAKBQCAQCAQCgUBghCIQxG+Ewh0PCwQCgUAgEAgEAoFAYOQhEMRv5GEfTw4EAoFAIBAIBAKBQGCEIhDEb4TCHQ8LBAKBQCAQCAQCgUBg5CEQxG/kYR9PDgQCgUAgEAgEAoFAYIQiEMRvhMIdDwsEAoFAIBAIBAKBQGDkIRDEb+RhH08OBAKBQCAQCAQCgUBghCKQiZ//n2lYIBAIBAKBQCAQCAQCgcCnFwH/K9Igfp/e9Y2ZBQKBQCAQCAQCgUAgMASBIH7hDIFAIBAIBAKBQCAQCIwhCATxG0MWOqYZCAQCgUAgEAgEAoFAEL/wgUAgEAgEAoFAIBAIBMYQBIL4jSELHdMMBAKBQCAQCAQCgUAgiF/4QCAQCAQCgUAgEAgEAmMIAkH8xpCFjmkGAoFAIBAIBAKBQCAQxC98IBAIBAKBQCAQCAQCgTEEgSB+Y8hCj+hp7r777umf//xn+utf/9r46Pnmmy9tsMEG6Wc/+9mIHlo8LxAIBAKBQCAQGGMR6Jn4vf/+++noo49Of/rTn9JTTz2V5plnnrTjjjum5ZdffqSB98QTT6Q999wzXXXVVWmiiSZKP/jBD9I+++yTxh9//DymP//5z+nYY49Nd999d5puuunSQQcdlL7//e8PM97nnnsuzTLLLGm77bZL++677zCfn3vuuenHP/5xuvrqq9NSSy2VP//kk0/Sbrvtls4+++z03nvvpRVWWCEddthheRysbWwjDbRBePDHH3+cjjrqqOwL5mnOCy+8cNp+++3T3HPPnZ/QRvzuuOOO9NWvfjVNNdVUgzCi4XOLO++8M33nO99JL730Upp88snzWm+22WbpzTffHD4PHIPu+qMf/Siv/THHHJPx5Qu33357xnswja/KCQceeGC68sorh8SvZ7z77rtp//33T+L79ddfT4sttlj+729+85t5CMYlv1x77bXprbfeSssuu2w6+eSTU/m/HH39619Pjz766FDDXX/99dPvfve7nCOnn376YaZy6qmnpg033DD//R//+MecnzRI4mbXXXfNz2iy//73v3keF1xwQXr77bfTEksskQ444IA000wzDXP5tttum371q1+lDz74IH32s5/NsSj31W2uueZKd91111B/Xc+FMPrCF77QOKa//OUvadVVV83x8NOf/jT94x//yNeussoq6cgjj0yf+cxnBryUDz30UFpttdXSV77ylbwOVfv73/+e1/W2225L1mKjjTZKm2+++ZBLzjjjjHTIIYekp59+Os0666zZ1+add97Wtb3iiivScsst1zj2V199NU066aSp7dnVLy+66KLphhtuGOZ+22yzTa6pbX4oV1rr66+/Pk088cQZ6z322CPfry9r+9FHH+X5y9d1LN2rrQ72dTHFzE9+8pN04YUXDvHFco+2+njLLbek/fbbL9100005jsx56623HjKE+++/P4sG9913X84Z1p2fFGv7vNvYqvPsBd///Oc/Oab5xNe+9rX0wx/+cMj6uFe3HOTzs846K/vx888/nxZffPGcc8RmWRNrffnll6fxxhsvrbjiihkXa9hLjum0Zj0TPyCfcMIJ+YEzzjhjJlMmZGEWXHDBvvrEgK9/55130re+9a20zDLLZAIGBEQUYJKzZDD//PMnidZCnH/++UmgSXQzzzzzUM/3OUdT1OvEz6JyrFdeeSVJdIX4HX744ek3v/lNJgMKmGTLQS1g29gGPPmRfIPVV199CJ53W/zyAAAgAElEQVTf/e53k6ZAgpbETj/99LTSSiu1Er+RPIWeHh/EryeY+nXRiCB+yBISMsMMM6TTTjstJ88SvwatWMgTRxxxRJp22mkzsbrxxhszmUNa5AUJ8pe//GX60pe+lDbddNMc4/ILm2yyyXJOQBjrds899+Tm+MMPP0xjjTXWMJ9rmuRUxG/ppZfOcaPI3HvvvbkJrRtC6V4I3AQTTJCbTM9++OGHhyJYyLMGGGktxK9pgdZdd908F0S3at1yYbnuX//6V1pkkUUyYUWCxDu8jj/++Eyg11hjjbTWWmsNVfz64yQI+V577ZW+8Y1vZHJZJSvqz0ILLZSJnWddc801aYsttki//vWvM9m4+eab81rDGUlWu+Tsxx9/PE044YSta1sf70knnZR+//vfZ/9oe3bbXAkFiCg/MrZufsj/+AOCvdNOO6XHHnss75SoU+bZl7VFxvmy+zURv17Wvm1u5XP1QJ0oNbjqi231UfzNOeecuRHaeOONc0OhNh966KFpk002yfWVkCN+1F0xjPS7Thy3fd5tbL3Mrx47K6+8chp77LGzj73xxhvZH5EzcdiWg2699db0ve99L/3hD3/IvsDPLrnkkvS3v/0t543ZZpst/+N+r732Wtphhx0yf3F9W47pNpeeiR82bRKSDeZ58MEHZ8Il8HbZZZde8BrUa3QnOutf/OIXQxLfcccdl5PPgw8+mIESpLq3YpInklbtfs1n7733zklaIqwTP2RRR0ZVFKiSCbVPMqJ6YeB1axvboAIxgm9GcZAg/Mmxq6ZzkVgVMP9IUlNOOWVWXikPEtfPf/7z/JX6Vi/SiEgj2O6vsOlumX+/+OKLs6MvsMACufstnbvrBb21ppbsvPPOWT3RPXn2s88+mwm/jpvf6uQVgKIKd4MviN/wc64RQfzEoc7frsTnPve5dNlllw1F/OQOSbeQwdJBUyPkCT5C5afYMAVpjjnmSC+88EImD3yaT84+++zDAKX7X3PNNTMBazJEj3K31VZbDfmYaiWnKux10+QqhHIYQ74ok+INsWUUHYVWXMppnYifoqKAwqaq5rXlwjImBQq5Q1g8n+oIO2oHkwcUKLGnIPbX3Mfayenyb5WsKPKPPPLIEPXUM+AtZyjAFBjPPuWUU4Y83jptueWWWT3qtrZl16Z8UcH1XYqxP9ue3TZfZBZuFF/WzQ/hapcKoeDDjJih9jWpiJ3WlupJFJF/5co68et17dvmVj6/7rrr0hRTTJEopJqEqi+21Uekvajh5X4IoLpr7kiPhglparK2z7uNrW1+dXzhipj588tf/vIwX2/LQZpJPovU1g124khjqslk8ob6Jxe15Zhuc+mZ+FVvomMRZFQ0IJbE2Aba8PycdKvztOWIlOreqZGCtRgJVTG/9NJL81/5jkWzJfDb3/42J64q8aMCSqI6BESjED+Jf5pppskJCWGR3AUnZ1QQ6lYf2/DEYXjfW4cl4ARnN0P8JKf11lsvkzF+YrucSoA0V4mfzl73JtHr5CRnRRW5tH4KjGsQOYrqeeedl5555pmc2Ndee+1M8gQE5VEh9Z0XX3wxb89SaxVI5JEaoeDpeCWQNgvi14ZQ/z8fEcSvOrom4lcfPZLHR8W365Eif1cUPf417rjj5sIvbyAIjjcglHxL5y9JIxW2t/ixxtA5V3mBauH6JkMCp5566nTRRRc1Koh2M/g05dIYNJ3iyzbgOOOMk29ZGiTXIGMUwvp2qwL87W9/O6tx66yzzpChtOXCcqFneg7SKP7EqCMyyHKxQqCNV/EfqMnndeJXv6dCaOfJ+ORi+UXeKNvqrkcePv/5z+ec3W1t1ZCqaSxhfOKJJzZOpf7sbvOFEzXrgQceyOpUk1X9UA1Cfu08FeIHC3MkSFTV5E5r6xmu1xDLr+pdlfj1uvb9WUexUid+9fv0Uh9tgWrS+K1awa/VAHXFnNRt8cfaPi/P72Vs1bE24XvmmWdmwUJDiDwjp+Ic16gr/U05SB6h3KppaqN6hUc0qf7GomngE2pcX3NMdS59Jn62ThA+DFQCKB1of5xiML5jq0M3zHRyyBmnKIvKwXWo/lsScD5Hl850PwBA+nTZVeInaeqQJDXf01UX4ifZ2magTNkq4RC+T4LlCMU6jW0w5j2y7oEIK1BIbzdD/BQ8zlzMEQFbDbYtqsRPwPrMVgR78sknczeLNCq2lINylkkX5LyP+1JIrKfiU87kIHQSvKKjC7NO/t13mMLq+f/73/+GFMxO8wjiN/y8bFQjfvyBr8ghmhvGpxR8TQc/5NOSvC0/ypp8oalRmG3/IQaKqxxAdeCH1CcFXncuodttaHqhCbmg6igATabwG49mliFUtoTKmVoxI1/Z9kLI5KImxU+uQ06djaqqcd1yYRlP2elQfGx3MXjYnhIrxYzV1jhMkJyBWjfi5/kKLSJHNSkKqsbcOUd+VsxawckORLe1rZ4Vo8wpwtTFomiW+3V6drf5qiV8CmZNVvdDW9zynHkhE8gOlchO1ssvvzwkr7lXp7XVUBNCHCOgpNWJXy9r39817Eaueq2Pmnpzl/M1VTiI+mCHrxyT0FCp6whY2+dlLn0lfk34qlnIqF1PRw1wA5wIEa3HeRPx0xBaXzFJELErRpHVGNTP1pq/5saxBgSxrzmmuoZ9Jn4mqdAaBAWGA3Zip/11lr58zwQAhfk7z2HLVmAznS/ncK4P0VhyySWzw1hwrJlCyPkmmWSSYYifLWydvPuyKvHzdzoQ37VYDMG0ZWQ8ZcG6ja0vcxyVrpUwYdEL8bPlrkkoxk8EiMCoEj/bJ4JE4NRNMbRtpcOxvVVMUUHmbMnpuAsx9ExdFLKn2EoIFJxitp8VRYm8ftaz/uwgfsPP80Yl4ieOET4JWM4oKpkiy1+dDdQIIn5eELB92PRSG6VGIXIkxrGCuiFM1JqqWo4k8X351HPKlk79u5RDhEEs2BoyBo2o78lfnktZ8Yzi403Ez+6M3ZpqUWrLhWUscj0yizxR5JkxyAXisVghfogGdXGg1o34iW1kF64KoR0BJAnZVpQpuMUQP82gc9m9rq01p9JVG/pyv07P7jRfqq6XmJCDIlZUr+3kh2oWIqHO8Q/bf5oTJLG8aOQ+TWtLTbPjgfxRrvl3lfj1uvb9XcNu5KqtPmo01GEEHufQbDHn+u3mWO9iaq9jQNa/7fPynb4SvyZ8bbtqAPhTMSQbH/AyTtXqxM87EnKN79uJYnIHH6EeVl/00uSpj/gX4t/JmnJM07V9Jn7lJpyHImO7wL+PCiYwvGxQ74TK2JyREcQIIsZs+6R0rlXFzzWYNeJQArRK/Mr5GkoU9YvZy9dlVs/cVDFpG9uogF8vY+CgupFetnrrP+fSH+JnXTzPoW3qhu0NhU+hcbC8jrlnOjjdRvyqZLHTvIP49eIR/btmVCF+5WUIhKb+okN9ZoXQFGWh/nnJAZqPpmaY2oJ8OJrAqNeaTw2MnNTp3KkzZgp+XUHT9FAKFEhqlyMYtoE7ET9ExbaY+1HkGELbLRdW50hZo1BQ7YtR0JFIubBY2er1HKR0oNbLVq9nuA6pK2eBqWvVImmNvRhjm7zXtUWanAlu+jWI6j2qz+40X3WSENGUO/vih44qyYvONxdrWlufWRtnP4vCWCV+fVn7/q5hr+SqXh+NzVa9v6eCV4ky3qGxqm69u5Yqb35tn5e59Do213fCV+PDn6o7W+JcgyYOq9ak+GlQ+E712IXcQfnTjDJzkjf8WT9XX1+Xeo7ptG49ET8s1LkHiUoRdoiRquatHbL4Oeec01+/6Pf3OL9EZDzlXF15k1fC0e3qElzDOBJliYPoDpoOZLuOCqSbKi8h1AdoS0YQeRHENk55uaMofogJKbbb2AYjGfYbuAF+0UsWipX1r3bTbisI/D11runnXDoRP1u9iHVJyBIajBF1W0W22yVtRoX10zmKIIInmHRW1A7GFx08r271OoNZlBQ+QfHQfZezUZ0gCeI3QGfp8vVRgfjxC4oUFY/P1I0fO8dHnWblZTLdPXLnqItuvah74t45JEqMOKHsVEmSYkAVVMyQNTsQYsIWcNObv2U87ocUynlVpVHTI2ZsRVN0msyYy3EcxyBsm1WVCPmzWy6kjBdDGsVlVYnQZNv5UeTKz9cgOLCh+A2GNRG/ooBVz3AjaAi0HR4//UHtMt9idmeQe3Wr29qWvKA5RPwQ/qqy1vbsTnO2DoQCqlTVuvmhOkbZUmeoXEwNMjeqULGmtfUZ9ajTC0YU5k4/W1N2RQa6fk3kqq12q4+ULSqumKo3RGKO4q3eFxN3jmp4qbPt8/KdvhC/TvhSaR2x0MyVlzv4B9HIiyBVayJ+SKr4KS934Fr+G9k1J36qXlFm7UhUTa3rlmO6rV1PxM8NOAipn9pioh6oeHLKopoN1En68n0MXNK2n48gGAuy4VVugOu+AUXVw5xdw9GpeU3Eq37Grz6WquLnMw7mDJvEIlE4oImISLRtY+vLPEfFaxVtBMrhdecndZQ6HphwYNurfSF+CheiLGlbM0EvWZU3KuGKZFs7iZvD20K2vYWEWnPdkOQsqVv/6ssdvq8oCE4Ekpqr2DJbCXy76SxSEL/h532jAvFz1lND0OnQvrfBJV5+aXtTwaWgKNyaS0cKFGTbK/yVuuQlMEVJI8g/bTfKjwqYz21bIQAUbD5bVLo60ooS5UqMMYRPnPF/W16Km5xm96G+PdxJ8dPMuken+ZYxNOVC8VTeki+7HOV6a2nbyn01bcQAz6r+7tpAPKmJ+JUGEI4KI6w807/LQxQ0W3PWDsFG7uUQ66gAd1vbMlZk2r2qao7P2p7tGdbdWlXfEEawrVlV3XG/Nj90bg2pLr+dWn7XrUrAe13b+lZvfV3a6mBf17GJXLXVR8RdXfGns991c+7R0R7HMMSkM7fejCYGIOptn5f7dSJ+VDOKuNpSrBu+4hwpp77zQ/GuDlZfLHKfJuKnVll/zRLlndKH0JoL0o9rIZJ1n3G/thzTba16Jn6IlYSHrZPyObEEVhS1vjrEYFzvgLLALD8c6twdkMrbUhZQogag4JF0S/feV4evEz+JDqnUdVETOYlgL91/29gGY/4j6x7mC3fkyRk8SUmgKlLlhyf7QvzMo/pzLrZVBI5gQtapMfyP3O+/dV+InKJsuwuxd+hdQXJ4XvIv2/3UGePiI5KwF3KcyygdvL8rv/1Vx7OJ+Ll33Zp+CHdkrc3o8twm4tc09vKDuf2Zl3VV4OsmZ/Ef235NVn6YWPfNX5C28sOskns5A+htf6TP544dIDxUvfL2JV/lx/yI2mQnoSRw6kTTll/5UV9KoaaSssgQL8+S7MWc5sVPv9TfQHVtJ+IHcwWzqkI2zb+p+JdYEId13KhPYpCS6DPxiqx1UzF7WU+EFsGuWzli461GZEiRpH7aBkOKyhlrxE2sywHqFbUSWWdta+sa99ZkNq1Tt2cj886bER+qP1BvZ0pNqm4bG0ebH1JO7a5ofBEbZ/zqpKLXtR1RxE8sVBXJsoYIjhjoVh8RuiYfreZZa+7MG1IOEw08gl+s2+dtY+NH1k2jUKwbvt7oFzPOYjq2UX17v1sOKg2Yl0Yo5GJcXDsOoKY619fpiEHJi91yTLcY65n49RKocU0gMLIRIJEjZ8579GKCjJJBOQ4LBAKBQCAQCAQ+7QgE8fu0r/CnfH5eNqFC6JpssVBh/UyFbqkXs1Xnu+XnXnr5TlwTCAQCgUAgEAiMrggE8RtdVy7GnRGw7eVcn/OA5Hkv7tjesfUTFggEAoFAIBAIBAJDIxDELzwiEAgEAoFAIBAIBAKBMQSBIH5jyELHNAOBQCAQCAQCgUAgEAjiFz4QCAQCgUAgEAgEAoHAGIJAEL8xZKFjmoFAIBAIBAKBQCAQCATxCx8IBAKBQCAQCAQCgUBgDEEgiN8YstAxzUAgEAgEAoFAIBAIBIL4hQ8EAoFAIBAIBAKBQCAwhiAwhPiNIfONaQYCgUAgEAgEAoFAIDBGIzDW//73v0/GaARi8oFAIBAIBAKBQCAQCIwhCATxG0MWOqYZCAQCgUAgEAgEAoFAEL/wgUAgEAgEAoFAIBAIBMYQBIL4jSELHdMMBAKBQCAQCAQCgUAgiF/4QCAQCAQCgUAgEAgEAmMIAkH8xpCFjmkGAoFAIBAIBAKBQCAQxO//be8egCZJtjYA59q2bdu2HWvbtm3btm3btm1vxHr33ifvnxM1tdVV/c032Pk7T8TG7kx3VWW+efAeVG/WgYxARiAjkBHICGQEMgIdgkAmfh1y0HmbGYGMQEYgI5ARyAhkBDLxyzrwr0HgpptuCttuu214++23w/fffx/GHHPM8OSTT4Ypp5zyX7PGvJCMQEYgI5ARyAj0zwh0mfjtv//+4YgjjgijjTZaeOedd/rZ3t99991w4IEHhnvuuScMN9xwYamllgp77LFHGHrooeOarrnmmnD66aeH559/Pow33nhhv/32C0ssscQ/1vvxxx+HmWaaKWy11VZhr732ip9vscUW4fzzz+/pu+OPP354+eWXe/zda6+9FtZee+0wyiijhFtuuaUlDrvssks4+eSTI5EZeOCB+xleffrBs802W3jppZfiYwYffPAw7rjjhqmnnjrQlwknnLCtx/dt4nfKKaeEnXfeueXarH2aaaYJ66yzTnj00Ud72sdDDz0UlllmmfDAAw/E72TpGQE299VXX1XCMsggg8TPFl544agjJ510Uk/fgyubvuiii7oN619//RUOPvjg6LNuuOGGsMACC/S4J5vceOONw8033/wP+/z777+jP3HNd999F+acc85w6qmnhpFHHjle7/N99903XH311eHXX38Niy22WHzO8MMPH33NkUce+Y+1TzfddOGRRx7p6e+r/E/5wp9++ikccsghgX38+OOPcQ98VZVdVfmbJ554Ihx66KHh8ccfj76Q3+Ljkpx11lnR30m4ZpxxxrDTTjuF+eefP378+eefhwMOOCDcf//94Ycffohn5ryGHHLIRhy6fXj/d4M6X8v3brLJJmGzzTbr4b9d1urcf/nllzDSSCNVLu3iiy8Oyy+/fHAmbP/OO+8MQw01VFh88cXjvZ0taTe2+O7vv/8ejj/++HDdddeFN998M8wwwwyB3ymeXZ0e0j1743/41WWXXTYcdthhYaCBBgrvv/9+ZVJMT/msps/tF3ZleeGFF8JEE03U7eOr21fdmdbpa9Oay7Yy77zzhn322aen/dStq7jpJvx899JLLw3HHHNM+OCDD8IUU0wRjj766MgnytLKzq+88sroKz755JMwzzzzhN122y3wE2Wpsuv77rsvPu/pp5+O+rTuuutGf9aOdIn4vf7669EB/vHHH9F4+hXx+/nnn6ODWmihhWLgdkCcNMCQrKeeeirMN9980VEvvfTS0WH63sMPPxwmnnjinnBZddVVA0XbcMMNeziOtdZaKwbzXXfdtRJDRnzQQQeFSSaZJAaMVsTPgayyyirReXYC8VtzzTXDNttsEwPhq6++Gs4999zAUK+66qoegaROKfs28WOMgh354osvouFIFpBWguz7b7rz7LPPhjvuuCMMOOCAgf7NMccc0bnusMMO7dhZx30HweEnyAknnBB1IpHsAQYYIDq59957L/oTpGORRRaJ3z3vvPOiban0jjDCCN3CTRBYffXV4zlecMEFMfgm4ifwOL+ZZ545Pr9sn8cee2xcy4UXXhjGGGOMSIa++eabcOONN8Y1HXfccVG/3dfnfEVKMKsWzb/4XBAqSpX/KV+/3nrrhc8++yySEcQTPvTxueee6+mrVf7mrbfeirq64447BvdxLmxU0rz++uvHvZ944olxH3T97rvvjt9DNCaffPJgff7fnkjtMMMME7beeuu4D362V3Do6oHW+VpYIrP//b9P9SBn7l937lXPf+ONN8Kiiy4a44a4Nssss0RChex9/fXXYffdd49xA0HuSmzxLKTvjDPOiDYgPgnyd911V9RvvqRJD1deeeVI8ugb/eOjxBT6hqDNNddckZCzqbI0fY6A3nrrrT10uqtnU/f9un3VnWmTvjatGfH5888/Y/KlCAQ3z2MvcGzCu7inJvzonoITP4Bg0g/n/eKLL8bEtcnO6QB+4jrXn3POOeG2226LZ0I3klTZ9SuvvBIWXHDBSDzpK+JpLXwEv9YkXSJ+KmYyXQ+ROfUr4idgqwZwxg6TCNhnnnlmNEzZLcclW09CIbQOAZPk2muvjQ5t+umnj8EhVfxUHBzIpptuWokfls5ReJ6KYxXxo3zIp8PgqDuJ+BVB4zQROucy2GCDRUIoY1Uxk01zbHCn6HXEr+663377Ley5557hwQcfjCR77rnnjpkPY2pXUnYnCZhqqql6uoyuu9caa6wRtttuu/isZ555JlaKigba7rM67XuqS8gDIlWWSy65JNrHY489FgM2J4aESOq6K/yEKj1bVa1h74n40RVdC5VHpLNsnxI/2bdkhnz66acx+HPCk002WfQZhx9+eCQcTaJapqNAt4YYYohG/1O+H7Kw0kor9agSqayrsKsg8Wmklb8RnC6//PJYlUjiPPhxiTEi51oBNcmkk04a9t5770j6Rh111GiXbIoIzLPPPnv8t+DWFRyacKr6vM7XIq2qlyuuuGIk8Ml/15171TPENfhutNFG4csvv4xETwzRzSGSV2eNCLQbW9JzxBJJjooNUYlEAJ0HvavTQ/GVHvJ9KRmFh/Uhq3woIqj7VSW6EXWf88PuXe5u9co5la+p21fdmTbpa9OaFYQkOclu4aTKymYmmGCCWrzLe2jCTyWW/y/azqyzzhp5g0QvSSuewSfwS/xfK2ll1wgfLHQ0k9BfXcXTTjut8QjbJn6Ug8OgbByCbL5fEb/yrjhtWRCHpC2BzAkkKTv3fX+P9TsE4hpB5uyzz45ZPcNKjgNhk+1ybjIEh8lQKU5RjjrqqJbET6aBuXOujFdWlkhq46n0h18QiFLFr7h8REwZmiNglAKlILLlllvG8/Bvc32MqI741V0nY5IIwHqsscaK90HOnF+7mNcRP/tJBELLkBOnX+OMM05/eFJ9f8l1xM9qVJgQIrqixVTVJu3uqsvEL91PBaxM/LTX6FG55SVgI0SqLMgRG1f5sm7kQdulnOlr9bENOrPaaqv12Ead/6nbq/vRbQRUKzIlHl3xN2wJAVY1krzwe7fffnskeRIa7U5tJD5RBYw9IS9EkqUSq2olWW4Xh+6eX52vtd4i8Ss+q9W5p+/wG7BDylslcaqjPhdP2oktxedL/CWNxe4R/LXMFS7q9BDuriuOGCU/JfZKpnUc3E+Rg+5tsMEGsaJLnG3d57pkqlNsT1yX2CiMFMchuntuVfaV7ll3psXnFvW1ac0+Vx0XCxQaVLOdsf0ZManDu7zXJvycK7JVrLDxdVryKdGqs3P8QzHh+uuvjzxDfORDtIyTtLJre+RXVDMRWwkLnbJ//KxJ2iJ+yt361hZp1oSx/xuIn9YzsIjMjxMW6JOyqcQhcf68+eabRwUXsMn2228fqxAqheYcisQPkJya6o7sETH86KOPYlshzba4RyvFTS0smT5nMu2003ZsxQ9OMmcGKPDBcdhhh43/EO0/LQwEvI741V3HGWvD+oex94o0Eb903ua6GCeimqU9BJqIn6QIqWKfCE2xKtbeE5q/1RXil/yKzkZxHkxATAmmNotqDiKIjMnyBc5yVZPv0ObjO4rEos7/tNoNv8sfCRgqpana1xV/o3olCYZzmodmg6lqITjyo6listxyy8WA6XlIH2KgJaXbwUe2i0PzCdV/o08QP1VPFUuVXSMBVaIiZo9IgFjTTmwp3kcSQyeQ9NFHHz1WD+FtnMieklQRJDjzi0aUkpjxdB8dLVUsibP24thjjx2Ta/FMm1NMc2Z1n6s4uUYyK57zv67xd2JW75DuEr+yvjatGT4SgRTnVfXNZDrnotStK32vCT/26HzZSBJJmViS5pPr7NyICJ+himxszLXWrQXMBzbZtaofPHSkiJgkNrUjbRE/rLa4oH8L8UPcGAA2f8UVV0TmmwDXLmIE5mBkg4kAylRlbxy47JZjLxO/MnACk4NhwMUXRFo5IwHB7JKSvBmyTid+qjicEXKusoAEwl42RFZYYYV4bnXEr+46BpLaNIzQWQuOiVy2YwhNxE+LZskll4xVIJVlziRLewg0ET9BUSBkz86Z7fRu6QrxS+0hepXafdaD+MmmjQKoQqhY84VEhUx1R+u4SFy1mY0zFIfou+p/EhZ8naAgy/cchMDcXTv+BskRFJA6vpJ9ELOMApy2EfKtS4GYXHbZZXEu98MPP4zk1hkhByqXqimIon22i0N3z7NPED+xgG6al6p68c68lW6EqptKWpK62FLep6CMLKvISSTEHX8n4CPgSaqIiNkx84HOPUkifuJx1Utl6YXHe++9txLyps9Vv3W4JNO9Q3qV+LXS16o1Fdes7S9RUfli82K2f9L8Zh3e7ey3iJ+RD3YjfiVB3tgMHamzc/GE7XpRyqwtMeoiViK7qnd1dk0njCcgnmzQ/sy8WotEpkkaiZ9AZzgY4UGgiAzWwlXEBHNtkX4tgACWeQcti7JwXhw5Y9JqZNApy2sifu6l4qlqiGAkqXJGnKoyr2qf6lOnEz8VCm1zAR3JVp5GAimtVilyzFDqiJ8qbt116TxUasxcGkvgOATGdt+kbiJ+zpoxpzkxeygGg36t///m59cRv2+//TaSEGTDHB1CzZbNf/ZO6Qrxk+jJxiUnnHsSxEiw1oqRZCKIyffRcyQwzRK5xn58V8BPSQjy1Cv+p4gF4mB8QtBwvyZ/4zvaf8gCkscekyDZSHfxLV96rW2IFJalSDz4t3Zw6B3n2CeIn/lG51JFcti6FjiSi9DXSYotqrvtiPlVyYB4kqSKIOlYibH0LEnyU+VqdPocYbduYy5V0vQ5PUFAVA1N6eAAAAamSURBVBt7h/QK8avT16o1pTWrXHrxiP8oVixTVQ3prsO7nf0W8ZMYafMW4wA7QujoVJOd8y2SguIICJ7hzNlWnV1LwLwJXPzlAyNPEgWEs0kaiZ+sqFjKLN9QZiFD6JuCRDBa2W+aqUlvWzGIVLZOA5b+bI3+7LBarZeCIAvmIpRNUxtZIODUEQo/25CkyhmZVzK8WiUOJbVQ+iZefeNZrWb84GEIPVVlESbtkyTaKFpWdcTPHErddUYRvNU24ogjxtt669bbj4Zzq16tr8KjjvipGnPW2j2qfc5XiZ3O5Tm/Zu2qI37GR5AJ81NaiWbJOMx2WxbNT//fN7pC/HxfksvHGI4nZmo4agGVnnnrU4stvdyRKn7GFtK4AX8hezeCkMS8Vp3/KQ5ru8b8IBuRbKcXXvgzbVbET/Wvyd8ILhIi+pvau2k9qpgwL1afJLfm+FQTvOXLx6akn52qLEiytK7bwaHdM6r7Xp8gfki57oOCQVHs2bmLbTo9RXEeOhNVsUVbtSx8l4KD6g3x3yrGCFHxZzuqCJJniUnu4byJ9p65L6MDfkpIclIkrl4UsG57aPpci1GLWPEmia4Gn6my1TukV4hfnb7WrVmlS9FHcq7SnkTs9nJOsTLXTqu3CT8zmrpWxh6SaClLBCRXTXbOzrTt08sdCLfzlpxJPOrsWpWaDuBnSdIIRrFC3OoMG4lf1YX9utUrk0Y0GJM3eAQOxEAmrFUh+2ZUqnqUmqPSqpCNV/2GU7ni541e91LG1epRlUJezD4Y3EzSznBqJ1b8zDwhRQKfgI6o+702Siq7SYRJRQHRTi2+Vq1emU3ddQK0ypHWvkqRQKuiKEib8UAitAPq5lZaET96oCpCJ4rBUZUE4ZSVV/2UQu9wmv9f7tGK+KWqigyVAySCnKFpA89deSu7CauuEj+EQKLGCdMhWTiikzJsAUj7zne0lrxFjkj4cxLzPd7KQ9rqpOx/BCWdljRHivipXNM/iQbCp7qk1VxsRXtG2d9IWnRr2FnV7/7xYbogqgue47l+K879/VklFonwHaTFWdorf0vawaHpbNr5vHcTP0ReW61YtbUOsYS9a9kVKzFpjU2xBUZ0R/BPOqciBD8vB5oFRb6LAdu9WxERXSndNTrkJ6fEM/riHCQbYqA4Za3+zBci7AoMTZ+7js/Utk8vOsKZrqQRhnbOpu47XSV+TfratGbzfWxOzLcnZMh/l22l1bpU9FSBEeAm/MzJIpjO1niRt2mRQKRs0EEH/QcsZTvXFXRO5jhVztNLW9ZW5BlVdu2MPNvZ2bOfy9LmVpiie03SXxK/FCAoAZDMmshalbhTBcYBcrxIiFkIxpCy1jIo5QNBImRRgrrqkUP1rBScWv04bdmJVB1Y04H0r58Xf8A57UH2I6D4jDBIysnpMQwZGoKm6uPczDpU/Z87VFrqrkMwvXTBGBAHwdBLSO5LVBQ5tPTnKoxbET9ZncxK8Csac2pRajOkt+j617Pr0+uuIn5GMrwdi8Q426I4K84Q7l2Z0yzvo9UPdKvWqMylN/yL13muIGpUQMCQ9cvErZVjTx0GwdgckXuowAkUfESxRS1oI1tN81Jl/yMhUimUIBFv7NFnOmjdqs4SXiM4ZSkTPz6xqmWbfkxalVVipBooueUr2WHqTNg7PFSRvACHaCB76W35dnDojn618rUSg6pOlEqL8636YXZ/n0g4IqCyjABqzSUx18cntfIROgl1sUUXSlep+FM7ZgTpuSoqUmnOMhF2CWSdHqooSQD4NoTR2iQAKdlU0OBj7Ud1UtWxSFjrPk8/6YPkI6w6XCp9qdPVnXOr2xc8qn7cXfzUWq/T16Y1O097QKq8na/qRheSrTThrR0sXqjmkyZ8VeW0mI0rqeTSr/LPgSUcq0bKYK+Ca93Wau+pulvEv6qAxDdJNJFldoIIIo/tvBzXS8SvOwqRr80I9G0EZLVmtlQysmQEMgIZgYxARqCTEcjEr5NPv0P2rqKkWlP10k+HQJC3mRHICGQEMgIZgYhAJn5ZETICGYGMQEYgI5ARyAh0CAKZ+HXIQedtZgQyAhmBjEBGICOQEcjEL+tARiAjkBHICGQEMgIZgQ5BIBO/DjnovM2MQEYgI5ARyAhkBDICmfhlHcgIZAQyAhmBjEBGICPQIQhk4tchB523mRHICGQEMgIZgYxARiATv6wDGYGMQEYgI5ARyAhkBDoEgUz8OuSg8zYzAhmBjEBGICOQEcgIZOKXdSAjkBHICGQEMgIZgYxAhyDwH0i7cAy7kHpiAAAAAElFTkSuQmCC;imageBorder=default;" vertex="1" parent="1">
          <mxGeometry x="288" y="143" width="628" height="180.13" as="geometry" />
        </mxCell>
        <mxCell id="FJbFZdLH_GVMFSv8Vmyc-3" value="" style="shape=image;verticalLabelPosition=bottom;labelBackgroundColor=default;verticalAlign=top;aspect=fixed;imageAspect=0;image=data:image/png,iVBORw0KGgoAAAANSUhEUgAAAmYAAAC3CAYAAAC40ZIpAAAgAElEQVR4XuzdBbRtVfU/8EVJSiop0mDRKSDdIGAhSklISSqNgHR3h6SACYgoHdIlXQIKBqCUKPhT+u9njbHef7/99jn73HrvwptzDMZ99569117ru2Z855xrH8b597///X4KCQQCgUAgEAgEAoFAIBAY4wiMg5hNMskkY3wiMYFAIBAIBAKBQCAQCATGZgT+7//+LwUxG5s1INYeCAQCgUAgEAgEAsMGgSBmw2YrYiKBQCAQCAQCgUAgMLYjEMRsbNeAWH8gEAgEAoFAIBAIDBsEgpgNm62IiQQCgUAgEAgEAoHA2I5AELOxXQNi/YFAIBAIBAKBQCAwbBAIYjZstiImEggEAoFAIBAIBAJjOwJBzMZ2DYj1BwKBQCAQCAQCgcCwQSCI2bDZiphIIBAIBAKBQCAQCIztCIw1xGyFFVZIN954Y3r88cfTpz71qbF930fL+q+//vq00korpQ033DBdcMEFo+WZ8ZBAIBAIBAKBQOCDjMAYJWavvfZammqqqUbBb84550xLLrlk2nPPPQeNRJ1zzjnpr3/9a9pmm23Sxz72sUHZs8UXXzzdfffd6d57700LL7xwWmyxxdI999wzYuxPfOITaY455khbb711Wn/99QflmYMxSH2expx++unzGnbYYYe0yiqrDMZj0h//+Md04YUXps985jPpK1/5yqCM+ctf/jKtu+66eawbbrghLb/88iPGnXvuudPrr7+eXnjhhUF51uga5JVXXknHHHNMuu6669IjjzyS6M3nPve5tNFGG41Y68svv5ymm266dM0116QVV1yxp6ltv/326dFHH804tUnVFn/wgx+k/fbbb8QtW2yxRfrhD3+YHn744TyvsU3sz7777puuuuqq9K9//SstvfTSaZ999kkLLbRQhuK5555Le+21V96/8cYbL33pS1/K++nf5O23307f//7301FHHZWmnnrq9NJLL42A8P33309HHnlkuvjii9Mf/vCHPCYb/PKXv9wR5rbnXX755fn5999/f5prrrnSeuutl3beeec0wQQTNI7Ztj527P5bbrklTTHFFHlu1jLOOOMMC1VoW+/ZZ5+dzj333PTAAw9kX3TiiSemRRdddMTcf/e732Vbk7Qff/zxGf8idJ49WPvkk0+eE839998/22In6fa8v/3tb9m2rr322iT4Lrvssvl38+okv/jFL/K8zN9+brzxxoltjzvuuPmWv//972nzzTdPv/71r9NXv/rV9LOf/WxY7ItJtOlWmy6PbtspwN10000jYks3v9e2n23r67RRw4KYjT/++Gm55ZbLc3znnXdyMOG8kBqgTDzxxMNG0aoT6UTMllhiieR/ccXQC0ng2DjL4SCFmJnnZJNNlqfE+fqP80Yu559//uEw1VHmUCVmghinWuSDSsyKHqnq2ps///nP2bm+++672RnPO++8mRghSIJ/r8RsttlmS/7rKzGjE0jCtNNOm6Ed24mZpOonP/lJmmGGGXJSxychKE8//XT+fbXVVktXX311/in5Q64PPPDATMaef/75TNQee+yx9MYbb+Trq8Ts5JNPTtttt1366Ec/mj796U/nJO+9997rus/dnkdfJFiCNvsozzUXc2qSbuvjmxdYYIH0l7/8JX3jG99IDz744EjrG9NOom29CNUyyyyTpplmmrTmmmumiy66KO8d/fbzlFNOSTvttFOadNJJk+SkSswER7bHL/KHgjAShEwJ3E3S7Xn22Dj0Y5ZZZkkTTjhhevLJJ9PHP/7xrEuIX10Q9m9+85vpIx/5SL5XbDSvQw89NO2xxx7p1ltvTV//+tfz38x/uBGzD5LtFOz/+9//Zp2nI/hIJ2LGTtv2s5utdrOdYUHMGAilKgIMQfaZZ57JBsAQGMT3vve93I70uQUfd9xxIypuMqLDDz88G4/qzKyzzpqzWgGOstZbmYLesccem1tsDI+huE7mywhkH2uttVZWflUCpOof//hH2m233XIFjHQiZojNIosskq/hsGWsMu2bb745feELXxjTvmxEZa86T5PaYIMNsuMqQcXfZH+nnnpqeuKJJ3L1Eh6l+iXAbLnllnmPZppppnT66adnJzjffPPlbL2plYmswviuu+7KxEPwOOigg3IwISqld9xxR3r22Wdzpvqb3/wmff7zn08nnXRSriQVYjbPPPOk3//+93m+AgapE7Ozzjor/fjHP87BDsn/9re/PWLvqvtr748++uikUnvCCSdkMi2L5SzpkDWSNh3sz8aqhHHMgr410z1CNzmEzTbbLP385z/PAaNIaQ3DnQ3ceeedObAgAAcccEB20sasCtxnn332XPm59NJLs50ggSofnEupmNlje62yLGiROjFDHAV61WLzX3XVVdPBBx+cbQ75EICWWmqprEfw+9//izd/Ti922WWXTBTZGqwF/jY96w+ug3UPu+WfZp555uyoJS50XABW9UB86Y0qmr+9+uqr2ZfoBPzpT3/K+mudZ5xxRq52GKtKzIq+F+e/9957p0MOOSTjZi/rYg7dnsc+jzjiiITwbbvttiMIo8SX76xL2/oQzU033TRXzPjAF198MbE9iSc9KFXBwcK7r+PsvvvuXddr7mKDaic9LfieeeaZWa/9jT9T2eGX7JVqFCk+ArlAkP75z3/mzoLA7T/Eqi7dnqcTobIFP/6MrL766nlut99+e/ZzdWE37JyPFG8QMTEEybziiityV+nNN9/M4xj/a1/7WvrpT3/aVxiH5Po23RputlMqwHykqiqbhnEnYkb/u+2nxLabrXarOA9LYiZgY6wyCxUCpIpSyhYEBMJpMarLLrss/720WCjoW2+9lckWYicIaX3ViZnAawzVOIQEGTBOcUCeu/LKK2cyov1AiRgnlvzUU09lwHshZuaq9I1kMHyGNqalVMzqxIwjR8IopjnDVrDnCJCa0047LTsQAVkroBA52Sjy6e8qWEipsevETEBSshfM3c9BcSKCs8wRudOa5IgQNuMI4ggSh4ckFmJmfoig/UM6BMwqMTMX+2OM7373u7ldhCxqe3zxi1/MelX2F2ExN3Omd/YYifjRj36UiZLgpNLRTQf7u6dIC0LDiZ133nk5+60b7JVXXpkDNWzhwCmvvfbamcyxFcHEuhA4xAc27AS5Q0g32WSTTLQEfH/zO3JBJyU58GUzyMQ666yTtNc4pIceeih99rOfHYWYefavfvWrbD/mam6wQRC1HmBmbp/85CczSbHHU045Zd579iRZ0nKmX57Xpmf9xXao7uOwb7vttpxc8DMSg6ptI6XshE4J3ogqgUudmNXnWIgDfbWXdZFodHte/ZhGqeTZM7bTi1TXJ5ncdddds/2U+RS/J5Gwv8NJ6utV8RJHBDq+AlFmPzvuuGNOaiQSKsQqUPaw3sqsrk3ygqDzVwh4U2Bte151PCSXL2b7SHzRk254lnmW5LnMvxC24VYxq69luNuOCrMigSKPeCAG9HqEo76fiH1fbLWK1bAgZtVWpsnJ5hmT0r5gijQJ2NVD5Prsql1aBbJRQUbmIzgRGeJvf/vb/Lu/V4mZzJUR/Oc//8lZLmXxb8RAoJQZcbzOEwgkNosROluB6HmuufRKzErgGS5G09TKlAEybpkwUiMgIy4IjAoKEoU8+YnACfAcmkBsjxAaFQRZ24ILLpjuu+++UYhZcSprrLFGDuzaLYcddljO+goZLPt0/vnn53MfhejZBwQMARHMkQxB7jvf+c6IoFEnZpy0ioTWn/EQEhm2ZxbSiIBpzzgLoCJHzN0a3IcYlrND3XQQEemvqPrJvOzBjDPOmKtN/kN2y7jf+ta3MnErrUxOADGls6pqHDuCZ710F9mi5+ZsDYgXvARubSmioohwSzgkNMiTn5wSYmyfBPN6xUxFRpYukKmYFN1AtiaaaKJMku2tyqOskS6xIYFQQGSryGPZ8256pvIzXARhN3/VDhV7hLm0IukjPSalClJ36G3ETBCgBzBjU01nYfvyPG0+SQgfqVqGjHeTpvWp5liPBIeelvNYCD09o2/DRZrWq8Kl00FfSSEwpQpW5t5GzIwhSRVTqntdX3uvz2Nr4gzbcExBLOkmqpU6RmxL8QAxK9X16rqGS4ypr+WDYjt4A12hJ3xur8SsaT/7Yqt1vIYFMWtSSMFfdcmCVUo4rCbhHBzsF2SqZWgVAhWeJmJGoVUSHODktMohypLpqhQIfIiZ4Oh8CSkBpWRVfSVmfclah9LZNR3+9zxBHMlVDSQqSaqOdRGwtbkQAdUyFTBSyE0nYoZA2KtqVloyWJUi1YBCzJAlpAnxE+zLoelSMeMcZfCu8XxVTPsh+0QIZJKqRgigqkYRRE5gLcSsPNfndA25UIUipYJIhzjRbjo40ACFSKkkqbIguBITJFm1SYZfJ2bmZw+0ZOgrx0dk7H6vE7Pye5NeCUra8ypmhXBYK7sT0L3Awb4K0UD0BAYVIwlNEbgjE4IH25JgEYnRJZdcksfi+Mq5mVK16KZnss7hIPZfMigxoHPWQifZy1ZbbTVSsC7EzB4KvEU6ETN7x7fAFHm2/yrKWvV0sIg2JXvs5XkSSPamymOOCDihSxIAYp6lCtZpfebGnukUYYv8g7UVGx0O+9NpvSpcfHmdmKlkIJpFuhEzaxUHJIYScgmSmFGOZBhDQiVh7/V5CLNxVR11JCSRdMteFeEPy5EEfkBig3yqaEs0tS2LDOeK2ZiwnSZdd4avm+2ocosPkiJ2qzBQJWZN+13wb9pP+tCLrTbZz7AgZtUzZsXRIQ8cPynETMWq9P/LYgQiDkvgKOcqfOZckKDVjZipyMnki/hddahKzKpVurrx9krMtHy0TksgGtOOrN7K1MJV8UIEBPDiDErAFFSrb8+qNgrAiJlrOT6i56610UbMKLs2KPFvBlAnZtWvNakGtCoxU6FAmmW/AozsHklDEGCNqMsynRXUHlWlqROz6v6qTjlrorpEHApGIqvErJMOIqiDKYK0ipK5I5d1YmZOHLNqE4ehtYIAtREzCQlbqYpgYv5VYmYvVSmdP1M9QwLLoffS3meXSBgSh/xWiZnqY6nMCYKCTKlOe8tMZl8nZk16Vs4eDia2fR2LPiCUKveSNQ5XZYSUCm71cH05N6bKguwX6UTM6K4zjiqczkMVkl+qxeV+BFmVWsW42/PKnAQilW0ErYg9Lud5kXFHF7qtz33OVhbCoCLO7hBTScRgveHe1z2pXt9tvcVHlzNh5dyY4w0wL9KJmCFOqoX8An11JrOciywdFGNo0/OjvT6vPFfghq0igmBsXkUcoVARr4rKOL9M/yTCRYYrMRtTtgOXuq5LRDrZDl0W/8WAQniRfSQN50DMVS39rbrfdb2t7qex2my1k94PO2KmWlHePuGktJ/Kq6taS1o5pLy5yYkxKhlncTQ+l3E69N1EzGR8nJZyvKxe5otcyPI5z2orc6DEDNEzR066/vUOA3FGA7m36YwZwiL4CrIlcJcWk+qSSpY2r7677BApc2ZDRl0cSGnZtrUyq2+oejXdQct6K7NXYgYH+MokzcscEYQSHEtWX4iOCgQC3/RiQjdihrioKHbSwWpboS97o3rkXBEChkgWgQlsSmuiEDOZteBYDj27zlt9xUactUSgSoVM+0r7ReWRzgsqdN7LAhy7SqOgYv5VYmYe5Rk+l8AYV2Aw11JJVolgPxyJ6jOijqz1hZh10zPt6TEt8KUzfAHbqB76RloQWzYlOMKBHjmTSier0kTMSmLBZhDweiCur73teY4beNuaH1WN1gVok27rQ0iMQ/9VyvlGe6yiIGiNaWlbb0mutJ1Vgx2idyayxIUy/yZihsypZokj1W5MtzV3ex7cVC7ZBv9Div/rND6d8xU5qnuSArZL39hqSYiNM1yJ2QfFdpyP7fbtD453ePGvKs5fdttPPrJX31DXqWFHzEyQEXECAq3AoXyOaDn7AxzBR4CVics2yuF/AUHlRdARqLQCmoiZjL8c/hfkEEHZujee6meQ+kPMql9DwXlxbggmojkcpImYMXIZu1ZgOTMGE1UYeCO+gghirHLgXFF5FRqeCAQHpmrViZjJSgRahFj2KdgLRqoAiJgssOmLgLtVzOCJ8JavkDAGYmbfVBjsp6qLwIqgIGzOdCAl9S+/7UbMnC/ppoP93VdkRkZuznAUPOBiTXCCDyJE7x3ARmJUGBmuREQWiOj6TBKgGiKQqpyp1nA2qoYciOqJdogsTltOkHJGjINBsOrETBXOftFfgpghdjJLwUVLR8UTWdeWQezNTUW1L8SsTc/6i+1g3IfYqyYTQbpKylSi+CAZNj/jqALi6p4SaJEze0jYEF+mwk8ct0B62YX9qn43Fp1AFpqk2/PKZ/CvfpF2edO8Pl7b+rxgJQlzxlZyoFJGD8pbjYOB8UDGaFuvmMH+YSum0Fdn+FR4YWKfkE3EBgFia/wjn6fiy0/pJNSPKqikN333WLfnOV7BdvhanQXkXZyiEzAtR0iqeDiyIXFzDZ3gL8xdR8gZUx0EHR5ztSf0CCZsEEkck9KmW8PNdupY1VuZ9c/5x7b97Gar3fZmWBIzE0aYnLVQNqecAqkyL0Wm0N5O4xjLlybKZDkyRiQLQdYYT3kLr+nrMpQmGapzG5yP9ppnGLOpotJrK7MKOKLAQLzZVM6yjUlj8exOb2WW9QlAgjXRrhJwlfQ5LSSgfMcZB2MPZBscuJaMtld5Q68JQ+QBWXIPPMzFWcLyVm1/iJl5mps2RSFmHGTJ8BFFJI0T1jLwfGvsCzFDUNt0sL/7quKINGn10VsEkYNVvbQuIslArlwDcwQLVtaJJMvoBBgEjrOAvSohG1Atcx+SpZ2rlehvHCNbgVn5uoxyxqysxbiFSJQzZuWYgGzQnOBsTgiGF0f8vS/ErE3P+ovrYNxXdLhprJJFw07iBWNkWMJCp5EZ5BWhaRLJiL1qktLCbvqs2/OK/dTv4xdVk+vSy/oQfS+AqNZJ3vheNjQcpJf1sn0xRHseyda+Lf6GTUj+62I/kaemryxxreRUAt4k3Z6nks0u6YokWLInNlhHkzhPxgc7m4uAmRNfq8OgAl5ezKnfK0ZWz9aOib3qRbeGk+3UMWojZq5v289u6+u2J2OUmA2WspR2mgqD/jtR4dBaqx/AHaxnxjgpH7Bn/DJz2aeKGUdTP1gbWAUCgUAgEAgEAoFAbwh8KIhZKR/L5lQSvFknS1V1KJWZ3uCIq/qCQHnbTvas0uK8k7ZU+e64vowV1wYCgUAgEAgEAoFAykdVxvlfift9pe4Psji/pRevB0+0CLwJ5tX2kKFBANbOL8GZlFfIO/2vX4ZmFjFqIBAIBAKBQCDw4UHgQ0PMPjxbEisJBAKBQCAQCAQCgbEVgSBmY+vOx7oDgUAgEAgEAoFAYNghEMRs2G1JTCgQCAQCgUAgEAgExlYEgpiNrTsf6w4EAoFAIBAIBAKBYYdAELNhtyUxoUAgEAgEAoFAIBAYWxEIYja27nysOxAIBAKBQCAQCASGHQJBzIbdlsSEAoFAIBAIBAKBQGBsRSATs/8t/v2xFYBYdyAQCAQCgUAgEAgEAsMJgfwFs8NpQjGXQCAQCAQCgUAgEAgExlYEgpiNrTsf6w4EAoFAIBAIBAKBYYdAELNhtyUxoUAgEAgEAoFAIBAYWxEIYja27nysOxAIBAKBQCAQCASGHQJBzIbdlsSEAoFAIBAIBAKBQGBsRSCI2di687HuQCAQCAQCgUAgEBh2CAQxG3ZbEhMKBAKBQCAQCAQCgbEVgSBmY+vOx7oDgUAgEAgEAoFAYNghEMRs2G1JTCgQCAQCgUAgEAgExlYEgpiNrTs/COu+4oor0g477JD++Mc/DsJoKX32s59N+++/f/rqV786KOPFIIFAIBAIBAKBwAcNgZ6I2fPPP5/222+/dOONN6bxxhsvrb322umwww7L/x6T8pvf/CZtueWWaeutt07f//73R5rKxRdfnI455pj05z//OX36059ORx99dFp44YXzNf/973/z/H/5y1+mf/zjH2nppZdO++yzT5pnnnny56+99loe84477kgTTTTRKOt96KGH0k477ZQee+yxNNNMM2Vysskmm4x4/nvvvZcOPvjgdMQRR6TLL788Lb/88mMSplGe/eijj6bFFlssWcccc8wx0ucHHXRQuvnmm9M111zTOueXX345PfXUU+nzn/98vvass85KG2+8cfrIRz7Sem/TBW3EDBE888wz08MPP5xvn3/++dO66647Anv/j7Gf/vSn6Vvf+lZPz3/88ccT3V5xxRV7uj4uSum73/1uOv3009P111+fllhiiZEgmXHGGdNll12WdatNBmucTs9544030iGHHJLozOuvv55tkI+YffbZ8y3vv/9+9mm/+MUv0ptvvplWXXXVbLNTTjll/vzuu+9Ohx56aLrrrrvSLLPMkjbaaKO07bbbjnjcI488knbeeefk50ILLZQ233zz9OUvf3mU6Tz33HPZ72y33Xaj+KhycZu/ueSSSzLmDz74YJ7LD37wg7T66qvn2//0pz+lz3zmM6M899RTT822+Pbbb6fjjz8+7wtbXXDBBdMpp5wyAoc2Xyjp4hP4/o9+9KP5uXD074EIH3PkkUeme++9N80555zZhrfYYos+42tdG2ywQd7n4mf//ve/pwMOOCD99re/Tf/617/SSiutlE466aQ0ySST5PH7sqZVVlkl3XbbbaMs9Tvf+U727+THP/5x3p8nnngiLbDAAul73/tefmbRs7322ivHAfu85JJLJnvzsY99rCc9vOmmm3Ls+t3vfpf3DE7f/va3R8znnHPOSWeffXb6wx/+kPXMs5dbbrmBbE1qsx2D/+xnP8v7x39+4QtfSHvssUf2x3XZbbfd0sknn5z++c9/pvHHH79VXy+88MIc0+vSFKvo7jTTTNO4VuOIDc8880w68MAD0w033JCmmGKKtOaaayb7Mdlkk2U7soa6WMftt9/eurfV+5r0sPp5HYe2DeqJmK2zzjrpuuuuSyuvvHLeCIF93333Tbvvvnvb+EP2uedzmv/7X0ql1VZbbSSn5+82gNIus8wymTBwTgK6zUGkOASOd+aZZ84OHAmz+cimio2fxx13XHr11VezMXzta1/L6xX8P/e5z2UnwlFz4N/85jcT5+lZlPob3/hGmnXWWdP555+fHeKHlZhVN1dwm3766dNf/vKXrPT9kW7EDI4cEmNaY4018j5ceuml6fDDD08XXHBBNkLBoxhhL88XcBi3nyG9IYBQwV1CIvBVk7O+ErPBGKfTrJHzv/3tb7kCKwja4/vvvz898MAD+Ra2zT+w0RlmmCHbdiE9Tz/9dE42BDnjcNJ8Bt3adNNN03/+859MhuijAM2X8AV8JH9Sla9//evZRyBu9eSxXNfN3xh72WWXzcF8rbXWygRk1113zWQBoeGzllpqqUxAxhnH//p4ZOH3zjjjjHTCCSfkwCkQmec999yTxh133K6+EHlFOjfbbLNM8vg2BBNeiEh/BcFcYYUVMnniV5EPie5RRx2VfWmv+CLcSMFLL72UfvSjH43wszDnHxBtBHL77bfPe4sgvPPOOwNaEz+3yCKLZKJnX37yk59kgo48WdNFF12UfdSdd96ZCwLHHntsOvfcc7OPgtsuu+ySY8qvfvWrVj2U+BtTkWHRRRfNRQZxjU7bD/vK/ylA0FfPEdPsLd3or7TZjvHporgq5iGGV111VbryyiuzThVBJu0volyIWZu+ShqMU/Dp6xqefPLJhEyzm0knnTTvtcSbzUhikDJ2QBeahJ3SFfyibW/L/Z30sBsObetqJWayi3nnnTcz/WuvvTYrFYWTWcoQmpxB20MH4/PzzjsvZ7GyVIZSdXqqXRTEJheRxW+11VbZQQIdWSqEqWSdCKdql/Wqpnzyk5/Mt8sO9txzz2TTMXHOjYIVYZgc4w9/+MMkQzYO5YCR4PNBJWac28c//vFMOk877bSc8clQOCHKW1qZHEg1c+GMZD2ck6oER/yJT3wiBzmOncjkZREqFnAS4Dg71ze1Mt2HRHEGVYGvYGhuEogigiGiJwAzdPvFuRlfZlnNlqabbrqcRQvkHOctt9ySs2vVAaRd1fStt95Ke++9d/6Mo1FlFZg5prFJELMJJ5wwO2IBW9ArUiVmdIdNSnheeOGFnNQhR7AmvY7TX2zZ6Fe+8pURlSGVrcUXXzxXjQRIlQ1BTVJXF4kdpyzgFUG8EBUESfBFTBDTbkI3kQPPkqg1EbPiXzv5G3OEoYpLEXoHawFa5UniqDLQJF/84hczeWFrhH8TmKzNnnTzhSocugjsm70TZNa9pWrdn/1BdJFf5KKINfADiGSv+Aq2fIJqCN/Bz7LTaaedNvsmNko8S3XXT+RyIGtCzmGNjBDxgO/fZpttRqwFvua24YYb5liimqSqR9gC0oS0mEc3PUTIdHb4zyIKAvaFP1apkwxXK2SzzTZbvgc57a90sx16xxfbq24J7bvvvpuJKyLpukLM2vTV3NmC+N4f4bPZPZzEYoSdTy8JJLvVdUHc6sKerU3smHjiiVv3ttzfpIfls044tK2tlZghJQKqhwtmBAMVdBGaUpJte9BQfa5SUidmgqWNqRo+xyrAVp1tmRPDZkQM179lz8hVkULcOFGB/pVXXsnZShHGKSPl0KvyQSdmpVSsQsVQkBUEStDloKtnzBAfWRvSomLm53zzzZeJjT2i7KoOjN7vSLO9ULHgqGQyqmIcThMx47BhLzBqOzUlBMb8+c9/nveQaLd5JkfPgXm29vXvf//7TNztuYBZHAwHx6mqlCBpgpY1aFkghIzc81WLrB1RozNjuqU/VLbVNC5CxY5k8hIjAYazJlVihjSwIdjRI/5jqqmmyvtNeh1nMNYmCbBX5iq5pJtzzz131ieZs985dAmHinqTIHACP9+gumPPVYdvvfXWnMAhXaoIRQQiic+0AugAACAASURBVIBkTbWkXFMfmx518zf0jq+tVhBUmlT/EL9f//rXGUvzQ97MH2Gm90Rg5A+r3Q3XarUJWHWp+kLBiU2st9562e6RHgmXZ7DHwRI2RJ8ETfvQC778iXnZU+srxExFTJIIV4SUmDfdUylE0Pq7JoSMj1MxqldGCxZIGt0SN5EyvqLehuNjHJ1R6eymh3yQZIJf1IJWGbRvfGUT8ZJMIIF00nMHQ+q2w2/Sa5VNvlRxRlWK7SjYFCkJMX8JB7iwmTZ9tTakn+5Zh9jAl/RS3OCfPZduVCt3VZtUwaMDbKgq1glrCcz666/fCF11b4tuddLDNhza9qaVmDEWhg+cYsgCKwdXqhJtDxnKz5uIGWUXhKsVFI4ZwbJ5VdEKLUEGW5YJcabVcwVKlQK7zBUBY/gy2SIqMqp0xq/Kh4WYITvlTIvAKpghod2IGQNBjKoBBWbuU4GTySM9KgpEi3yuuebKBLCJmHGu9tTeqFyo4No3zrmcd6kTM22Hv/71ryPO0XFsiBhn/qlPfWokYiaDErBkWSpCRHXMXARu83Tuzn/l86HU6+E6NtJq/Qg3YsYBluy2SswQE7ZVSBsSwempWJFexxkoDnyBPRVMEHTzue+++7Lu0EEBklNWTRcEtIPqIvHiyOmNpIPjVvWRWBjH5wIiAiUIEVV0CQz/icx0ImZt/kaFR2XLeVoVCM9VnRG4PM+akCZESVWaznqmJNpz2Yw18dd8mLmWao7WYTdf6DNBUleCfRJBmE2Xs3gD2R9rV3G1FpWoUnVqwxf5Yv/8teRbZbwQM/Ph9yeYYIKMDb8hdnmWSom19HdNfLxxTzzxxI7LtgbVe9UuCSC8tCCrHQUkoxCENj00TukWeKg5IEFVUYRwHd3mHwerit9kO56r4sxWtE35bLGVLiKs9vLZZ5/N+6MCxT/w86Vi1qav1kqHJXT2WYxxj78Zp5OICaqP7NBRoqqUffA3Pkv8qifTkqdSXGkide6t7q3f2/SwGw5tdtNKzIrxNBEzG9F08LTtoYP5eRMxUyJWEv3Sl7404lGUR4ZbMnYf2DCKTslUamyWSpBqGBJWpBAzyscByr6qhwYRMxW5ejvhw0LMGAUHQ5TPGaTyejdiVg531/faywYySO1EmGktF9Eu4XS6vZWpFSOwyg7tJfLF4XJ0dWLmxQ6ECkHUhi5ibxl5tWKGfFZf4KjOu1RPOUDkjuMXJAX7ySeffDDVediPVVqQdADpVa3m1JCHKjHTjkDe2EwJ6qrrJXnpdZyBAmKv+SlVBy+rSLicM0PCVZ0EH+Kck+qSawQXwtnTR47cSyX2myB0WrLVtrp7fY4QSVjpIz0VkLsRszZ/g+jRc2TLvOFdCJoKUJOUc5bOXKpW8t2qaQiCefkbn1etGjT5QhUCz0OUrEEbDh4Id3/PAFXnazwJkSodYuGYgeDXhq85SJCuvvrqPFydmPHzCDcyKnhKCFRu+AfVkv6sCRZ8F18oqauLGIGM03u65ggIn6PSJUD7vQhipuJl3t300H5ry4k1roOVKr64hoAU8Uy6rBrliIH/iq4OxH6abMe5LYkwIuy8JZE8wAbpV9Gzf4iZ4z9eSqgSszZ9bfqcb3EUqSTxTdewBfFE212rtyoSJGtRgWPH9qReoHH0SNxpevGgaW+N36aHfcWhOudWYmazVSWUwikFwfJVPmSig5E5DUR5moiZUrVMSkm/iE2jUKXSVQ4matOWdblWZqqUXg3kpZXJsdmMF198cSSnTCEZff3tneFKzIqxNBFrVVFOmuMtrcz+EDNOqhzKbdrf8qZaMW7X9ELMqmMhafaVA0MA6sSMkTFUlQHZlPUo8TcRM60Ha69XPetzh41AokokcNvzuiMYiD4P93urhMpcVY0QM/h7a0xlTFDwgowgCFOJErtS2WkiZp3G6eXtzl7xsvfmJ6CYG+fMxkvLhy9D0pxFc05HQNcOLFWpajBG0LX1ZdhFXKs6Y3xnm3bccccRmXs3Ytbmb5reOkM6BHu4N4nkSWtVi7BJHEURhEqFqpMvRDCso2oTSABiw4eowA2WsFHJEby74SsOiT+S4bIndWJWn1M1sTbv/qwJcZSwI7t14ecQXuQL0S4vPyFzqksIennj371amUix1l83PUQmJTVVEiEZMA/kv0mQNiSpXg0dyD5VbUfF0VqQ/WrLjz8XN1XT+QTVMv/uhZi16SvbQv7Kub6mtai8SpK7kTf38f3IoyKKs4hEgmAvxPd6ot1pb93fTQ8RwL7iUF1XKzHTxrERjBErxT5tvCDKiMa0NBEzwUDpVCWliMDMoclArEk/mfLWqzM+k00qd2t7EUapNVfacJyegF+EUviKiHqJebgSM60ba1Qurp5VQHScoeC4VTsGQszghbzI5IrAVjWC8leziWIc5tTUyjQvzpQjcC6jKoyVAQiodWJGZ5XGy9dnyLI5riZiVt5+c2ainB9RGSjO1blC59qmnnrq/HhvjqkAOcxavoZlTNvC6Hh+nZghI4gIO9RGYStaalocCLOfRPJjbzsRs6Zx+kvM6BmniTiVr0JBtNgz4kT3VPpVv8vh/1Ix83KTgCLwIOAS0/pbxnROe9DeF3G+jE8RuDrNm35XD3K7t83f+FxlulSWrcP4fkd0vTwj8FcDUvl6C5VifgyJs2bi34iMliiC0M0XIj9aP4JQOS5Q2kIDScrLW/DVqht/IZiZVzd8VSolfU2i4s0HWLdzcOyfIDb0z9zFsP6syQsXSHw5Z12eLzlzBhdJ5IfqZ1/NQXwo1XjnxsRTpJkv6aaHyJuYU62MlpYsH9YU+xRR6Hn5Ko+++oQ22/FMxBkpL2dzkSa6reWouivJbRKE0vnUbvqqEs9/2KMi8OVjVYI7CWKlxVy+psR1KqqwV4AoZ0eLn6+2l/klxZX6V0R121tr6aaHeFI3HMrLIJ3W00rM3KjlIxNWrrcgxo7UVN9E6asCDNb1TcopA1SalL0o+2tTImnIFALl4KKgWs14q/PRo0YGfK46RklkvaozyApjopwcI0ci8FMC5K8qw5WYmaP9k5ExYMpsX7VsZPACDuPuCzErbxsJxoyAUithI1RwElCQYv+WXQqQAiNDVslAmmHYqZUpG/M5UuzgpbMegiljFXRUQjl2AcqeeJ7nMFjPEVy0t51vk6EJ2MZEvtxrrwRzjh8m2nJaINYhaDBwrVEtJeV8Rmw9HGx503CwdHo4j1MnZuYqO4YFpwtf9qFSgKgJFAKLTN/PEuR7Gae/xMyc7KVKpuCGaNM3FSaJgsqGAKC9x8HSJYGXrvidDjtTqRpavvesuifOENFta1CZF5C04ehdtTJS7qlXzFynne8YBenmbxAgBIod8UMIhhadREQ1jQ3Qf7otcfE7XdX+4vz5bZ0DvlAl0Fk6RLME+26+kL47wiB5ZbcCJh+oVYi09VdKglQSY1jA0nP4gb7iW6+YOUOHnFkzImrO5at2elmTeXnBqJwXtE66aI71g+GIIB9WKkR1TJAFOkVH+Ak+xxmmUgXrpof0TxzzDHHOsQ3E39zgRBcQCs9QnS5nnR3Kp//9lTbbsVa6xb5V/MqLNfSaD6hKvWLWpq/0mI+15vLyjP2AhYp23XY8C9lVLKpWwP1dTJIssQ9nWlVOEWtxraq/CJa3J+t8oG1v6/h2q9z2UjmsjtcTMWMonAtQBF0GZIFj6qsyyhuAdWBkLUgZwVYFWE4EYED3E7vvFEjLl9KptnGalIETE3Q4+LJeZ46UV/3k9AVwJIDYTI6hLjLcTkSwvwY00Ps4B0asLI6IqJZx6hw46Qsxcz0F5wyRJePI9jgP+wV7Z7PK1ytwMuXrMlTwECqGznE1vXFkLjJtGY92ir0wJkclG+XsVLX82745Z6HaJXD6STe0ZmRHiJqg7EyhfXafQ+mqJfZO61bwRuplhZwNvRF8jS0x8bn5CGxjkzQRKuun3wivVo8gxvZUnUj5TkF7ocqOnDkjozIlMFWlPk5/sdWCsD8CtH0VuDjn8mXIEi9vgCEuSLysXFBAupF/X/lSl+oXT6p8IUsqrAIG/9Dpiz3rxMzYfE15Zb/N38CVbbETZAHpKtUgc0TUVGuQThVKJKpKILT/EFNnY539kYDR3158IX9qL1Vo+EIVazbd6a3EXvdLJdKcylfpwN88y/m+vuBbD4jWZf100UsXAjM9Kwe+29YkPvARVQwlGqpV5SWoss5yrKe+7vIFtBI7eKlsmhf8FApKBaebHhrTfSVZ0KVC1BAhOCET9tJ5W4Ffi97RkLZqTNsetdmO+yU5ElakiL3T6dJhqo7fREi66Wv5ShrjI9USA/GknHGu245n0XtVe3Opf/ExX82ucReYSerZd1V/JUYSsHobtG1v6ziOdmLWtpHxeSAQCAQCgUAgEAgEAoHAwBHoqWI28MfECIFAIBAIBAKBQCAQCAQCbQgEMWtDKD4PBAKBQCAQCAQCgUBgNCEQxGw0AR2PCQQCgUAgEAgEAoFAoA2BIGZtCMXngUAgEAgEAoFAIBAIjCYEgpiNJqDjMYFAIBAIBAKBQCAQCLQhEMSsDaH4PBAIBAKBQCAQCAQCgdGEQBCz0QR0PCYQCAQCgUAgEAgEAoE2BIKYtSEUnwcCgUAgEAgEAoFAIDCaEAhiNpqAjscEAoFAIBAIBAKBQCDQhkAmZpNMMknbdfF5IBAIBAKBQCAQCAQCgcAQIuB/gB7EbAgBjqEDgUAgEAgEAoFAIBDoFYEgZr0iFdcFAoFAIBAIBAKBQCAwxAgEMRtigGP4QCAQCAQCgUAgEAgEekUgiFmvSMV1gUAgEAgEAoFAIBAIDDECQcyGGOAYPhAIBAKBQCAQCAQCgV4RCGLWK1JxXSAQCAQCgUAgEAgEAkOMQBCzIQY4hg8EAoFAIBAIBAKBQKBXBIKY9YpUXBcIBAKBQCAQCAQCgcAQIxDEbIgBjuGHFoFf/vKXaeutt04vvPDC0D4oRg8EAoFAIBAIBEYDAn0iZhdccEHacccd0z/+8Y90//33pwUWWGA0TLHzI2666aZ08MEHp7vvvjvNPffcafPNN89Bmrz99tvpqKOOSr/4xS/S73//+7TwwgunH/7wh2mOOeYYZUDXfPWrX03XXXddWnHFFfPn9957bzrooIPSzTffnKaaaqq06aabpu9///sj3furX/0qbbLJJmn77bdP+++//0ifnXnmmemMM85ITz31VFp00UXTnnvumVZYYYUxipeH/+QnP0nrr79+OvTQQ9Mee+wx0ny+9KUvpc9//vNpt912G5J5wmL++efPc/jiF7840jPs1fHHH58eeeSRNMUUU/T8/IEQs16w2GmnndJCCy2UVl999XTkkUeONC86Aq9bb701Lb744j3P+cN+4d/+9rc0wwwzpFVWWSVdffXVIy33mGOOSTfeeGNiOz/60Y/SDjvskB577LE0/fTTj3TdOuusk955553061//ut9wmcc+++yTbrjhhvTPf/4zrbrqqoldNv1fTuwz/eM3xh9//PzMO++8Mx1wwAHp9ttvT7PNNlv2AeZb5LTTTss+hV4vssgiaa+99hrJxi+88MJ00kkn5fXRIfZmDk3CfxmnKnzLueeem5599tn8/Lp49mabbZb//MADD6Rtt902288nPvGJ9L3vfS/7w7r89a9/TZ/5zGfSzjvvPMJnvfHGG+kHP/hBYkuvv/569oHWzVfav9VWW61xzi+99FL62Mc+1u/9+dnPfpbxEUtmnXXWdMghh6S11lqrdc7//e9/08QTT9z43J///OfpK1/5Sv7Mnm+88cbp8ssvH2lfffbaa6/l/WS7xuL76OZ4443XOC5dPeyww9Kf/vSn9NnPfjadeOKJ2a8Xee+99zKG4tE111wzIo70OtcyTpMedsNpmWWWSbfccssocxanjzvuuH7vTV9spyl+dtPn6qTefffdjOOUU06Z7ZScd9556Vvf+tYoc2cfc84550h/7wVfOi92X3XVVWnSSSdNa665ZtZvzyTd8G2by/vvv5922WWXdOmll2Ze9IUvfCGdffbZI9nF448/nr72ta+laaeddsQa2zamJ2IGPEBRTkGTwo9pYub5Sy65ZDaWb3zjG+n6669P22yzTTrhhBOyMR599NHp5JNPTqeffnpacMEFs8FwMhzXuOOOOwIXjohTffHFFxOj5pT8jfNi4Lvuumt6+umn8/qRL2MTRIvD/t//zipvdJWYnXLKKZnUcTpLL710DgYUwbPnmmuutj0Z0s+REcHFGinMLLPMMuJ5Q03MPOiII47IhPXhhx8e4Vz/8pe/ZGd38cUXZyz7IgMlZr1gcddddyUOEBGbd9558/TYBDK23HLL5QQg5P8jUIjZdNNNlwMYp1SkSsz8zX5PPvnkee+LcPRbbLFFtpeZZpqp39Cuu+66iYOjc56x5ZZbZoLDHqtyzz33pLXXXjuZdyFmgoDEE5kyFwF8q622Socffnj69re/nQmZtfz0pz/NNiQY80MI0qc//el00UUXZaLEB6y88so52Oy9997pwQcfzL6lLh//+Mez/1l22WVH+cyYEktEdZxxxhnlc2tEoiSlAvIdd9yRfddvfvObrJ9VgQnCaS3FZ5m3irNkzTz23Xff9Lvf/S4ntE3Cp55//vnptttu6/feSKbZDxzN6bLLLstzv++++0bxkU1zrj/YXAVFJBhZ5NvWW2+9Ec+oEm73SgyRML761VdfTV//+tfz/tWTb9fCU1ywp8svv3w69dRTs83/4Q9/yPEQseU7Z5999hyUEYCS4DcBVJ9ruaZJD/uCk3HefPPN7EvpuLn2V3q1nab46Znd9Lk6JzbEPtlEIWZi+BVXXJFtqj9SxXeaaaZJn/vc5/J/YvDLL7+ckxZxWKGpDd+2uZj7WWedlf0AX6VIQ5/K3Pky9jTPPPPkZKCssW1dPREziofVCqiyGoo3pokZR/nkk0+OyBgtVCVIdYvhcIacEmdIZDRYPEdZzQA5A6z72muvzcrMoGT0MjcM+CMf+Ui+nwORvZbsxO8yLoFlscUWG4mYyZRVDKoVMhUBSvjNb36zbU+G9HPEDAYcufUhNkXqxIwDRm5l7AjJgQcemNfE+cCYIyGIyxJLLJGVswRhjo6x7bfffiOtp2RI9oAuEdWRySabLMHNXuy+++65okKRl1pqqZz5mS89/OhHP5r1kJEhzYJitZVJL+wJoo5wd5O+YKHCwIiNLziqrnDqgman7H1IN3IYD16IGT1TZUTC7RupE7PnnnsuExm6Qyc4eoFF9alUv/uz1LfeeivrlCo4Uk1Kxfb5558fkS0Xgo2Y0dUSwAXjUvEqz0fQZMhsH7FxL6dcZOaZZ856yS8gYv/617+yoy7C/1hXvRpgTFU6ulSIf3XNOgN8G1yb5Jxzzsm2VK24fec738kJtGS6COJnjUgeglqImXvZa+km2K/55psvqTTUibHAZo4CT9Nce90rOCF21YqqCqHnFb9grE5zrj8HCbGGojO//e1vcxVWVQ9hqxIzhErlhV8riemPf/zjHLAlidXE3XNUJf2tutfWvt1222U9gBPMVNXFiyuvvLIrMavP1TM66WGvOBU8kADro7v9lV5tx/hN8bNNn8u8VB8VTegqXSikRZx59NFHkz3pj1Txtf/2VaEGWSRsU+GEvbTh2zYXeqQqT3cJ30KHJQj8mjXQC7ECxxhUYkZpZGsTTjhhfshwIGb1DQOythLyhFQhWDaomgEhaloJql1E5sghy64Qz0LMgGedgkQhZkA1LuJQzVpdVydm9bnJtL773e/mios2w5gUZERwRMgoDiWFAakSM8RIxo8EwUa5l4LDmZPjxDl+wU/2eMkll2RyZmyCmAq2nGJdkHqEy0/ZjZbLE088kWQ3SvkCEfIn0Nk/RJmi00Ek6Mtf/nJ+jmcjSoWYcar2Apl0TZv0ioVxkELBSmClB4KsrK4E/bZnjU2fF2KGWKtM2JNSVawTM7jYr2OPPTY7Y4kUAuwIwUCk6ApiVqpQAg4fRmfoH0Ec7SN942Td16mdxX+stNJKWSe1x7T8zVOLgm0jlpKUpuMSSBrbZ1f1qhg70lbhIwR1GbdkRTCh456FBEg4tExUaRAC1xN2+corr2TfV4Rdu/+hhx7Kf/IMVQNEDZFDSOrHL1zHtiU8ki5JaJ2ksNUJJpggaeMORLT9dByqVREBTqVOpa8vc7bukgDU52uv68SM75No/fGPfxyxhNIuVjmst9XpLx9T2sZuQtInmmiinORWpY2YdZprJz3sBafyfOtR5VVp/uQnP9nv7enVdjrFzzZ9LhPjR7X4tbHpZSEtWoMqy44cINh8rWputypkGbObLpRrkFdzp3tt+HabC/+mEFRvsZovQidRKGL+g07Mqjs83IgZ4sBJCdjaDCVDlXXJcDgXJIGjwu5lq8qTlA9bZ6AMThm6EDOAA9dYnMWf//zn3AaR3f3973/PjrhIN2K20UYbZYXDoP2stxX6bTkDuBFZ4rAFEG0mlZ/SVqwSM4FBZk2JizgzpGKmvYPUCah+V/bWBlDZUmlAdJE02TUn3iQCsGthyzg23HDDXI0QiBhXqbyp6sEb9lrX9rlamRO0OE1ZoraxyoLA0ov0ikUZyxzsqRbMjDPOmNvkIaMiwEYEN3Zkf1UuSxu4iZjZd7aBuCBJgnP9LEl/cEaU6J92AlJG5/gLbTj69cwzz2QfgAgK6Nob9ZZXeS7/wRdIEOgo4U/4EuI5/EfJnOvzRWjosgSmLjBClBA9/kTCgvgIWlq8Wi6IgCq1gCtxQQj4OMkTndS+Q26LwFHlTsWAqEpojyBlfGATMZMIqf7Qb5jVq2VsTBVcp6J6BKI/e1MIk2AsgfY7PywYqxz2Ome6o03ET/EhdWkiZnSA7dKzIpJw7e6mThBc+Mlqsmev6I+EtSrdiFmnuXbTw15wKs+HHz0cDL/UZjvd4mebPpuvShK/j4Cp7lWJmVhLx8UTz0Gk2axkodu59jZd8Fz2q4BTOipt+HabC2IuDopzigpFjC8eVs+jjnXETOmQY8VGOTBnyRAqlS2OWIapZCpg+1th386myU4xclIlZn5H6GSUSqxKoLJS1RxnyqqHh7sRM0ogICEPDjFTtjF9SFyVCDGDWSmfI1ycfJWYqQ4hbHVh/Fo5yBCHhaT5yRhhaM2CicBQbZPWx7EXWlaqCyVrlq0iPDI+nxUxrr3cYIMNMjFD6BA/Us6Yce4CB8LZq/SKRXU8zh9BkyWVw6O9Pm9sua5UzBARGLEbTpUTRB7K4f8qHiqnn/rUp7L9qkoOhtBJbXEVfg6eDklGJGzs1nEH1RRB3TnSJmLG2fMVAjNdK/brbIlgYT3InUoYouasVPUIg4CPPLEL8yjtlLb1qfSZn0qtA8t1MWc+jy0gZlNPPXWeYxH2hwwiyaoDKpelKt2JmPF17Ef7EKFz3qu0oI0LP1WZ6nnAtnV0+1yVUnLnOapScON36Umvc2aLSCtyU17aqD6ziZgh0FpLSFiRQswQBb6vKsiwhMILYkUQM3GFD6lKN2LWaa5tetgNp/JsFVkFCPEGWRiotNlOW/ysP7+qz2yRrSNnqsfWVyVmTXNnpwgPu+skbbogBjuHruKNcBXpBd/qM8tc2Jd1OJ9etWvzFKtUuYuMdcSsCpjFM5SScdU3UPsCQdMSAB6iVJS4Tszq9yqvc2g2oSq9tDJdv8Yaa+QqQMmwB2o4/b2/SkaMwbFrx2l5cLwID6fjDIVDzlXWX30m56xFK0AIpIKE0i0niSDLbEqrpdNcYScDRxRJN2LGmJzPQ8wE+XJ+TLBUsVMdYHiCbv2Nz07P7xWLuo4h+4htSDMCdWIm6LEziY4AokqCyNRFUFOBUK0dCinBl39AlFTYERHtzSZiJoBIQBAWla5qwFPN4g+q9sEZI6LIBkFu6KKKL1splbZe1qZyJeHR3m16WUCVgZ06o6dCDHN2V0SFj6+xPraiJVMqSp2IWblX0qTiicBUX9wQhLSkm96c7GVNbddI8hA/WPU6Z90Srd1OAbuJmJVjGo4+FCmtzHr1w+d8ooS0Gsz5OaS1WqV0bTdi1jRXfrRND+u4FZxU/IsgNvSOPx8KqdqOdfc1flb1WbVXUaBU9nohZuzQHLqdneumC57BXvwsR3c64dSEb/XaMhcVbLqnQ8Q2iij+IK7VCutYQ8xKNat6RoHTYNQyMESDkQvaREaFfPmM8irtNwkWDHBODoHzZhnxd71z2WRVmohZ098EGwduB/IK82AYXJ2MGJPDEZg4Y4SKApuvtSv7F4GndhPnIxAgb5SYwShLI1gqioKCQOarMbpJnZiVVqZKRHnlvbQyET8OsomY2RuEWftF1UImXPat2/N7xaI6BgMLYtZdE+vEzNXsSdVZNRupHR3EjG9AlFRjiBa586WqAd6u7nS42HVakpIBeqftUSdVApP2K30oUq1c0WUVIKRKIGp6m7Lchyg6Y8TWSnXMM51nY0+qXyohVfLhEL8qBNKIzJbWWhlTkGKnfnY6pK9CqEJlLYKkyg1BSJFJxKzYoQqx4MPWm75upK++iY5IqsyvPNM8BT1nibrNWSu1iPNJ5t7pa0iaiJkqoso8n1e+hgSxsQcqZnVBvvl+fq2I9qlzRN78rEo3YtY0Vy2vbnpoXZ1w4uuK0Fe+WcV5MKSb7dCLbvFTpaibPuuSdHqRRZzm/yUlku0ibIkdIzydpJMuWIuCjCos0lSVbnoIXy8HdJuLzo4CRPlqGsUFFVadvGoVbUiImbMiWgAEY9V2sDGCH/Iiexzdog2pCiUrBDrnZk7+DUwESgaLqCFkNrkcFm+aa71ihlQwWhmRMcr3oNQdQBMJ4/wZMYehSicIybiUWjnbMSlNZESWqBrg0DMl4+TNGX4lw+AMZcoCVfnKDy0cZxqQZDhwgu6VfVLMNqkTM9drexlH5UtwgCVniVA7J9REzKpvZXKUztIIZoQhOy/RoyUhTQAAIABJREFUdDahVyyq6whi1rarKTtdbZXSyix3CLgqQF4mGR3EjGPllNkvh895ais2Ba96xYy+aY/72XSYnx4IUOXrMPgfRwKQJDbOL7GdUpGro0bH3SOIsT8H8/lSFWj4SZbgxA5UGJEm7TRVL6TN51qXArIKF1/FDtgPsiXgO6bR5JvrFTNnN7UB2Yqgwuc5i8bPl+CCPPCrKo2DISoogqRKHt8swdPqlfxVz+uUZzVV+UqFXeWr00tVTcTMmKoZ3tR3lk9SpzIofpQKqP21H9qaKvS6CvQIQRALJe90qrwcVubZiZj1Mldj1PWwV5xKksxnD4b0xXY8rxo/2/S5Pr96xQzhVf2j+5Jxe2Q/2CJCXLWdMlYnfCUS4pQY1YRNG75tc2Er5qoQobChVeq8av3s4ZAQs05fcAiU6pccDoZC9GUMZ7cAo0KC1SpRIlDl6wsc7Feh8uaEvrCN7nTGo07MkAFnCjgKmaJsv/pljja7LsgNx6VMy2kisTJNxq0t2OlgcF/WPNBrm8iIMZFIjl1ZvXzBrAye0qkwyKoFEWS4SDn8LJt0cFaAUObW0qy+pt9pzk3EzBicdPmyS2cQ7LGAUb5MsN7KrBIzb7SpUqjg+buKSfluu/o8+oJFuTeIWbsGdiJmAr0AIrkZHcTM+SwVc0TGYXX/VtVteuuyHhCdTWtqj7H7kiQgMnyQdUnkqjaO7DS1lcoXfxpb8oaoEu0QpMxcHeRHFFTFSuBHWtimA+uCEwJWDTTOZao+ORfKVvhBSWqT1EmOlit7QWK93SmZZIPlzVVjsEGts8FslfGPiLIXLuDHZ5bqZn3eTcQMFlqe2uPVs3DuhV+9u+Hv/BLc+CyE0Fu1xWex7VLZ9DeEoGCMmPqKBb6QDvOXyDThX6rVqzJ3+1HeXu021+pam1rqveCkpea6wWoz98V2zL8eP9v0ubrmOjFTbUZ+JQfirz2m++X4St12jNUJX8dbOmFSviC5G75tc/G54oFYggQi8OZdviQd30BU69ItmXBtT99j1u6K44pAYHgigFhqW3ixISQQCAQCgUAgEBjuCAQxG+47FPMbEALaETKY6lecDGjAuDkQCAQCgUAgEBhCBIKYDSG4MXQgEAgEAoFAIBAIBAJ9QSCIWV/QimsDgUAgEAgEAoFAIBAYQgSCmA0huDF0IBAIBAKBQCAQCAQCfUEgiFlf0IprA4FAIBAIBAKBQCAQGEIEgpgNIbgxdCAQCAQCgUAgEAgEAn1BIIhZX9CKawOBQCAQCAQCgUAgEBhCBIKYDSG4MXQgEAgEAoFAIBAIBAJ9QSCIWV/QimsDgUAgEAgEAoFAIBAYQgRGELMhfEYMHQgEAoFAIBAIBAKBQCDQIwLj/Pvf/36/x2vjskAgEAgEAoFAIBAIBAKBIUQgiNkQghtDBwKBQCAQCAQCgUAg0BcEgpj1Ba24NhAIBAKBQCAQCAQCgSFEIIjZEIIbQwcCgUAgEAgEAoFAINAXBIKY9QWtuDYQCAQCgUAgEAgEAoEhRCCI2RCCG0MHAoFAIBAIBAKBQCDQFwSCmPUFrbg2EAgEAoFAIBAIBAKBIUQgiNkQghtDBwKBQCAQCAQCgUAg0BcEgpj1Ba24dsgRuOKKK9KOO+6Y/vCHPwz5s+IBgUAgEAgEAoHAcEOgJ2L2yCOPpEMOOSTdfvvt6aMf/Whafvnl0957752mm266MbKeH/zgB+nII48c5dnzzz9/nuOFF16Yttxyy1E+f+ihh9Icc8yR3njjjbweJOD111/P6/n+97+fZp999nzPH//4x3TQQQelG2+8Ma939dVXz5/7N7nkkkvS6aefnh588ME0yyyzJPNxDXn77bfT8ccfny677LL01FNPpQUXXDCdcsopI8buL2Df/e530/PPP59+/OMf93eIPt136623plVXXTVtvPHG6dRTT+3TvQO5eHQSs/feey+deOKJ6ac//Wl69tln0xRTTJE+//nPp+233z4tsMACoyxj7bXXzjrBHux7SGcErr/++nT44Ydngv3mm2+mhRdeOG2++eYJhnUZbF3773//m6aZZprGyfEN6667bnrmmWfSgQcemG644Ya872uuuWbaa6+90mSTTdZq4y64+OKL0zHHHJP+/Oc/p09/+tPp6KOPzmvsjw+47777Mla33XZbmnLKKdNGG22Udt999xHz56O22WabdMstt6SZZ545ffGLXxzpc35tp512So899liaaaaZ0g477JA22WSTUdb/3HPP5Tlut9122Z8RWB122GHpl7/8ZfrHP/6Rll566bTPPvukeeaZJ3/unv333z9de+21adJJJ02rrbZavtc8+ytt/tu455xzTjr77LOz/pjz9773vbTccsvlR9b99zLLLJP23Xff7NvJtttum84777yRpjfrrLOmRx99dMTfnnjiiYzzxz/+8fSb3/ymp6U04edGfuTggw9ORxxxRLr88stzPCnYtumhmPX000+P9PwNNtggnXHGGelPf/pT+sxnPjPK3PhjfpmcddZZea1wWmihhdIuu+wyAqeeFlW7qBfbaYufhuyG7913350OPfTQdNddd2U/ah/sWZFue9+0pn/+85/p29/+dvr1r3+d/Hv88cfPl1133XVpnXXWaYQBth/72MfSTTfdlG33d7/7XY7R7MZYpC2Wt+HQbW/b9qaVmPn/Ni222GLZkc0777zp73//e3rxxRfTF77whXTVVVe1jT/aPuf0bTIDRYSuvPLK9Ktf/arx+d/61rfS3/72t+xwbA4Sdv/996cHHnggvfPOO1nBN9tss6z8wOfIZphhhkzG7r333rTssstmsrLWWmtlcrfrrrtmpzrnnHNmUsaoTjjhhGRjEEgKcs8996Rxxx2333iMbmImENj7a665Jv3+979Pk08+eb/n3pcbRycx4xDoCKew5JJLprfeeiuv9eSTT857uMYaa4yYOv1H1hCLT33qUzkxCWlGAHY777xz+vKXv5wTFjYGV3//yle+khOZqowOXXvyySfTKqusku0XwWDjK664YrZdThopY6/2vs3GBRRETgBBCgRHdv/www9nktcXH4B0IR7IInIlwG611VaZ/Hzzm9/MMK233nrZdxgXeeK/kCdzYKOf+9zn0hZbbJH1WNBzn+TR3Kry9a9/PX/OVxZihsRZr0CJ9ElY77jjjoTseeaiiy6ayYHrX3nllbTnnntmP2fNgylV/01PEFXEV6J07rnn5vnxoZ4tcL777rtZjxDp4447LifCfPh4442XNtxwwxyrquS2OlfX8vlzzTVXDuS9ErMm/MSHb3zjGwnxO//88/M8CjFrwqeqh+xCzPrRj36U42ld7MFSSy2V/vWvf6VxxhlnlM8RMoml537yk59MkiG6Yf/4qMGS+py7xU/P7IYvEmpPEW3jKKTQQUnSpptumn1Et72vrwkBFKcXWWSRTFCrxKxp/T/84Q/TRRddlLGSyKywwgo5yaLnkiw2hRcYs82O23Dotrdte9NKzJAvzvRrX/taNhALxywx61dffTVNOOGEbc8Y8s9/+9vfZvLE6Uw88cQ5A3z88cdHyZrKRJAlayoVMhWQxRdfPFe4ZD+yRZtWqiIcMCfB8XIQFF9mVISjmHHGGfOGymYZ2W677ZY/Nh6H7/6VV16531i0ETP7wVlzMvZoiSWWyBlcWSMi+Ytf/CJnMqp4X/rSlzL5bJLXXnstY4Dcei4F9F8R5FeAQNbgrNpUAoNrEHdB4s4770wrrbRSDtKID6NEcJFimZ0KwCSTTJKDt4Aw0UQTZaJbbWUaY7/99svVyU984hN5HvaaIFIIknEkDLJ9e1EPSE1r9ByOVrWMMVblZz/7WU5Eyh767IADDsg6wWDNnS4IAiEjI/DCCy9k/bJP7LAqdO+oo47KSYt9J226Nlj40jE2T09VPgRD+1j2UNJ15plnjiAp3Wx86623zqRFAlhE8opQIRh98QF811e/+tU8p4985CN5OAHG/FSpBAtBg51NPfXUo8BxwQUX5ORPEC/C3gRzQajIpZdemqs6kgskohAztoxIFDJRqjSqSwgsIsbnqSwRFUeBs/q8ge5R3X/rCkw//fQjVX5mm222rE9sFqkW2FWWCOJA5/hx18Ff0mw/moR9I+n2W8W0F2LWCT/7BivjqSK6rhsxq+rh+++/n30oXUOu63LzzTfnCg5f1CQq+whqVQ/nnnvuHAcknYMl1Tkbs1v8FAe74Sup+clPfpLjYRGxAhZiVNve19fE9+vcvfzyyzm+diNmrmGnYje8ETI6JbYU4R9U3E477bRWO+6GgzjXbW/b9qaVmNUHKI7U5P/61782Mvm2hw7m58qNSJUguv766+ehZb8CJ5KmTSLLQpqaDMb9grtSJkcoM1Eyl6V+5zvfycFfW7RkwpwbslCtxgnasjVGKcgjBtVsTfkfQREI+ittxMz6GTKF0s4wJ79bF0JkTTIZCgkbTs3v88033yhT4rBkxIxINmqtMowiMlWBTADhkBAzGSpirK0j89F2lf3AjxN1vxYxIzIXZNXfkTTBwTwQySoxQ7b8HWlTUTC+7IpB+N0cBTAGbc3utZfW20aa4CUD15psE+Radq3kbX/92/q1ekNGRoBO2X8Bvpcqa5uuDQa+dIQe05+mqjVnLvGUzLCbNhtn3xx4aSeZo+AisRBw+uIDtFIkSXS9EDO2gqxJfAU5iSH74l8EMORvjz32yL4KcVLJYmtFkCfkl/0S60PuEDVETnWlELM6voiKihMbKuS5eo3KBhw7dSP6ul9N/rs+hkBuvXw5O+ff+Q12rzCgamSPfT7BBBPkjoaKkTVIBgRj+4K0VUWS0Asx6xW/NmJW10PjIjJ8ms6E/UYoEWGVQK05fl/8QCbEIMm064nP7ePVV1+dpp122qQlzi/SqZKQ93U/6te32U49flbtq1d8rU9sbqpw1ve+03pU3tqImco8/WAbhA7hDnwWYv/SSy/lOE2/JAB9seM6Dirh3fa2bV/6RMxUSZRtsVREZyBEo21ivX7O0RQnVJRCRcUcBXqtSQFb+dLfqkREdiHj4bR8DkiCuGjDIBdEhsYRMbyiALIsDsDvNhwJRNiQBpVFJE/Wx0lql3B2FLW/0o2YcdYME1kwb2KvZMbOjpBShu/lbJTKE2LKAVBWxFa7AyEhiJkst0pqPvvZz+agxjEo0atElQohAidwIWZ/+ctfsqOBe6m22heBSHCqEjPBVJCqBgHZuoCjVSOAcmj+62vlViDm5D2jTThAJF1FlWHbT3PVQggZGQF40nmktxdp07Vexuh2DdtQJRLY+a6qaK+ybaLCoI2J0LfZOL/BzqvnVyQEyKhA1hcfINE1P1U4c2Qf/JfjDyolKgjsiv0jgxJAiaLn+elvzjGxiyIq3cYzH6KCpuXJP7inEzH797//nVs7sChV6SpeqnY+Zw8Ft4HuT5P/LmNam6oGv4xUlkq4oMfP8LdEsscflHOhgizfpzXMz3iGIgK/USWbvRKHXvHrRsya9NBeI5DGl+Cq3FindYghYhK/o6WmW8BP2kP+t5yh5otKxYxvosOlkjjQvelmO8buFD/Lc3vBl6+g3woI5Xyn+zvtfac1tREzsceRARjT/yL0i67rOBF2IwEnvdpxEw5te9u2Nz0TM+VaGaIMhIOToQ3kzFTbxHr9nEIL6k2H/atjIAkyJ8G8iBKyAIIxK3M6J0YZ9atV34ypNWOjOK1CEARkBuJMmmsLQeNMbTDSKsPRhkAA/A25oYD9lW7EDPN38NVaqodFkaVSSWTgyKIzUrDgvJwpqYusS/Yi2yztC1hwdKU1xTHQg+qLCJTeHDluay0vWhhfCxD5ZRycS9PBZNfRMe2I0so0HpzrYq3GLy1U5FGQtA+e00ulxvUy6F6ImfUzZkSfwAiGAjsSGvL/EeDMkPJeiFkvujZQbNmkpIAOlkPBZUxkhQ9QaTFnNoFYkW42rs3PFlS6iiBKnLH7+uoD+J1yRII+SYjYLb1WDXIInq4V4cMkRhISAWyqqaYa6WUoxMyaETvVLT4I1ghcJ2JmfEGJ7aq61yvOjrSwS1WNTkcg+rNX3fw3IoiIIoKe7z/2LflEQlQ2kCEkxn+Sx6bD9tq6kkrXlJe0zLUX4tArfsbrRsy66WEVNxU8rVjHQbSS61JeWJEUH3vssZm80UUdCPuOqPHL5UWJ/uxJuadtzk3xs7wg14avOCuuIpJsz75WpdPed1pPGzETs8QLOlDE/B1v4LMUC+iP7g27liT1asdtOJTnte1tdW09ETOZl3NTSuYCvNZS3ckNRAH6ey/SpHWGALUFY87OQU1Ori42QOn3pJNOymSTAyrZpmspCQLmYK4qWF309G26zKxJHDJGHlXW+iv9JWYcaWm52D8OXZYgGCh5Y/tV6USGBAxkjUPsRsw4BGOW8x5V/BAz7VWV1iq+1edXK2YyScGpBMtO2AkqlF5ljsFbW5t+0mPBuq2VifQKxCqvdRFMS1uhv/v6YbuvZPm9tDJ70bWB4uMcDt9QTciaxuRctTGQGdXnbjZOx9lUlaAgQoJStXJVHaMvPkBryvkoPkUbk19SUSgi8FqPyj5yIohXD+OrQqiisHUVSf6sVAubiJmxkTfnAgWmuiCbWmZah/XzmAPZn774b8FSQiZgqvrbr2r3A6Fkj9bRJBJH/heRLdJGzNh8L/iV8boRs171UIWP/0QSxLa62Ht7wRc7t6sTU32jkU5qeSJtA5Ve51yNn6Vj49md8IUrv6niyV+0vahQ9r5bx6mNmEm68JYqMZf86IpV4ws7UnRCyJukmx13wqGM07a31ee1EjMPUx2QcQFmIORioIpSv18g5oRkjlVhoEq/1QOQ3rArr4qr6mh/AplQFBUhDlBLzH0cdGH/peUBWK/+Iw/OeZR7VeL8LthzlhyqrIf4t8oVxZHV9Fd6aWU6r6PET0orU5VPNoKUwaSIDIGSctpFrE1maR3enCnigCmHR2EZXjdipgXKQdkTbxQRLx0IZKWVqbKl4lYqdqqRsloHJuutTHssay6ihahtLNhak3M25VD0f/7zn1zBQv7KVxd0wlt2iSwzymrlw/WCodYI7Oi8a8q5hDKezzmW0k7p775+2O5TeeZoVUVLS6CsUYUZMXBWyj71omsDxUdwU3VCuoogPoKOqp4gRsqbmJK8cvyhk41LLJwPYm9FtJ8kaDLwvvgAZ1MkSs4rlq8f4mPZA9/G9wjA2uhFzwUYlWc6TA8FaklGEWtzXk2Q5puaBJHR1mFPztnQc/ZQF0cJ7KUEphxlGOielPs7+W8+TCJcPQfHr/DRXgRCnOmQalsRZAYpFqv4StW/0m6Fpc89r3outI2YqeC34VfFohsxa9JDVX8Ve/pZqmNwds5MQmp/xd1qUlG+xsm+6GwomFQ7MU0V1P7uV9Oc6Uu3+Fnij2d2wldHSSKtElptX7qn296XjkXTeroRMyQWMTP3aitblVt7W2WwiMINu0b8u9mxAk03HBR6uu1t0/nN6rpaiZnMS3nUQA7HVgVQTay+v4rQ1/tUVJCGetBU2tUCM/dy6JWSqKQwUICqqFBo5AAhU+1CAPydQXNSCAoyIyPRpmAoyBmChdAgcDJMLUIVImV0DoNDFNy1ymS+lK+6+X1dp+t7OfxPOa1ZC9K8KJa/OUBprxAN67EW5EhWVT0ng4BQVm851c9s6cNbu/V1I2bON8AOoZdhI1FImey9evhfEDIn50dkLipdFLnp8D+s7YWAKfD5N6IoACGg9ppjQwZ9zhCNjxhw1E0vOMBUFcHzOHHnV+gSwojYaxmU7zMzfy8qVAWG2saeWSWx/dnbD9s92hP2VDJEv+wFnXJWxl78/Oc/z2S3F10bCDalxe/ZzhMWUalBRiRP9tWZJTpNZ3uxcRUmpICNsyOtP84cOUKI2nwAmxSU6R0xF6QDsdDWEbicDS1k0jyREYSMTSOM9JNemjM9FJDZhbFVvpDPpu/iq1fMfLUGklz3oeYFF6TQPpUXqwayH/V7O/lvvgspRVjEnHJmDiZ8t+DNVl3Hvwum/s1/832ITfl+Nr97QQKxRWa9oFGkE3HwdwTOCxd16XZGrxMx66SHkhjzlySbI+LAz0oq+XEdDXsvnsHf73yS1hs/a57lGwPgQqccVRHL/D4Q6TRnY3aLn+X4i+ua8JWcKQiIxU0vKLTtfd12yhq7ETMv0MCwWnV2nzmwY1jTKYUJhQd7L8lqs+NuOCgYdNvbtr1pJWYYukDVJNh9p4yi7cGD8bnAanPrbYry6i0FVbFCtDiykkHJRjg5WYc3YRg/B10CrA1EGrBmpErlh8KUCo9yMqci22W8DEWGV0T7ENlz9oNjE6iqCtuftXdq+3DG5soRmSOioWWrBM/RlzkzEmc0OC9OjYPxefX7cRiMwNnUjlFdoIgcnEDU6YwZh6GNJeioJgmIgl557VuAYfTIPkcJF8GNnjV9XYaMxro4HZVHgZ5zItYpg2ZgApax7Gv5/iekz7rL73XcET26jdiVCiOCZu7It6yuEL2msyvIIdJhr0NGRoCN0EsVH/vCPhAGrTA616uuNR0d6BVrus4O6Fv17Iv76QtnzaFLHlQeVGh6tXHO3voQdHqJ2PjZiw+QECEeqnRlLuxGlV7bXJun+sYnHyXBM1dYVt/Mc7/Kjnv8NH+kuFNLr0os2E+nLwk3P/ZI/5ukfEFnr3vRdF0n/80/8ZkSSsdHvEnuTd9yqN1+8ueSPS9PiEH8SfHfbFlM8IKWKjr/Yq+LLmmFIkV1KQQeJpKIJjJaJ2alcFEfC3kuZLebHvKjfB/Sxceo3mtPlzd0Jf3eKDVGqTCXeXnjXfKp8sQvi0VVnAayN93m3BY/u+ErWW9qs5Yvh2/b+7rtaOUiUHXxEkXBCcFXWW46tqKboxOEMJo3oiYR4RNIt1jehkPb3nbbn1ZiNpDNjXsDAQjIdBEzTnR0CsKlPdr0bfOjcx7xrEAgEAgEAoFAoFcEgpj1ilRc1zMCqnjaICprKpYyQC9VyFpGpyhLm0PTYe7ROY94ViAQCAQCgUAg0CsCQcx6RSqu6xkBrQStGK1A7URvsWk5Vl8+6HmwuDAQCAQCgUAgEBiLEAhiNhZtdiw1EAgEAoFAIBAIBIY3AkHMhvf+xOwCgUAgEAgEAoFAYCxCIIjZWLTZsdRAIBAIBAKBQCAQGN4IBDEb3vsTswsEAoFAIBAIBAKBsQiBIGZj0WbHUgOBQCAQCAQCgUBgeCMQxGx470/MLhAIBAKBQCAQCATGIgSCmI1Fmx1LDQQCgUAgEAgEAoHhjUAmZm3/Q83hvYSYXSAQCAQCgUAgEAgEAh98BP7v//4vBTH74O9jrCAQCAQCgUAgEAgEPgQIBDH7EGxiLCEQCAQCgUAgEAgEPhwIBDH7cOxjrCIQCAQCgUAgEAgEPgQIBDH7EGxiLCEQCAQCgUAgEAgEPhwIBDH7cOxjrCIQCAQCgUAgEAgEPgQIBDH7EGxiLCEQCAQCgUAgEAgEPhwIBDH7cOxjrCIQCAQCgUAgEAgEPgQIBDH7EGxiLCEQCAQCgUAgEAgEPhwIBDH7cOzjsFvFMsssk9Zdd9303e9+d5S5vfbaa2mqqaZKDz/8cPrc5z437OYeEwoEAoFAIBAIBMYUAj0Ts9/97nfpwAMPTLfeemuaeuqp02qrrZZ+8IMf5H+PKbnpppvSwQcfnO6+++4099xzp8033zxtvfXWeTpvv/12Ouqoo9IvfvGL9Pvf/z4tvPDC6Yc//GGaY445Rpmua7761a+m6667Lq244oqjfL7TTjul448/Po85/vjj589ff/31tNlmmyVzmGWWWTIJ+f73vz/i3jPPPDOdccYZ6amnnkqLLrpo2nPPPdMKK6wwpqAa1Oda06677pqJ1YsvvpjmnXfetP7662fsP/KRj+RndSNm77zzTtYjuEw66aSDOrfBHOyYY45J5513XnrwwQfzsPPNN1/61re+1Ug2B/O5H/ax+JJFFlkk/e1vf0vTTTdd+slPfpK22mqrhLAPlTTZOJ9Bl6uyySabpHPPPXekv7377rtZV6eccsp0ww039Gzj7733XvaRfNQ111zT6FuqD3r88cfT1772tTTttNOO9BzX/OxnP0snnXRSuv/++9Oss86aDjnkkLTWWmuNNM9f/epXyfy33377tP/++4/02Y9+9KN02GGHpT/96U/ps5/9bDrxxBPzmsh///vf7Nth9Oqrr6Zll102//6pT30qf/7++++nvfbaK+/Tm2++mdZYY4105JFHZjwGQ5rwZXdsrS72a8455xzpz017+8Ybb2Tsf/nLX2Zfza8fcMABI/z/X//61+yvr7rqquyD1lxzzfx5pzV18+d83S233DLKXHfcccd03HHHZfx22WWXdOmll6Z//OMf6Qtf+EI6++yz08c+9rFR7mmKNeWiJpzanj0Y+9OE7xZbbJHjaVVmm2229Mc//nHEn7rp85133pnxvv3225P7Nt1007TDDjv0bFud1lWf69VXX525SpO89NJLI+1BJzvvZjttesanWZt4N/HEE6cvfelLSVwZb7zxum5NT8Ts6aefTgsttFBW8AUXXDA999xzOSAz0F//+teDsfd9HoODWnLJJbOz+cY3vpGuv/76tM0226QTTjghbbzxxunoo49OJ598cjr99NPznDlHm/TII4+kcccdd8TzrEmQsJ6f//znozjPe+65J6299to5iFSJ2TrrrJPHOfXUU7OxmQNFc+0pp5ySDjrooOxIl1566cSofebZc801V5/XOpxuQIKXX3757NwRU0bF2QscFFsAQl67EbPhtJ5ucwliNjQ7NbqJWScb//jHP55tHhFp04MjjjgifeYznxlBmNpsnMPmhGefffYchBGApqSvPFdA2XfffdM888yTCWqVALK5xRdfPAdCCeBll12WBP377rtvhD+R+Aly//vf62WSUSVmd9wjsf6DAAAgAElEQVRxR372RRddlG2Xz5K0/uEPf0hTTDFFTqg8g8/85Cc/mQnNbbfdlkmrAOJaSSZiNtNMMyXkgd3zqYMh7KyOLz9+xRVXZH/STTrtLX/8wgsvpEMPPTTZZ9jSO0k6oqRS7z9++eWXX07f+973MpYXXHDBKI9r2+v6Dcgr/8jvw9vazjrrrPTTn/4044c4I8D1tXWKNWX8Jpzanj3Q/emErwRi/vnnH6kYUX1WN32mVwsssEDaY489EoKHtEjMDj/88PTtb3+73/GzLZaX+eEE559/ftbxqjTh22Y73fTM2F/84hezDdEhe/71r389c4VqEadpj3oiZjIxhrLeeutl4GRY008/fXrrrbeSAcaE2Mwnn3wyk4MiqjZaZBzPyiuvnJZbbrm09957549lrzJkZKnKoDk467n22muzIVWdJ6LBISJb++233whihogwaj+bKoYXXnhhmmGGGUaqkMHLxn/zm98cE3AN2jMXW2yxNOGEE+bAMcEEE4wYlzNiZLvttluuoCFmq6yySnb4sklOj4OyJ/VW5rPPPpudlesEJnsGc/LYY49l53nzzTfnzNYeCzqFXHN4DNpcdt555/Too49mvWQI5Le//W02AlWvmWeeOVcUVPvGGWecVkyCmLVC1K8LRjcxa7JxwVkC8cADD2R97SRsXGL3ne98JzvyQpjabFxFRkV59dVXz1XkK6+8sisx+/GPf5yvpbd8UZWY0X/PllgWoceCvMoZQdpk5kgZG60SMz6SvbCVIta83Xbb5YCI1K200koj5sceS/VDdY5NHnvssXnswZZO+KrYsWW4dJNO/hsugmDpkNgLFW/7Yj8QMUQUaSMqdJLpegXVZ217XZ8fEoj0uo+o8O2zzz7Z95Dnn38+7x3f9ulPfzr/rVOsKWN3wqnt2QPdr074iq+SBHbRJN30GdmBjVhcROxgk/S4r3iXMbrF8nINEk73keKq3XfCt812uukZXmHv2ZOuGoEL3fvLX/4yUoGojmFPxKx+E1KkHGtz2jKagSpGr/czqM9//vO5DaHEj2DJVqrMFClYddVVsyMiyqkIgJKrsn6dmCnXy9pkvADWgsN+L7744pxByhhk3BSKg2N8TQFfpuqs1b333ps+8YlP9LqkYXcdpebIYNLmpBEzlVUOVmVV1i1L+fOf/zwSMZNZqlj6j2OkT8i/Cqj9tGcqGrJ0AZ0BawsIKhw3gsyYv/KVr+R9UiVFvBk9B2jfVAC23HLLJCPdaKONcpW1qU1SBzyI2dCo4OgkZp1s/J///GduW7FLpEk2qwouWE822WQjFs6X6BYgKFoaVcJURaebjfdCzMpYKjx1YkZ/VcOqvpavgeNvfvObkTYJuasTM7+rilWTWHY00UQTjRQcy0COdDjawX4kURIahFFbTucAJuxLtW2g0glfNi6ZmmSSSXJyJamGTTVxbvPfZW46HZIx9i/5q3ZMyjXIlPF6iWfd9lorTzVId0T1sSSh9Ras9fCNyCPpFGvK/HrRw/qzB7o33fBVsFBBVhxBMPlqOqFCXJUmfW6aFz8vOWiqJPUSP3vVBcedJPGnnXbaSNPohG9fbKeuZwpaigXV9m5JelRzFWs6SZ+IGWJRziUo0zPWboMPVDF6uR9BQor0b1VOVF4IJitDZIiqVzIijFpAVv1DsmTCgOOwKFSVmD3zzDP5cxUfhqziU1qZAjYF2n333XP7FC6yIVnqtttuO2LaSABnLjvyk/J9kOWuu+5KSyyxRCZcM844Y9elIGayQWVjIoNEkvT1VSrK4X8KyKi1kqeZZpp8rZI/wsXwZRYCwOSTT54/s4evvPJKxtMeC6rlfAeC7BmCEyfB2bmunBFzPwetBYT4tUkQszaE+vf56CJm3WxcgiCLVeGlL45GcNZImMSLyG6RIvoji28iZr3Y+ECJWUmEkULJpt/5LKRFxa8qTcQMsXJG9stf/vKIS62bj3MEoSpaoY6IqL5Jhvg2v6uOIBJ8IB/KHxac+qcF3fGVSDm/iwzaR2fFJHbIFeLT5r/LnKxdlQyR0F7ji+tSiAWfIEHsJL3stX0R+Ivfe+KJJ7IflNQW/2Z8Pk9Ly7mqbrGmVz10Xf3Z/d0X97Xh6/yhmMmf8tHnnHNO/vnQQw9lvSzSCzETmyUa9qGaFPWCdy9zLXMRgwqZLBWsNnx7tZ0mPcNN6AF/V0S7VSzjb+hxJ+kTMdOfl3lxVM5V2RTtqTEpsjrkSZbpfIBzD8iZMqKWmAOXypRaYP5WMi9VE0FdNkbqxEw1UFVQJuWMXZWYqewAnXMvwoFznFpuRSgax3b55Zfns3gcDQfxQRUEqFTCeiFmKhDKtoRzpLyckEpFIWYyS1UL+9gkKgIIEhxVOYhsXkBBgilw9bC2VrH2MmKmzE5PZVxFVNUEGPNokyBmbQj17/PRRczabLw+e5Uidu98mMAk+CBnKrb0pomY9WLjAyVm5lmqwZIKWbwXidgjklaVJmKmckOX2U0RxIxfdG6sCBKBkPGRnqc7wD9KKH2mpUn4OZUrtich7o+w5V7wrY7NHyM0Yk6ve6sFLKHU2ZAUwu+jH/3oiGH5Zcm1RBsZ7CZte/2vf/0rFwH4qtKiFDOtU+JZ2qaeYR0bbLBBrvx3izW94tT07P7sS7mnV3zL9Z6P9CLr1ZdSuhEzibTnSBoQ73psbMO7r3PFB1SvqglFG7692k6TnvEdildIWJFCzHAorfVO0idiVgYpbFpQrRrsQBRhMO6lBBxNPYssYy+11FKZoGnDMQxEqRhQlZjZONU3Bu08VZ2Yqaw5c0FxisionUNzbZNo56nmqNZ9UIUj19LptZVZ/bqM/hAzukV5Vcacb2QkiB5CjJhJEpwnE0SKcHZIXzdihlhXy8ud9iOI2dBo6uggZva3m403razoqBY5/XHup1Q+OhGz6jidbHwwiFl9vg5OW6PqclWaiJkqt2pKlXhoZSIo/BgpB8/9XeJSpBAL1ZByDKPgpAJRb131qjGSqr7iy94FNvPr696Wc9F8t4PrxJ4iqH6WM629zr9prxF3RymcoSqCsKj4Oy5T3nL1GfKLlDib2y3W9IpT07N7XUv9uv7YjjFUo1QAyzcj+FsnYoZDuA6hueSSS0bE4U5z7mRbfZkr/B2pqRLHNnx7sZ3qnKt65qiA8dlOkdLKrFdQ6+vuiZgpJwtSsqlyqNT5KmVLJMi/R7eYh02tngkAuuqIrMjcbBpyQFRIOBGfMZxOhxb1oJXzOx06VZ3B7MvbqeXwv/kgejfeeGNujdTPeageOVALyw+ycIjEOileEWcprBs5dcar/lZmJ2JWWpnOrpSMEulCrmSZXtOnzEW0VWRmroG5vfTGWxG6KLMurUyEuUrUETu6ocLaJkHM2hDq3+ejg5jJVLvZuEqFVrfKd/nKFq0s51zYv0PjdLJJ+BJVll5tfKDEzDxUFBzZIIKag8sCm9Z+VZp8j2CpMqBlVET1C8GR8BhfAuQrNMqZp3Id8sRveaGqnCstFTNBSOLaH1FZ6oavtqUKu5hTRJUQ5hK0bnura8JPIdWqUQUzX0OCmDmPKm5I0p1NQpK6Sa/+3HEW5LX+tqpztLoCYgtxvsgadAnsTbdYg4B3w0miTDo9uz9702Y7Yhj78V9p/SKg1m4tSFSRTsRMhZIPZnPV9qX7esXbtW1zLS+8OOOHmCH21VZrmx6KAZ1sRyW9m575RgadJcUaNkQQaH6nerymaY96Imbac842eLPRGQyC4GDIHlC+26s/StDfe7QhKYAKFAMTfBmrf3uLSela9QRRQ8gYOAWol/7L8+utzOq86hUznzF438HksLBnb7jhhjnzkZl6uYAT5BhU6RwC9HdvVXH8H2RxCFkbA14CAwevgkXh/FTGR1Z7JWbl8L/AIIOka/aRgTvP4iyjCgZHpoWhfSNwarFwqgyDE7fvgiyn6CxN9fC/Chn8EXnnY3wmAHGMXhzQ+m76/qIgZkOjqaODmDXNvGrjMlbnGJENxxUEPxUlZ2irby+WceoVs77YeBMx44f4DcGtKk2BTFKDPDgQz48J1pIRiWf13FKnoKYaxh75QuQGAUO0EExzQ1QkRfUD0WVe/KkjIXya81O+jojd1r/vbSDaUscXaVR9sheqFuYGG3GntFSrz6v7bwmcuMSn8B0qg85BqQBKKCXWEjsxokk8i27wS73uNbJsb+pjera1qAw5k43UO7dcP99nHk2xpjq/TpXbTs8eyJ50w1ccQ8z5SIRXwgtb/r+asDfpsz3EJ/xs+l7RNrw72U63WC6e0ONql6sJmzq+bbbTTc/YlFiEN9FfhQbVWvGt+p1t/SZmblQhQUIEZkEM4eDQxuT3cjm7Ren1cGVXytGYeDn34GA/dq/6oorCyKt9/m6K10bMvMUlyCMKFFM2W77lXpapb65ag6kzbm8altelB8tYxtQ4zvQxHpmz7ANZd5BV0CjY90rMBEcBQoBCnLR7BSBEC46cI0IrgDggilBRdoc3tVQ5XoGG0mvDaA0g4KVljOiZq9flZZfIZHlBo7zMUn2duYppEzEzTl0kAYJbSG8INBEz+10XwZPzHiypB2/tJT5M1u7LPjlNFd/yJcndAmKbjdO/ejXLePwEJy3JQHQkHYRfQhbrUlqIfAm9layoCvMvqkcEwYNVXRzTKIFIYJKgSJ4EcUkj23OernrmqjpG0WuBhU36XbXOdzOxjcH8cuh6QHT+iF0jUwioyozEt9Ph/PreOk/m3K/KmJeFxCukyU/nyupfzlvWXb50FCb2Cclq2+tyr5alfaqPbS18kGM2KjZ8o3U1vdXaX2LW6dlDZTvO7rIVRQfVHYSfTqhAtemzfW06m17svQ3vuu3U19hUZMETtP2rbeYmbJqIbyfbcX83PfO5apu4KA7RKfELWW37uqaeKmaDtbkxTiAw1Aj4PzwgSVqgvQhDUWkbjFf/e3leXBMIBAKBQCAQCHRDIIhZ6McHFgHZpWqkswqqdjJ6bRaVNyXmNpHNeFOtl/NmbWPF54FAIBAIBAKBwGAgEMRsMFCMMcYYAs6Xla9HUS3TMq4eGB5jE4sHBwKBQCAQCAQC/UAgiFk/QItbAoFAIBAIBAKBQCAQGAoEgpgNBaoxZiAQCAQCgUAgEAgEAv1AIIhZP0CLWwKBQCAQCAQCgUAgEBgKBIKYDQWqMWYgEAgEAoFAIBAIBAL9QCCIWT9Ai1sCgUAgEAgEAoFAIBAYCgSCmA0FqjFmIBAIBAKBQCAQCAQC/UAgiFk/QItbAoFAIBAIBAKBQCAQGAoERhCzoRg8xgwEAoFAIBAIBAKBQCAQ6BsC4/zvfwr9ft9uiasDgUAgEAgEAoFAIBAIBIYCgSBmQ4FqjBkIBAKBQCAQCAQCgUA/EAhi1g/Q4pZAIBAIBAKBQCAQCASGAoEgZkOBaowZCAQCgUAgEAgEAoFAPxAIYtYP0OKWQCAQCAQCgUAgEAgEhgKBIGZDgWqMGQgEAoFAIBAIBAKBQD8QCGLWD9DilkAgEAgEAoFAIBAIBIYCgSBmQ4FqjBkIBAKBQCAQCAQCgUA/EAhi1g/Q4pahQWCvvfZKL7zwQjrnnHNS9d9D87QYNRAIBAKBQCAQGH4I9ImYvfLKK2nhhRdOL730Ujr22GPTlltuOcZWdPPNN6cjjzwy3XvvvWnOOedMm2yySdpiiy3yfN5+++10/PHHp8suuyw99dRTacEFF0ynnHJKmn322UeZr2s22GCDdMUVV6Tll18+fz7//POnp59+eqRrXXPGGWeM+Nv/a++uQ20r2jCAj93drYgdiNiN3d2oGIjdjd2BihiIGNgdqNiNrdgt2CgqYv+hYnzfb2AO66y79pq99zl4j/fMCxfv3WuvmGfeeN5Y2/vvvz+uf++99w7HHXdcIw5ffvllxGv//ffv+J2xBuAw3vj222+P+CeZeeaZw3zzzRe23HLLsO+++4bxxx+/q7v928Rsp512CnfddVfHZ3vkkUeCfX700UcDfZt44okHvnv22WeHG264ITz//PNhiimm6Gp9o+VLbO2II47ouNyTTz45bL/99mGFFVYI55xzTthxxx0HvsvHLLvssuGYY44Je+6555Ag+/XXX8MZZ5wRbfuXX36J9s1W+QF7utlmmzVe/7PPPgszzjhjPGefffYJTz/9dJhrrrnCJptsEo466qhB53TyA3///Xc4/fTT4/ruueeeAd/SdEN+Aib0jS6tv/768TmnnXba4FkWXXTRMU679NJLwy677BJOOumk6Afrwoc999xz8eObb745XHbZZeH9998PSy21VDjssMPC2muvHX777bcwwwwzNGJAtzfffPPw6quvBrr+7LPPxufZeeedx8Cgn01q89/rrrtuvF9d9ttvv4hnfV9XW221cMIJJ4T5558/npI7/s8//4QTTzwx3HHHHeH3338P6623Xtwr66sLHJri3Jtvvjlwv3ROk7//5ptvwimnnBKeeuqp8PPPP0fcL7744jD55JMP3Mq+wHWmmWaK/iZJbu99TxJ71VVXhY8++ijGGnu7xhpr9LMlA+e02c1w6MxLL70UzjzzzPDiiy+GeeaZJ65dnEjSy5pye+2anfDN2c5Q9bDNrnMb1BMx4yhvvfXW8Oeff45VYvbGG2+ENddcMyr8NttsE5588slw8MEHh3PPPTc6eaQMibrwwgsjyeK4OOKXX355EEngeFddddVINK+//voB50lZ/NuxJuEEKNX//68JA0606XvbbbddoIR77LHHOE/MDjzwwPDVV19FGCikdXN+CBryO9544+V0cVCV7N+omL3zzjsBESCPP/54dHD2PQndmWyyyaJerLXWWlHfyLvvvht147777ovkoshgBOy/QEG+/fbbSNoRg7nnnjt+Nu+888a/33333eGAAw6ItjTbbLPFY5Irwezee+8dMqy77rpr+PrrryPpQbROO+208Nprr4XXX3+98dpXXnlluPHGG8Njjz0Wj2+77bbRX/AnP/zwQ3C9448/Pmy00UbxeCc/IFjssMMOcZ3XXntt1P+U9NVvjCQgosgXMkYfkVLJ5hVXXBEQgJVXXjkG9W5syPX5Gz7M891yyy3hkEMOCeedd170mdYnIL3wwgthkUUWGQOHDz/8MAhIEt5JJpkkBnsEjX+1p3vttVd8ziqZ7nWjcv67fj3kaZlllomEZvXVV4+E/a+//orrmHLKKcMFF1wQMba3E0wwQfa47wv+9obeIdvwcr26SDIeeOCBrvSxyd/7zP/7EPGbaqqpor671yWXXBJv5bnp5QILLBB++umnQcQst/diHNJ8/vnnhxVXXDFcffXVkfCIc/SnX+nVbnrRGQUPz4pAuo/kQew49dRTw2677Rbjdi9ryulCG75N+FRtZyh6yG+02XVub7omZk888UTYeOONo7NCzsZmxcxm2mAZYxLOX8bDicpsBc4jjzwyHpa9CrIUeJ111hk4R1YvAxCUGT3nyVFOPfXUsRKy+OKLN+J3zTXXRJavIsRhNFXMVGIYowyVg+5UVctt0H/huIpZlZilZxYUrV/VYvfdd48fIzMCoMDAeagm0inSVjFrO+/jjz+OpIleyERl0PZWlaNbkRkLuq5VF1VX11R5sR4kja4gnkXaEUhZP6K+2GKLjfFlVRCJEZ/y4IMPxgoV25t11lmHDK2EbKutthqolL/99tth+eWXj1X02WeffdD1v/vuu7DccsvF6ha7//zzz6Njfe+998L000/fkx9ATJF+BIdP4gs6ETNrR8QEVBUTQhcFJ4FZZYlv++STT7rCQ2WGTcFbUuFaSB1ck/CF7EPFuC4bbLBBxAxBdq2tt946JlqpWsz3SV5U9/qVnP+uX1fQtn6JE1l66aVjYNfFIIiBroj9lQi2HeeL2TB8VSZzctZZZ0UdsO42afL3f/zxR9A94DdWWWWVeLq4JZnzX7px2223RT25/PLLYxyqVsxye68Syk6qFTLr98wIYb/Si924Ry86IwmTLIjFSVTLxF1V4F7XlNOFNnzr+NRtZyh6KGFos+vc3nRFzGQsWO7CCy8cS7FY/9gkZvVFUXLZoKyckshoBdJq24ERevbDDz88ns5xIQSvvPJK/G4iZrIWThvRePjhh8P3338fCSnHCeyqyCSbiJlrcOoIyHXXXRerA6ORmMHq0EMPjZU0BqcSIgOXFakCyGYEEY56iSWW6EjMcuchffbm2GOPjdvD6AWTavUrZwhtxMy5Mmw6ohKi0iNRmXDCCXOXHfXHc8RM1VnQkvmqZPArqSI1nOAZb6Af7B2pqLfXEZeJJpooVtkJomjP6aWgK3DIpo8++ugxKled/IDr5IhZ0xoREf5J1VBCwob4L6RxmmmmiUkO/1QXa0Q8JaRaxU2CpC244IKRENQ7AuzFHrg3fHQitthii2i3iZipJiJr/GK3FbzcPtb9d/X7CJnYowqUEi0JnKRPIFfVu+iii6KtP/PMM3EP244j4NZvnapW1iZmqCjCti6u9dZbb0WS6/qSSRXYKtHu5O91lrSKEbOENbI23XTTxQ6OdSXR7akTs1723nUQHvrpOeeYY44c7F0dz9nNcOgM3YZnfUygmzXldKEN3yoAOdvpRw/rAFftOgd+V8SMIgqmDPahhx4aMcRMBoUkMhqLTlkhxq+sywHLKATdlCEyAAaz0korRVKg6iaTT8Tsiy++iARU+V8mo+yOYMmyXLMqnRyyc5WvEUXzCaOZmMFVgBMQVS4/+OCDQS0Uzkl2Luh1qpjlzhPIF1pooUFZWE7x68dzxMz37Ted6lT96fWeo+H7OWIGAxUySZNKjfbScItAjKhLlrTy6tUyVVIJA1tP7VYETRUWKaKf2mRsGbmrzxwNJzFTnZFkCsqqAZ5XVVEnYM4554zzbvyKtlv9OSSBnltVotNcJx/5448/hptuumkQzIgnHyewSz6I7/nMHK3P+UY+E6kQqFSDhiKd/Hf1mu6NbCFfSYygwFzVncwyyyzhzjvvjM9K2o6bmYOvrooKuYCsPYtw1f27a1kvzM22iRtIlj3x2ZJLLhnv1+bvzTF6fucgZWKpdauQ6bgkaSJm3e49/bSf9FqsUmgYDsnZzXDoDL/LzsSHauGj2zXldKEN3ypGOdvpRw+r16/bdW5/ssRMmVgWRjFltcmYRkLFzBt8ZiFkGhRTa4nj0Z5kADJMLQlzaD5jfJRAdqQahmSSKjFrAsz1GbJ5meqgd5NDFrTdjwOQLY12YsYBCRayToaMqMnW/ZujIoi0cnYnYpY7TxavgmBeZMMNN4wtKRW5XjL6HDGToWtBeGZtFH+K5BHohpixW3rCMSMVKgrDKYifiosKrYqJwXLzPkmQnE8//XRQYNbq4uskEkmMJmh38B1VGS5ippV70EEHxcpBav034SAJ5ZNUbasikVTNahpWF8AQCAECDqltms5Httig+clqJRhWugUwNKfHzlTktGCrA+z97Fcn/52upbpnoB8JkiwnQWhSZUxFEqHyRyzgc9uOW58KDaKNeBCVQckd3ZDk58Q4DB9DH3L+HplFACV0iB3sVPrMrtmvJE3ErNu9t6fWg8zTIX8kIUOVnN0MRWf4dHFY1VJ1uv683a4ppwvd4ttmO/3qYbp3t3Zd3a8sMZM9cQKGPwU6g7NK7BQZKJ1K5kNVil7Pp9hmnVIWVT/fXBCnxShlTAY6k7HniJlsmxEz/OrAbN0hMzxtGc41ZZ2jnZjRG0FPMFAN0dJljHASgGV3dKiNmOXOs9eqaqlNZWgakVZl6FZyxMz1tDoMqNIj8x/aXEXaEcgRM4FNKwnJoCuy/l5a0L3gLznzRqbkoFqtMJ9kDtJzJEmtazqVRDteMJZUVGU4iFnScUE718r1HOyo+uY4ksM3SUTNyFYFiZIsImPWVR/J8F2dB+dZX5tIZlWY2PRwSpP/lmzr1FQJKPJkeB5pSBUrzyHpRiC1xNqOm6+z3woOqd2X/HuaUcutCzn1godn69XfI8i6OOJU1X90S8ya9r76vFrPyKzrDZd0spt+dUachCEMVAWrpLvpmTutKacLdD5JG75ttuP8fvQw3bsXu66uPUvMOr0y6iIcGTL0bwsnyjCrb26ZGcC8zStxnByHYEr8HflyTEYuc2wSQ7ZKlq6ldJ6qY+nFh3qWWHfIBn5lUk3CcWiVjIvSafg/vX0lGGy66aaRsJopQpyI2QyBUgWgjZjlzjPMzRml9o0KmsFmBtettBEz2a25NVUXZJL+0CXVhDJn1o5wGzGTiapssjuzn1qKWtvw1tYcipgdkoCp1krKiIBg+BsxY7sEuRGofb9aAVIpM+5At9LwP7+jeiOpq8pQiRl9hQE/4+28qvhJB9X3KmHyFp/vprdHfd9wOh2uV/NUJlSRBT863KmKjNTxeVrKSbT5BCU/J6FdSHQk7Jt79Ss5/52uq0ODPFXfluQ/tFDN/VUrThJnVU6ftR3nh7wBK2lLw/+pYmZuzsxaVZA9LWQveyWBp9a3hDLn7+2RhM4sMpF0eFuWfqn6JWkiDrm9b9I7c9N0XIerH+nWbly7X53RzVLsUeHrZm6705pyuoDQteGbjnWynaHooXu32XVub7LErH6BkdDK5HwsnDKrXnh7ySyIvysbM1qtAITAWyoyPAqg9Nok1YoZFq6symi9VUFRzRkwRAGjKm0OOX1vNFbMECKBgwPiKBNuHKw9oLBagub+/MaMAOq7nVqZbeepHGi1q1Cmqm76PuLkWRgewt30O0VpnzoRM5m1AG2wNgV4DgGBoG+eu0hnBNqIGbtEfOhEItVIe2oR1dttveJMrxBn4wsGxxEysyTaPuna2ureYqtWxtJ9JHaCPCIh2TMHKYmovg3uu70SM6Sez6KTKij0y+xaU/cBafAcntFx/1ap0P5PbyV6BsmCn5BILy+kNbA9WbsWbJ10pO9o00tsqlWkdIxtCfRIj8RXUPXyS5XA9bovOf+drof08Ot1XGGC8ZEAAAMaSURBVOBtrWyPrxaT/D3ta+44smXMRcULOUIAkYz0O5XiCjKqogV3M31wTC90Oc63pFZodf11f8/H8XdikQKBBNT96j/N0UTMcntvzfwWQm3MQsJAp+wP3e9XurGbfnVGx01BB35NvyuaW1PVdpLttelCN8Ssk+0MRQ8nnXTSVrvO7c1/kphZFLbN0arKyGhkMWYz0oyAvzuuwsHxaZ91cvT1ViayICtlGGYWkECkwZtJHGr1bZoEsIy0ybmPFmJW/YFZmCDCKZD5bSFi3sIbrqoUcBWEvfGrrC3YIMVNv/yfO48T5UBVQ7UlOFnOFJlWbfBGlJmFNNjdZBRNxAx55KQEiOrr3c5XhkfeEVAVlyLNCHQiZpInQ+3eIKs7aEQEiRhqNV6FG6kSGFVDBC+zgVX7FdQMjtfntazGOcijYMB3VN+GbPMD9L7pB3Z9jjiZz6VvRiPMn3SqDqYfujWfRP8QDxU1uNXJisQEjvVWJP1lF3VJP9bqc9fVkhNsq7N3jiGkCKBhfy/YsNU6Me1H93P+2zXNjCJd1Razzz0ngoxsekGBfcI77WvuuLEH/pwOqqKKHfxH6pCoDqqowTj9jANCj1h5IcO9/bdJ6v5ey9N16Bf/Q7cRw+QTtV35vbokkty29wiJuCZp9BtzfubFqEWVsPezN93YTb86I5Gm/3VJP4icW1PVdrrRhRy+rtHJdtIz9qOH3dh12970TMz62ehyTkFgbCIgkAjATa/Dj83nKvcuCBQECgIFgYJAHYFCzIpOjNMImGMzbzYcvyQ/TgNVFlcQKAgUBAoCIwKBQsxGxDaUhygIFAQKAgWBgkBBoCAQQiFmRQsKAgWBgkBBoCBQECgIjBAECjEbIRtRHqMgUBAoCBQECgIFgYJAIWZFBwoCBYGCQEGgIFAQKAiMEAQKMRshG1EeoyBQECgIFAQKAgWBgkAhZkUHCgIFgYJAQaAgUBAoCIwQBAoxGyEbUR6jIFAQKAgUBAoCBYGCQCFmRQcKAgWBgkBBoCBQECgIjBAECjEbIRtRHqMgUBAoCBQECgIFgYLA/wDMQKTBn1RwyAAAAABJRU5ErkJggg==;imageBorder=default;" vertex="1" parent="1">
          <mxGeometry x="318" y="203.10999999999999" width="604" height="180.02" as="geometry" />
        </mxCell>
        <mxCell id="FJbFZdLH_GVMFSv8Vmyc-4" value="" style="shape=image;verticalLabelPosition=bottom;labelBackgroundColor=default;verticalAlign=top;aspect=fixed;imageAspect=0;image=data:image/png,iVBORw0KGgoAAAANSUhEUgAAAjEAAAC3CAYAAADjGQ8YAAAgAElEQVR4Xu3dBXRjx9It4A7cMDMzM3Nyk9wwMzMzMzMzMzMzMzMzM3Pyv3Dy7tf/az+NRpZkx2PPWFVrzfKMJZ3Tvbu7ateuOpqB/ud//ufvFBYIBAKBQCAQCAQCgcAAhsBASMxQQw01gA07hhsIBAKBQCAQCAQCrYzA//k//ycFiWnlHRBzDwQCgUAgEAgEBlAEgsQMoAsXww4EAoFAIBAIBFodgSAxrb4DYv6BQCAQCAQCgcAAikCQmAF04WLYgUAgEAgEAoFAqyMQJKbVd0DMPxAIBAKBQCAQGEARCBIzgC5cDDsQCAQCgUAgEGh1BILEtPoOiPkHAoFAIBAIBAIDKAJBYgbQhYthBwKBQCAQCAQCrY5Ay5CYu+++Oy200EJprbXWShdeeGGrr3u3zP+PP/5I//rXv9I444yTPvzww265Z9wkEAgEAoFAoHUQ6HESM9tss6Unn3yyD8THGGOMNPPMM6dtttkmLbLIIl2yGu+88066+OKL01RTTZVWXHHFLrnmDTfckJZddtm0/PLLp2uuuSbtuOOO6Zhjjmm79qijjprGG2+8/PrOO++cBhtssC657z+9yPXXX5+WW265Pi5jbFNOOWVadNFF0+67755GGGGEf3qb9Ndff6WDDz44DT300GmHHXb4x9dzge+++y6NOOKI+Vr77bdf2nfffduuu9FGG6Wzzz47vfjii2maaabpkvt1x0X+/PPPdPrpp6errroqPffcc8m3Z0899dSZdO+0005poIEGysOYfvrp87rtv//+TQ3riiuuSKuuumr6/fff06CDDtrwM2X/jjzyyOmNN95II400Uv7Me++9lyaccMK02mqrpUsvvbThdfqnNzijzuSzzz6bJp100rTKKquk7bffPpNrds4556Tzzjsv4843nHjiiWnWWWdtm8LTTz+d1l577fTqq6+m448/PvukYvyW/f3QQw+l4YcfPi2wwALpgAMOSGONNVa7ENS739dff5322WefdNttt6UffvghzTPPPGnvvfdOM800U7vXqze/3377LR199NHp6quvTq+//nqaccYZ05Zbbpn3xD+xRuP8+OOP0x577JHuuuuuNMggg2T/Zw38ndmPe+21VzrqqKPyHvvyyy/bhtOZMTe6n/lbO2tsD6yzzjpp6623TgMPPHBNGD777LPsV+68884kQP773//O/7Y/ikmEt9122/Ttt9/mvTXDDDP8E0jzZ/ktPu3BBx9Mww03XD7/zvroo4+eX/f7I444Ij388MNJjHReN9xww7b7fv755/nfN998c1pppZXSlVde2fbap59+mvfWPffck77//vs099xzpz333DOJv+1Zo/uVz1lL58CY3Kc9c5YOPPDAfF6s+2KLLZbnW/xMs/ervn5/Q2LmmGOONMwww+TxIRz+cDQcBefdP1p7JGaKKabI6sMHH3yQgwGbc84503333ddfEJlCYhyOaaedNo/vv//1RHr++efzoV1zzTXTRRdd1D9C3geJsV/efvvtNNpoo+WxDqgkZpdddklHHnlkJl5I+08//ZRuvPHG7BBOOeWUtPnmm6d33303TTTRRNkRNUti1l133XTBBRd0mMTAkoMUZNiASmIELcmQYIUIvPLKKxlbTpcz5TTnm2++hLQtueSS6ZJLLslkxJ7yE/bbbbddJuHIcyWJETAmm2yyjO0GG2yQAzHSKCg8/vjjNc9Oo/shiZdffnkac8wx0yijjJKDmnG89dZb+d/V1mh+kpHDDjssjwkhsqfefPPN/HOppZbq9PluNE7B6fbbb89B6qOPPkovvfRSxhvun3zySSY1ZS3Mq5LEdGbM9e6HdK+xxhrZ74ojL7/8cvZxhx56aNptt936wkDi5X3GPP7446fBBx88+3AJqXWwF9Zbb73sH60NQtAVJMaY+GJxz/0RKXsMgRI33GeSSSbJ+xD+iO5XX32V7r333jT//PNnYoCcuo73VJMY64/8SILGHnvsnNBTypHbWqS70f0KcK+99lomx65lLdsjMbBzBn/88cf8fsTziy++SEsssUQmXc3er9am7W9IDLIyyyyztI1RIOVUyub3gizm1FNPTYBDFGzCoqo4CJtssklecIsks+WgpptuurzJapWTgGcz27DYoA1z+OGHtwXFueaaKz366KPZiWOMt9xySyYjJ510UiYp7ZEY2U9RHmwSc8FCDznkkKxy9LQVEmNDX3vttW3DMVbZhoPL2XP+HLKs6plnnskH2Vw4I1kVBUEA5ig4iV133TVfTwZjg1JMqstJMhefv+OOO/J7qD+yItdlriHbgO1TTz2Vzj///MzwBfl55523jcRYf/tAgBdsapEYJNK9nnjiiXzgqUwyhgkmmCDPb9hhh80ZiT0m40XkvG7PUEBkLZzBCSec0KZk1NuDnV1Xh9serXSGsthzzz03LbzwwnmcxlGslOfqza9cs3zGeXA+6q1nUWImn3zyTMA5fApMNYkRuEtWR6EQJOHMmVau4XXXXZfuv//+HJgFmpNPPjk7T2uJgCIF8Gf1xtVZXMtect8tttiiLbAaJ+e//vrrZxVGQLA3ZKbO6JlnnpkJsd/xL5QHZ8A+sFeZ/et1ZAApYBNPPHEOQhx1Scgqx17vfhQiQXHcccfNJMq54b8QH+dJVl5tjebHnz3wwAPZh0kS7V2ZOlXYGeuMUYjqjdN+EWwFTWP/5ptvMhngC95///3sQ+F4xhlnZFXEtSpJTEfHDKt697OeYsJBBx2UZp999hzs+RGk9aabbuoLAvseRs4AP88WX3zxvEceeeSRTDQodcbv2n7fFSRGLLKXitopqPN7v/zyS/7j3BiXfchHFZJIJZSoiCu//vprHqtEaOWVV86kmlG3+HRY28t8d9mL7RHaslfau18Bjvr4999/57U1zvZIjPtYd/t84403zu81P2NDQpq9X60929+SGE4HYSmZJ4eIwduAQDjttNPyphKgbKpCemRVgPJ7xAExQpCqSYwA9Z///CdjwlHZNAKHaz322GM5gFsgB0BAcB2fwShtAKA3Q2Jcv9zL2DmVnrb2SAx2rPxl7oI8wsHRIC+ClHk4TDJ0Ac8aIBFMdiIz5JBch/MSfKtJTMEU0Vx66aUz6ZFxKMdZX+uNVCA3HIaMBGYcFZLFiXKIyngOD0f0wgsv5PJLtRKzzDLL5ABD4leSQVQ4MusrECNesl5z5mgdemU0RA5JIscKSPae+zXag51dVw6VcxeUkOUhhhiij0vJWo0dRvas7AVJrjc/a8MBWUPXdA/kp956FhLjs5tttllb/1g1iUFCkNfVV189B1d/54xkrBxT5RrCWxC2JwRla2ZP2EvOmnNqjeuNq7O4Vn+uOH64OQP2lwSGExxyyCHzGsBJmeC4447LZwAZkejAslqJUUKwF80FCROAEDrErZY1ul/1Z0r27Nr1ZP/yuer52ffKIMcee2zO0q0pn1VIW1fhWjlOJM6+KMHPPRBVvppvEEz5Beb8VZOYjo75sssuq3u/agWrrGVlclwPB4kW7PkdgVqpl+pgHoXcdAWJqR4DNQWhVQbmS7faaqucrJW1k3DZm1QNCWbZq4WkVSsxzqkYiND6HJKD0FDf+cBqU3asdz/vV7rncyWbEmK41CsnVd6jjFOSJiFo5n7trVN/Q2Iqy0lYmknaMJycAGWySIbsG0vmMP1EdhxSCyMwlQ3FcWKkZZGrSUzZgJXqSAkm7iNYLLjggjljw3Qx3kKKBDgZaLMkRiCh9CBYFIGetlrlJGMyJ8GGPG6DOugCkqwDcWRUDE6I1F0ORnHuDpLSzs8//5wdFkJQSWLKxvUesra6L+fGySE3ggGny5G5n/uSdzkiGMqSfMZ1rR/VDMEU1M2pmsTINmUnHKrso+wbxARRMDaEzcEzJvsMYRDABDLBX+mmEOl6e1C231lDwpAkZMH8KIAUP46BKsRKplJZTqo3P+dB+UkZqvTENFpP6hMV0TrJQgUIe97ereyJQe6cQ8EKubRWZ511VpaFrUVZQ6qF7IuiKslAcKyhNbWHKHnOupJHvX3WWVwrP4dgI83KGc40QmU89pU9wsr+rO79qUVivJ+fECwkQAwWHDKsalmz94OP/WcNKFi33nprQwhqzQ9hRNgqFQeKBMWpK6zWOJ0DAbfSrxZfW92rVovEdHTMzd5PTw6S7szriXIWGvUo8jPWll/gDxHySutXJMaelNAhwwXHUsKzR4t6afxiSiVxaI/EKOuJaaW9gZ9xvs2hljW6HwIk0VSyltQgXM2QGISn9JyZI6LkXDS6X7392t+QmOpBCmqCGMfAikOufh+nCQjBtZIkCMYyz/ZIjOuSIitZtPKUwMh5YIaFxGCrgolgIPiVZrSOkhibrjjMrnAinb1Grcbeci2HlaoiuPupnFNt5iH4IHMOBQda+pYKEahFYpRHEKTKLKFkFPpzSkMdEqPBkjNkDh+CY62ss+y3OHcSqwAvMFGJBNPiLH2Gs5LJIlbFHHrEiEMr9/UaRY7aUerMpZ5eMvN6e1AA/ycm81LaQHJlS8bOEAJkqhaJqTc/jqGaxDRaTySGs1cGkJ1RpKiH9gTcS3CnRiKG7s+ZFeMUZfyFxJRzJFPUm4L0Si6Y/h/lKvvEfevts9LY3Fl8qX32HYwrCTnHK9OuJjHIGeJVrBaJMW57XtBFwJAzZAw5EnzgU3pj9BxoBG3mfoKmxlO+hc+xF/kbJTljr8SaQsram5+yAwXVvkaSJRtIKVLk/PwTa2+cxrjpppvWJDFUL/6hWC0S02jMEk2+hwnAgnEz96OySk74KmsmMaVG1FqnMj6k15glF84BpYtiV6xfkBj3U0mQUHqS1rngiyXR+nAqSQz/ZQ8g5sXaIzESemeP2kt55heRUD7Vea/eW5TeevczHgmo8cKkksRQzIkLxcRVCSDzGkVQTEXWSmmz2fnV2rP9DYkpPTEcG5mWCsNZloNaHLIgU55OMSEZnYDEyXovp8Q4FSWCRiTGo7/IDnMYLGY1ibGhBGxWefCaJTEcEUJUxvJPnEdXfLZWOalsIqUBRI6VoCeIqlVXmkMtyCExlRkWnGzUeiQGzkoWDP4OVTWJKT0c3lPpLKpJjHV2TwGFKoPQloZIvxcAEAAHHuEhd1eSmMrHvwUvgdihJpF7qgHhqiYxtfagIN2VhiDoueAgCsEx/qLEwK3e/OqRmPbW09oXEmP+SKRM15nQT1NIjH0sGCBdzhi1RSCtJjFlDTk6pZRKVaH07FSSmPbGVZ5q6Qy+5YwKdhRbZKaYzJrSKygqD5S+BA6cIlWsFolRUuWAK8sSRalTgkYYSr+Zc8KvNbqfkpx+HSQW4UN8rCMz9son/GTWSrLtzU+AUqpxTQqp/W9cksMi4XcGT5+pN84yntI87f2lt1DQqnzqsZrENDNmvt95YIIh34CgNXM/n1ESEkvgKtFdYYUV+lqnalxKXOCz/L1YV5MYZEnbgsSAz7HHylOFRSWl9Fm/0tNXSrJlTLVIjD1u71Wue1Fl/ax+etTest+cgVr34w/4AD08pczpvdbPmeALkc1ikkvN1ZVGtXENvoGqqw+tvfsZfz3r70iMwZb6GKcts2bFQSgLIQQyeMRHliOwcfZALIe79C80KidxNOVxY+QJQ6wuJ/0TEqOWynlzTKU00Vnn0VWfq0ViHCDyIEMCKFVlo1c+yizAc/g2byknlU3KSSnL2KD1ykmlT8m9lCZkHtXlpGZJjGuUBkfBQjnI+Dkrh8y1ZbGybYTGhpe5ILzV/TqNSEy9PehJlc4YEmj/URHtO9gyJMHeLcS8KDFKAUoCJeC2Nz9KSiH+JUg3Ws/SE1NInF4lvSqyLLgiMZyNxME6e73ybFKuvKcoMc2SmNL71t4+6wyuPgNbZWplK/0uRYYv1/PkEbJRlAm46j3yqHvl1zDUIjFKefZdZdmknIfio6rH3eh+hTTKwPm9shfam3+9+RVC4LOCPiJYevMom/ZaZ63eOO0J+4V/EFCdN3tRic2errT2SExHxtzofrAUiClr1ofaa3zIUEl4K8ek/055VHJjHZnH6inDlY3dft+VJMYZlRgqt1Tfx71KQqWB156j9iG8JcEqc6hFYvQAKk8br3PAxCLnrfprKsp16t3PdeopeaWRvBJXKpgEST9pebpS4qmUbl8QLCSMjeZXa8/2lyTG5uI8EYBS7pH9cixkaMALTA4iwPQ6lJqa7BQYNoMmqPZITDnQ5bOu5RE0jo4TJ2GXclJHSUx5xBrgyIEFMm6bCevtaWuvsbc83liaWGUqgjMHiJkjBgJhybhLPZpDIIFTB6wHpaMWiTHv0thbMhrryMmWhrXqAFjtLKqVGK9rfDPOUtpAYmQwSBlnRJIljSK9mD+1hvIkGHdEiWm0Bzu7rqVchrCQsJW+kBT7Xwam5qyvwWvmCWtnod78OAtY23N6hczX0zP11rOaxJhP6Qvy96LEwMzeQF6dVeUmuMqMrR9SoiTYLIlBMOuNq7O4KhcgJMZblFTXEjzhW8pcVEBlaXsEOaPWeY9gomwiMAiEJfN0lo23kEz4cqQyZ/sTFrXOeb378THlu0YEs0oCQz1CsKut0fyKuoroGnN5wqb6+246gq8kr9E4y7j04/AZPlMCs4BVnuYqTezlUWfJq6BsHToy5nr3E/ARf20AkicJjPWlLNqf1caXOFf2NZUR+aJg+Ty/QvVHaJj9T3U2bnuI+lDvO33q4Qwfc1eBoFxVmvWSVBoLv4qYISMInD1lH/LpCAEfLNGgfMKFj3MulSb1IeoHotB5Dz8tTvp8tVHb6t2v+v2NemKQQ/4IuS4YGbvE0/7w+47cr/L+/SWJMcCS/VQ+0SMbFYAQAw7FgpReDJvOYee0yfCcP7DK0yi1HrGWganB2pwCCKbu37Ji1lkSUwkwhUjzk3q5zdM/WHskRtDknB2O8lgnPJEbZBLBU+ssUqEeITjLcqyDLNaaeC/n70DWesTa9ayHA8m5KmNweKwzJMbnlMCKMyzlLY7KYXXAZFcCVflODxKl33eExLhPvT3Y2bVFWowTSXKg7RmOlNTNASGRnArnZe2MWT9XvflxEHoyyLuae0nhlM1661mLxFA8kR97opAYvU1IqEBNneKAjUWQFKDUyjtCYgSGeuPqLK7l/FZ/3r40rxKIBDplScEZAStflOgscPzV5jwrpSE2yL1AAAuqj7JGvS9aFPhq3a/4p1pztbedkWprND/JAXVJLwcyIWAgQ5SFzvYZNTNO94WRZFD5yL7hV91TQqFMXctgbS90dMz17qf/xZm1ZwV5xER8UJZVYqxlks7yPUJ8opKNcwTv8qRerc8h85Xlyo7s2+L3an2mKBv8mnOmNGke9lr54sLyUEP15xEDpE3JxhpI1OGl5EMZrCz7VH+23v2q39uIxHi/tgolI/7BvhBPrAPBgnXkfpX373ES05GFrvdeNUKLJeOSRZUu6Oomva66X1znf2vjDjUlBglURlJrhn9ls1lgFQgEAoFAIBAI9AsEeg2JKU+WqFOr15H8ZLaVPS/9AsBWvqY6J+VFjVSmQjIkEftd5X+/0MoYxdwDgUAgEAgE+h0CvYbEyPzJ4fo1mMfSPD5HFgzrNwjoZYAvwlIeYVYWIrVXPkHWb+4eVw0EAoFAIBBodQR6DYlp9YWM+QcCgUAgEAgEAq2GQJCYVlvxmG8gEAgEAoFAINBLEAgS00sWMqYRCAQCgUAgEAi0GgJBYlptxWO+gUAgEAgEAoFAL0EgSEwvWciYRiAQCAQCgUAg0GoIBIlptRWP+QYCgUAgEAgEAr0EgSAxvWQhYxqBQCAQCAQCgUCrIZBJzH8n/XerTTzmGwgEAoFAIBAIBAIDPgID/ff/EQkSM+CvY8wgEAgEAoFAIBBoOQSCxLTckseEA4FAIBAIBAKB3oFAkJjesY4xi0AgEAgEAoFAoOUQCBLTckseEw4EAoFAIBAIBHoHAkFiesc6xiwCgUAgEAgEAoGWQyBITMsteUw4EAgEAoFAIBDoHQgEiekd6xizCAQCgUAgEAgEWg6BIDEtt+Qx4UAgEAgEAoFAoHcgECSmd6xjzCIQCAQCgUAgEGg5BILEtNySd92Ev/vuuzT22GOnJ554Ik099dT/+MKbbLJJGmaYYdIxxxzzj68VFwgEAoFAIBDo/Qg0TWIuuOCCdNFFF6UXXnghTTHFFOnoo49OM888c48i9Nprr6W11147jTrqqOmWW27pYyzGud1226VXXnklB9ptttkmrbvuum3vueyyy9Lpp5+eXGOGGWZIO+64Y1pooYXy63///XfaY4890g033JAE6rnmmiudeuqpaZRRRmnqdW+qN7YeBe3/3Xy99dZLgw02WDrjjDP6GM4ff/yRhh9++HT99de34dHeeL33kUceyftg6KGHTq+++mr65JNP0n/+859OTbERibGmJ5xwQnr88cfT119/naaddto099xzp9122y3Phd1xxx1pwgknTJNOOmnDMfh/N6644ooEi7DmELjqqqvyOTrggAPymam01VZbLc0+++xp++23b3ixrrpOwxsNQG+Yfvrp01tvvdXHiNdcc822M9rIp1VP9dJLL80JwQcffJCmnHLK/sJnd/dyvP/++2mqqabq67b8+TrrrJN/Xy8WVH9QPNhss83So48+moYYYoi0zDLLpMMOOywNMsgg3T21Hr3fFltskc4///w+xjDBBBOkl19+ua9x7bLLLunkk09O33//fRp00EFrjruje7vyIk2RmIcffjgtssgiaeSRR06LLrpodvwC3Ysvvph/9oRdd9116aCDDsrBCjiVJEZwmmaaadJGG22UgE0pWGONNdI111yT5ptvvnT55ZdnR4uILbjggumSSy5J++23X3rsscfyYT/22GPTeeedly688MI05phjpp122il988036cYbb8xTbfR6vbH1BFa17tkVJKb6utbjl19+yevSGatHYjijOeecM6211lpplVVWSeOPP3669dZb07777ptWWmmldOSRR+ZbLrHEEpmwLrbYYg2HcO+996YDDzww3XPPPQ3fG2/4XwSQj5133jn9+OOP6ZlnnknjjTdeGzQdJTFdcZ3etC72tERx3nnn7WtajXxa9QcQ/SWXXDKde+652eedddZZ6fjjj+9Rn90TayU4SnR++OGHNNBA/qvAPq1RLKh+P1+DsBx33HE5JiD0K6+8ctp11117Yno9dk9+WBLZaN5PP/10xufzzz9vl8R0dG9XT7opErPpppvmw1WycwFf0MCueiqLvfLKKzOxOvPMM3MQqiQxyIfx2cDFkBYb+eyzz04XX3xx/vvmm2/e9rosiFMtiyO7lwWxTz/9NE0yySTJglChLF691+uNrcd2XdWNmyUx1Cmk4aGHHsrqx3//r61M+Oaff/6sUpVykjkXIjH66KOnd955J3322WeZAD744INpqKGGSosvvng65JBDcgbDqECUlZ9++iktvfTSmQANO+ywNctJiOb++++fXn/99T5mgnh+9dVXaamllsr7AeFmDg4ievPNN+c19z5ruNVWW+X53HXXXWnZZZdtu1YpiXmvcSFNSmR77713niu7++6700knnZT3wUQTTZQWWGCBfIjLfPqXte2X40BiKJjULusvoSlWTWLaw977O3Kdfjmf/uXa1N/hhhsuZ/gSsGpr5NOq308tGHjggdMpp5zS9tJss82W+PINN9ywf5l2Px/HAw88kInGu+++W/NejWJB5Yf4NL6f4lzIO7+3++67pzfeeCPj3SrGX/O59lN79ueff6Z///vfmUxLbNtTYjq6t6vv1xSJsfnJRILFkEMOmW6//fa0wgorpC233DIdccQRPbpuRx11VF8kxqYScCtLJTZrKUVUDxihmWyyyZINaZMKzAjQxBNP3PZWJEdAE9TrvY6pF6s1th4Fq+LmzZIYxOCLL77IBFamiEzAgextU1b2xCCAJMWixAj+cFN2QGj22WefNN100+U9Q8WbY4450mmnnZYJDMJx8MEH5/JgrZ4YxEFGefjhh2eFrT3iYIyCLCUG+1fqsg9kYxQyJEYJzDpz8IJpUWIQYSVIRGWmmWZK1157bXZQ9sJYY42V98Oee+6ZlZ+PPvooEzQHmdrXKgavE088MZMXGMGWk2KVJKYR9s1ep1VwdZbsMSqikqgs39469NBDc59YR32as+KclJIJHO1T56aVes4Q6R122CH7A+0BKgcbbLBBxrmWVcaCakXspptuyklLZcmklKsQHMlbqxhyIqEXB7RO4Aj2leSmGLWKWq50x9/CtlbZraN7u1MkpmRd3377bf68ILDwwgu3Zbs9uXC1iILDq/Ql4BUDpuzEpqs2ioysUg1Zps85qyO7RjFZt+xev0e91ysDWm8hMbPOOmsmGOztt9/ORMShHXzwwdslMU899VR2HB9//HF+H6PIIAACHOfMWSvpFEM4HI72nCwC5WDIqhAgJMmaVJY0KknMX3/9lddTibCYkpT9IRutJjEUmhlnnDEHjGIIlvtsvfXWuffqnHPOSSuuuGJPbvkevffVV1+dk4H7778/OycYUrEkN5UkphH2zV6nRyfbjTf/8MMPc1CgGEscnn/++awg6tdD8Dvq0yRllNFKtREB5/+o6q1ifIZkWyltnHHGyT5IkkNNVr6uFwuqX3P2rUlRe72urDrGGGNkBY1fbBXjJyWskj4+npoisVPGpLq/9957uZeUn6BQwaY9Jaaje7sa46aUGAfiyy+/TNUkhtNXc+1Ja4/EjDjiiG3lDeNDYhCMSlnRBuQ0yIOydEGKLGiBLIJ/V5KYVVddNffQ1HsdUSrWW0iMjLBkLjas/aBhWlbTnhJTGjdr7Q2ZDKKiNMUpFKPkjDbaaA0zRcREVkQFcHAqFcFKEkOip6pQ2Cg/v/32W74V524vVJMYTakvvfRSX0OWzQrYHKHPynIRNPtAhtFKZl2RGDJ9kYsRexaciZoAACAASURBVKW+ShLTCPtmr9NK2FbPlUKIRFNCt91229SMTyvXmHzyyXPD6fLLL992WSQGWfKQRitb6YOrTKBqxYJqjMQ6PgdhKVZIjHJ1q/mCSnyoLPpTEW5tA/YtEiMhLIlvPRLTkb3dKRIjO5ZZkzhl1bfddlvORgU2GXVPWi2i4MkiB18zWzHlJEGrsGikTBaPqNicJFtmMTTzalrkCIopi3gigyJT7/XKzKd/JjGykN9//70vEgo3yps1JqfKCjtDYhAH5ZZayhdM7R0NXZVr1CyJqdxvHDIlDTlFgCpJjNf22muv3Ls1zzzz5CCAgAi2tUgMSVSZrV556Oeff85KpCZv3fnKYchtq1gl+TBnmZc94iciA0OJQSPsm71Oq+Baa54lYeB7ZbqNfFrlNaiHyLfSSTH7Ws9ZpULdivh6GolfKE+CtRcLqrEp5WaJbrFSTqpW7lsRV0o6X6y3S5JKhcEXGpGYZuJ1PTybUmLKI1LUCmUkh0BARwyWW265Hl2vWkTBU0g2KbWgmHKAx3A9kSRL9BQL+RbY1V3rs8wySy4flEey9XMgNDY90tPo9XLP/pnEUBXIyjKIyjql4LLxxhvnuSqndZbEcLzIr3rpuOOOmyGhvBSSiPwWMlDwqldOQkCtH+mx0kr5j9Ki2baSxMhe3bMQJZmA98jEapEYyiIiRL0phhxRm2Dk75qDizkDVCVPOLSKVZMP89ZnVHoCyMZITCPsm71Oq+Cq70qpVL+RrytglAIJhCArqajn06pxkkDY7x58KKY0pZ+tlcqhypYS0lIOh4WePdhq1G8UCypxVQZ3/vkapRSmBcG6IfGtYh7E0Gek6qC1gpVeIokdTCSxtYySVR6YKa83iteNcG2KxDz33HO5MZKD94g1JiuYc+Dl+zka3ahfvV6LKHjKxXcDCHhKDYKlDFtDsoMsIMoUC1OsHhtHAmz1VM1a6n7qeqWW3Oj1cr3+mcRo0ib3USg4PPViT+yQnKlJpGjWERIDJ6QByR1hhBFy6Q1+Gnk1LSLDnIZDX/YUnBFKMqR1IUPW6onRSIrlkyftQX0wCJi1UOYsCpv+HUGVpOl65sRZKSV5+gypMi5Nxq7JudkfvvPGNWSuSkeaVd98883cw0N1sf7OAMJCzaEiUWDss1bKbGuRD3sJAYURhQ2J0XNQD/tmr9Ov/Eb/dl0Y2rvKlPa4gGkfw9U+buTTlL+dBSTF2dMI7+xSmSUTFEOERmLX0z67O7G/7777sk/hzyiw/i1BVRYWTBvFAr4BwSxtAquvvnrS76WkShnzIAJVu5Wa+60fcm1PwhUXsGf5Sz1H1Q9d1FJixEZ+XAmu0d5utF+aIjEugri4sZqqbEsg6opvaW00wPZel3E7+NVG6pM5I1gcqp+UAAFU+YgJYrWYc+mtEGgFOSwe6xS8OIHynTiNXm80ts7Ouas/R66myNh4vqSOE0Uo1l9//TZ1qiMkRoOnw+7JMBta+RFxcH0bnTOVBZVNjiwo9VA4SN9KesiGMdUy/TMkXeqL7NT+87SYx/xKEzYyZO0QNI7KYSuqEkXm119/zfuiKG3UNuRFpqsnRvOexj+9Nkoj5uOwMX04AgGVSSM4VdL7RxpppK5emv72erXIh8FaG7haXySGn6iHPRJaemsqJ1t9nf4WiH4wMAQbfgKt/ayfhdReSEc9n/bkk0/mBnTnTsLAZMMSCGvhrMC7J312P4CsqUveeeedOTF69tlnc98GP4/QNBMLfCeYioMzz6hbfAKfwV9RtSiytb6DpqnBDaBvkjhKAPljJXa+HaHR5FxttUiM5JafL+tQb283gqhpEtPoQvF6IBAIBAKBQCAQCAQC3YlAkJjuRDvuFQgEAoFAIBAIBAJdhkCQmC6DMi4UCAQCgUAgEAgEAt2JQJCY7kQ77hUIBAKBQCAQCAQCXYZAkJgugzIuFAgEAoFAIBAIBALdiUCQmO5EO+4VCAQCgUAgEAgEAl2GQJCYLoMyLhQIBAKBQCAQCAQC3YlAkJjuRDvuFQgEAoFAIBAIBAJdhkCQmC6DMi4UCAQCgUAgEAgEAt2JQJCY7kQ77hUIBAKBQCAQCAQCXYZAJjFDDTVUl10wLhQIBAKBQCAQCAQCgUC/RsD/YRckpl+jHNcPBAKBQCAQCAQCgS5HIEhMl0MaFwwEAoFAIBAIBAKB7kAgSEx3oBz3CAQCgUAgEAgEAoEuRyBITJdDGhcMBAKBQCAQCAQCge5AIEhMd6Ac9wgEAoFAIBAIBAKBLkcgSEyXQxoXDAQCgUAgEAgEAoHuQCBITHegHPcIBAKBQCAQCAQCgS5HIEhMl0MaFwwEAoFAIBAIBAKB7kAgSEx3oBz36GcIfPfdd2nEEUdML774Yppmmmn62X3iwoFAIBAIBAL9HwIdIjGff/552nDDDdPNN9+cVlpppXTllVf26IzeeeedtPfee6c777wzjTDCCGmZZZZJ++23XxpmmGHyuIzvpJNOSs8++2yaYIIJ0iGHHJKWWmqpvsb80Ucfpammmiptv/32af/998+vf/bZZ/na99xzT/r+++/Toosums4888xU+c3Gfr/OOuukG264If3+++9p0EEHbbt2o7H1JHDTTTdd+uqrr9Irr7yScSv21FNPpX//+9/pv9/g3E+G99tvv6WZZpopLb744unII4/s4x7uPeecc6aHHnoozT777E3f/5+QGGs85phjpkUWWSTdfvvtfdzzmGOOSffee2+68cYb00UXXZS22WabjNcYY4zRx/uWXXbZ9Mcff+QzEfb/Edhqq63SySefnB5++OE011xz9QGNPXfbbbelkUceOU0//fTp8ssvT0svvXQf7znqqKPS8ccfn1566aU0/PDDtwy0k002WXrzzTf7mO+6666bzjvvvPy7xx57LB1wwAHpkUceSRNOOGFaf/31895sz+zdww47LL3//vtp6qmnTieeeGKaddZZWwZPE33vvfcyVtV29tlnpw022CCdf/75ab311uvrdeswySST9PV7PgfufNWQQw6Zll9++cRfDDLIIC2F60YbbZRgWGlwFvvY33//nfbYY498vn/99de0xBJLZL9fGXMqP/vcc8+lLbbYIp/5ccYZJ+24446ZbzSypkmMBVt11VWTD1jEniYxP//8c5pyyilzAAKUjbrTTjulGWecMZONJ554IgdDIC+33HLpuuuuS9tuu2165pln0qSTTtoHLl7nHDbddNM2EuN35nrEEUek4YYbLm2yySb5ILg2e/XVV9Mqq6zSdo9KEtNobI0WpV+/jsR88cUXefwnnHBC2+36NYlxo8cffzzNN998yb2mnXbafO8///wz4zj//PMnwasj1hUkZvTRR8/OfeWVV267dSWJ8csll1wy74NLL7207T1XX311cpAdurHHHrsjw+7170VirrrqquyMrHmlgy8kZo455sjn64wzzshKmoDAPvzwwxxwYQ33VrJRRx014yaZqDZBdYYZZki77bZb3nd8Mp91+OGHp4033riv9z/66KPpP//5T7rkkkvSAgsskE499dR8vt5+++2WIoaC48wzz5yTjYEGGqgvnPjAm266Kd1xxx1NbTWE234+5ZRT0jfffJPj4uqrr5722muvpj7fW97EX0pC2pu3veZsIzH843bbbZdj6MEHH9wXBGLtxBNPnDbbbLMcp+3dFVdcMd1yyy05LtSzpknM7rvvntmULBpxMIErrriix9aDeiI7Ma7iIGV+NtbLL7+csxVZYGWGLaMBJkWmGIex77775k0OYEoMxYCac9ddd+WAyzgQC/bJJ59kJnn//ffnrPzLL79M8847bx9KTKOx9Rho/+/GSAyGyxk+8MADbZlZNYn59NNPc5Z33333paGHHjqrWDbmxx9/nDOUH374IQ077LDpr7/+yln12muv3UaKKGCIIwyrjeKFZHLCnIqM27pxNgKZz55++ult2SN1jRLGZPUIpgBnDEhlZTnJesg0EVqBtJ4VJcb9ZAgCqfmwahJjzkizPb/YYoulH3/8MQdaBNrBC+sTAdgPPvjgWaESaK15sUoSg8BaL5iWc0ndcv4uvvjiloJV5krNdQ4Kwa8EgGOHif1aDJnxueqM2OtUhoEHHjidddZZbe93XWtjTVrF+K/VVlstq+u17MADD8wx47LLLmsICQLI70iaxx9//Px+n6MaIN/wbhVbeOGFsy/ecsst+5qyPTn55JOnY489tqlE5Nxzz83nv1KFdF3VDmpiPWuaxPz000/ZsQg8gnZPKzHVkzJZDHnuuedOhx56aC4rkVwr2bXy0NNPP53ZHfMZfRRAAqJNicRg7IKpAFwyIsSGUzZ/9yhW8KguJ1WOr3psPb3JkZiDDjooq0933313/olMVJMYmTJlC9lBaPyUCR533HFpookmyuUCpBYh2WGHHdIvv/ySr8FkJhymIF9t9pIxeA0xIqHLhBDGom5ceOGFeZ8hKzbza6+9lhU077FpHY4pppgi/etf/2ojMQ7NggsumMdcqTC1h3chMdQce2e22WZrU4KqSYxrmK/7cnh77rlnnjcSGNY3AgLlEEMMkTg6ip9SXFGrKkmMTyr3OlN+vv7665lgW2/EuJWMn4CNs3TrrbfmLB+hO/roo9tK5NV4yFIXWmihmtmw/YxgIzPFkB7rUkmEejvGyv32I1Xv2muvzSoUEgdnJuF5/vnnc6uA5JQ/EkOoWNV2/fXXZ0JeSiZeL+UqPrK63NybsaWea8N444038vnWDmBfiQ2S/XHHHTcnp+IFX8vXe71WeRgJ/Prrr9vKpnBT5rP3X3jhhbowNk1iylX6NxLD2cmQmTqlzJwyU8app4WU6t8Os40q02GCIwAQGDXRQmK8JjMUIAVVBEbQIo1dcMEFfZQd6pGY9sbW0xuboiT7EGAE/l133TVjUUliBGgO8ttvv83kjTngNiIVghPQT4Is2mgyatngk08+mcsuApaepOp+iDJ3ChnlxkEYa6yxsvLC9DXpX6okIciU9XAvJAaRKq8Xx6+kg2BwJPpYmsmI9HhxOkjMBx98kGaZZZa2MlctEiO7gIkSCdKFENeqmff0+vYP9996663zvqHcITHWo2S61STGeJ0vSoN1sM5rrbVW/zCNbh2DufNBu+yyS04OkLrTTjst95FVljHLoDh5iZkAUvoAKwcsiFA5V1hhhbZfu/a7777b4/2M3QmshAh5U04bb7zxsrIsmMr89WBoFfA7wVYCi6jw83wZX1NpYgBf5ewX4w/5POtV/f7unGd330sSibDsvPPOWYUSR/1EOuzJopqLNZJ8MVYiWmsviwWjjDJK9uHF+FgxnbpezwZ4EmMCykYCrNqvslBpOD7nnHNy9qwPRlYiS3/wwQczoaE+yL5LxldNYjgUwV0Doo3NyeqbIM1yMMXqkZh6Y+vuDVd5PyqIjSXLQ9LU0206ZbDS2KuOSYKtZbIQKpeDjoxobJPVOOBrrLFG3tiIh81X2excfS2ByudJiKXZi3rDsWy++eZtb7c2CASnjcQgUpwxKz0xMi3OBeMfaaSRmoK3KDGImvur2XJc1tRhKo29lRejFDi86rq1VKambtwCbyrlJAS39LiUUlwtEkPFU55TF2+2N6EFYMxqsGSDeqmky5wFzboIioDbXiO8gI2MU82LOTeafJ3vVrZ99tknPxCCONcyKjBlQc9WpUmSqQsIS7FCYqg5fGurmvYCySuSoiwv4RNfJcqMoEDdEhdL/1vBConht+3pYkgMVVayWc8GeBJTOTlkZp555smTHm200fqat3KIAIzsyLrJiCXjqyYx1R8uG5WKQ8ko1kw5yXsbja07N34liXFfpAxe+l+QBE8nyZpl0+2xYBhTIRAASgrSh+D5vWxSLwTptp6RbL2H6lOsPRLjdT1QxqcOW6TgQmI4cgfH2jTbHFxNYqwxVU9J0YF06Kg61TbYYINloowEhtVGoJLEeIfmU5kaR0/9Ui5BdCvNPiRPIz5h/4uAxIKiooQJGwmVEhF/cs0117Sp0LXwgi/1mdJQjCLhnFRmvK2Itd4ihE6vWy2DMX9Q3ZfFH0iyEPNipZzkic9WK4FWY2ePiiOqH5I9OFGuK/eyviKJbqVRc/hjqlkxSSvFvVL1qrVWAyyJ0deipFH5CGZ5IslmIl/JUkoDm8MvQNqc2GCtxjkAkbvU+GSDMkYKDitNxIK1MlOxWiSm0dh6eqNXkxibyubj2GwmJKZgKWuT0TG/V75BWpjr6CRHCvXWUDGoEzYtCRwJqme1SIxykg1O2i1mDahmpPP2SIxSGFxl8xwN1a2RVZMY73eI1GeNHQZBYhqhWPv1ahKjJEslpQpQzATgIDF9YidB0mBO0Syqi3Ol58XZUwr3JAgFwe9rlZAqryiYOK+CQTFZMRVWia9VjALIP1SqKh7moHIhgx4CQRSVLorxH/wOxavSJGn831tvvdX22LaeSuuGoLeKUQadcX8IAkzix/dLgD2I4UEZJbzyhGFRYqiupUWh4CUpLKXO8juxW8KoAlLPmiYxCIFaF2ZFUkMCPKGE1ZPhu9s0DgmiShkUFgAq+Xi8WRlABqNBi9pic3qP0hAlphaJqFZiBGdERoBWQyZrYeDVj4fVIjGNxtbdWFXfr5rEeJ36YMPJPsr3xAgysmaEojwiR8omp7LyKBxSiJAgit7nMzKYRl8+V4vEKG/ZvMgEObeQR8SSo2mPxJQvuzM2zorc66kl0ibnX0s1qUVizMt8ZL6emgkS07ndWk1iXMW55NA0liL6QWL6xFby5czASLnD/qSi2IdUTmVxGa6fym7Vxk8pHyEpEjBJhfPChwnKgoEz7n2CQ6uY4KkkBxvKOwIIV6ULT6zCS9sBjO1JfUh8E5yRPj4ewSxPO+ox8kSm9/mqCnFQT2G97+vpjVgj1wgJXCn5kj/ldoTRGUcOKe1ItMTfd6pJMst3HsHYXhePXAfpITLgE9o+PByiTURC3CUkptYX27hw5ZfbdPdCIVWAKl86pAYnGBflQCBFPKgyygw2bVFWqsdaTWIwTWULG155xN/J3OVxbhvX49nVhpWvueaamfDVG1t3Y1V5v1okxuPzNpjG2EJi/B1R0fRmk3KECIINyswfDohHaR70Hj0ulXJre3OtRWK8V9MdB0EFsoE9SaVGzRqRGO8xBgTGuJBcDWPl+30qx9IeiXEQkXTZRJCYzu3UWiTGlQQR51IvQpCYvrH1/VMIDL9j3zpfVAOkQ49edY+GK3gaT8D1fTwwlcCVJ8Fkxc4PBdmepoI1Si46t+L996cksEqaShOIiUDJTzOJGYKn3CnJpSx4b1EYYC4QS2wYdUti7MlESbzvieHLan0HTf+Nyj8bnVYCe5OPpIbwuwiNBz4YokdEECckuNR0rxeVEXb8fFkHVRUJrIRUDKc6tteXWTnyppWYfzbd+HQg0DMIOBCck8MTFggEAoFAINC7EAgS07vWM2ZThQCpmPIUTbixNQKBQCAQ6H0IBInpfWsaMwoEAoFAIBAIBFoCgSAxLbHMMclAIBAIBAKBQKD3IRAkpvetacwoEAgEAoFAIBBoCQSCxLTEMsckA4FAIBAIBAKB3odAkJjet6Yxo0AgEAgEAoFAoCUQCBLTEssckwwEAoFAIBAIBHofAkFiet+axowCgUAgEAgEAoGWQCBITEssc0wyEAgEAoFAIBDofQi0kZjeN7WYUSAQCAQCgUAgEAj0dgQG+u//lfN3b59kzC8QCAQCgUAgEAgEeh8CQWJ635rGjAKBQCAQCAQCgZZAIEhMSyxzTDIQCAQCgUAgEOh9CASJ6X1rGjMKBAKBQCAQCARaAoEgMS2xzDHJQCAQCAQCgUCg9yEQJKb3rWnMKBAIBAKBQCAQaAkEgsS0xDLHJAOBQCAQCAQCgd6HQJCY3remMaNAIBAIBAKBQKAlEAgS0xLLPOBM8vvvv09jjTVWevLJJ9NUU0014Aw8RhoIBAKBQCDQ7Qg0RWL+/vvvdNxxx6Urrrgivfvuu2mGGWZIm2++eVp22WW7fcBueNddd7V77/fffz/99wv8agbAU089Na2zzjp5zOeee24655xz0ttvv51mnnnmtOOOO6b5558/v/bTTz+lQw45JN10003pxx9/TPPNN1/aZ5990sQTT5xf//zzz9MBBxyQ7r///vTDDz+khRZaKJ100klpqKGGyq8/88wz6fDDD08PP/xwGmGEEdLaa6+ddt1113+ElXtONNFE6cEHH0wzzTTTP7pWsx9eZpll0r333pteeumlNP744zf7sX/0vu4mMXfffXdeK/vg119/zXthww03TOZebQ899FBadNFF8x6yl8LaR8A67rvvvglmzuQEE0yQFlxwwbT99tunMcYYo48POq+TTjppGm200dKzzz6bBhpooJaElp+F2dVXX533or128MEHZx/C+CJ+lw8Yd9xx09JLL13Xr1x66aXpmGOOSR988EGacsop09FHH533d6tZI9z4N/vST77V+V9hhRVqwvTdd9+lzTbbLD366KNpiCGGyH7isMMOS4MMMkirwZquvPLKdOSRR6ZPPvkkzTvvvGm33XZL008/fcP4PMooo/SF1QsvvJC222679Morr6Sxxx47bbPNNmnddddtCtOmSMzpp5+edthhhzTssMOmySefPAfpv/76Kwf5BRZYoKkb9es3nX322emSSy5JghJA5p577kwwajnEM844IwcuB3zOOedM5513Xjr00ENz9j/JJJOkjTfeOP35559pv/32S8MMM0wmcNddd112sDbrqquumvyfDRwMTLbeeusc5E8++eTsaDiK5ZZbLi+K4LjpppumvfbaK62xxhqdhqG7SUwhqw7pFFNMkfbcc89Oj70jH+xOEmMfcF4c1uKLL54crtdffz35/YorrpjXv9IEEOt+xx135PcNN9xwHZlay7xXEjDPPPMka+lsTDvttOnLL79Mjz/+eLrtttvS7bffnklNsYsuuig5v99++20+ayWZaBnA/t9EzV1ydcEFF6QxxxwzExR+pezDVVZZJQ088MDp+OOPz1itt956ae+9905LLrlkX1DB2u9dTxJ21lln5c+9+OKLafjhh28paOvh9vPPP+eEl8/fcsst01NPPZW22GKLHIgRxWpbaaWVcgywVt98800OtCuvvPI/TlIHtAURK5daaqm8r+wvgoCzfeutt+Y9Wm2V8bn6NT51mmmmSRtttFHG/oknnsix8pprrsnXbmRNkRgZlEPh4lNPPXU+VBgY5uUQ9bR99dVXabbZZks33HBDBuOBBx7Im0sgrmWXXXZZzgYrneWEE06YGTWCgo1TZtZcc8388TfeeCPNOOOMmaljiTJGBI6jZm+99VaaY4458s/nn38+2egff/xxGmywwfLr559/fuKo77zzzk5D1QyJOe200/JmKpkX4kElYsgdtejpp5/Oig7yyUnKJmoZpQkrpjrstNNO2fmVbEMQ33333fPvsXE4Y+JHHHFEvt7vv/+eSQ/ljoOwT/xB6jgUWaaME4YyG4RTljjOOOPkwFdZTqr3XuOmiMhcX3vttbxGyy+/fNpggw0a4vzpp5/m9wsE1r3SXOuoo45KJ5xwQpu6ZpwIvEOK0PucP2F9I2BvCMT8hfNSaQcddFA+o0h+scUWWywtscQS6bPPPktffPFFdoytZlQYCrfkCh7V5kzPOuus6dVXX00jjTRSQ3ioBYLJKaec0vZePlJCRWloFWuEm8RXkk5Vb2TvvPNOJuTWYLzxxstv5//sdzGiVvBudM0B9fWtttoqK4TOcyOrjs/V77/wwgsznyA+FJNcEiGQn0bWFImpvkghMZQIgamnTYb8r3/9KwcddvPNN+dAwxkgNjIPgY1EVcsuv/zyHGRJ35zuHnvskR2qADn44IOnE088MZMQr1N2Rh555ByABW7222+/pRFHHDGzd0FXIEU6ColBIBAbzL2zUnkjEkMpkkkIAHPNNVc+XDYC9Yi6pBSGWBjHRx99lAkIJo35VhuVjbyPWMjm/N1BJ28z81x99dWzrHrggQdm0uKem2yySc5ozjzzzOyMKVwCv/0CL9dzf/galwMAS79HrpTfbNxKElPvvdQQRNTcBUZEC/H07+mmm67utvSe9ddfP5c6mlFUzAm2yLws7MYbb8zEMKxvBOwFiU8zDu7NN99Ms8wyS04A3nvvvXxmBYtWUwuQ6skmmyzvLYqu804ddDZgISGgqgii1157bUJ6kBF+q5ZPkcHKbEv53Co565IMCnSrWCPcxC/J2Ycffpj9O3JCNecbq40Pk/i9/PLLbS/xHxI1e3b00UdvFVgzoaaWXH/99TmBlPjbq8qW1VYdn6tfRwK//vrrrIAXu/jii3M8528bWYdJjDqrwzDqqKOmRx55JEvwPWk2j/INBaSwY+xaQCefyu7VkAVhwVSgLeaQm4+gifEV6UpJSKb42GOP5bfanKQtmRLTC4Q0uQ8Cs//++2cFRKDjvL1PgOdgHA6sVeCnWFBxOmONSAxJk/RMQSgmwC+88MJp5513zutljMokjQwJhJ8AY54+7/6ya1Z6kjjeQgDgqrRmI8MHBnBhApRaKUXK/eFNDfv3v/+dXyfpUsIQC4egkJjy9/be+8svv2TlTMbf0Z4dwcJBIYs2Y1Q3KhIirDSCGJKeEbywPhGw1wRieDUyJNUZtsZs9tlnz+TS+WklU6LnO/S5ULclBlQT+0wywKFTRyVn/JYkwJmTmFT6tIIZQiS7rexb9F5BV0LWKtYIt9VWWy3HMcQO/nwCv833I4yVxn+KE5KtYmIFVV+PTKPEqTdhrtxpb2rD4APtLZjxp0MOOWTbVGvF52oc7GfJrMS3GMWbD7BfG1nTJEZ2TnkhvcsMZKL9Q5MYYiKDc9DrGcXgnnvuyY2qxciCnIGgrZ7nD4apR0Lw5mBJZq7tj6AFbMSEo1Ee+uOPP9Iuu+ySVRvS7SKLLJI3ucW1HSyNpgAAIABJREFUsZE8gc97BL/S/NtoYapfb0RiSMVUEH+KcW4yNuQKoePUEDXZrlJK9SEtn3OwEULlIcbBIkOUD/NBYmR4GrqKmSMsYABDvRCVWSCS4v7UK+WsWoZocuKFxMC63nsRN2TLOujdMUbzqlXLrr6fscjSmiEx5q/8howJ0AxG+jqqS1EdXdfe9n77DbHl7BuRGIGaI7Q3S3lJ0KEiSjxayczXueSPEBB23333ZSWUHA8XQdQZLMYfK4Mo71YbBdTepAoXE2j4rpKMtAK+AmM93PgbSWplCRPmfFh1TxwljFrArxcrJKYW6emt+OICElbtCRIOpg+O2o8ElhYGv28mPiMxKhl8cjEkhljSXktIJbZNkxgBnbPhdAQbPSD9gwlaniQivdYzmR6ZUCCqZQ67RcDCZfXVzLqwToGz2hptZI2Msipkq7PWWRLjfkWmo3jIOhBQqogeGkpGpSmjcYAISbUhZshKIxKD3JJpPZVVDH6cKkUDzu1lLpU9MWr/9d5brk2K5Mypaggk518CQXt4F7WumXKS7NeerzaEzn5CeMP+PwJUOHJ8o3LSVVdd1e4TCN35FF7/sHal787P0kekr84+1otnT5eetjJePg2RUUatNiqsJKKyP0xQEHwqM97+Ye79cgyIRz3cBFCJZWlFMBY+jsLOP1baLbfckv2aNSpWykl6byRdrWJiBKVdMleslt9vJj7jFtW9cMiQhLhS9WoP26ZITHE2SgL+LlPuH0wAAZIAX6lwaPSUPTvgxThUKow+BlmfOjxSU0zWKLPWcKrko+5MVSnGmTj8yI5rUKNcg5FnPYJdsiTBVP9IqZGqCer1sDCdtUYkBrmidhT1xH2oLhomlYMwWkSiGGlabVc/UKUpR5lP5aH2unKabMOfRiRGAFMqcl9GgYJtKSeRX4899tg+ntaCHYwre2KUk+q9VzkJgVEyLCabRWi33XbbulDLbj11pQFcCazSnnvuuSzR2wOICrmU4uNJtmKeXoM5gtje45idXesB/XMyftmvvVJd5hM0rDNl0jkUVCvVQ3O3NxGhytLogI5Jo/HbT3orJIqlsbcoMXrpJEB6jZR4S2Ov5A3Zk7VWm543CQEVthhMKcjNlJQbjXdAeZ1fqYebfUpl9zBIMf5LWbP6oRU+mA9FGsvTdXy90nQzvRsDCmbNjNM55ptLokKJgY3kUFmOtRefq68vtojFHiQpRsnXU1rtm2uNrSGJIR2R9AUizZOVPR0IBIfTU0Z2lt1rCq00h59M6DVM0b+BQq7S+IlwIBQadilKpf6mSckCcK6civeRFW10fyf1KicIzogMls+5yHA44iI/OgA2OdKjZIGxunalzNZRzBqRGP0kMgiyqNISIoKQ6RWSVXgCCGFBbDzSRoHhNCuzsvKEhAzO01mVRob2ftK17/WoV05CUJTXyNYavhAKJTt159LY6zql9MQRWAskU2N0dWNve+9FMpA2yhIiY4zIk/vrBYA9clurSc/c9G0Ipoie9yOdsiyBRH0bYYejoOz3mrwrTa+TbNk4wv4/Ah7/tQ6Cr7WX/BS1DKbOgpKfJx2VAqtVXY5QEFZPb+/pud6IN6XTgwiIMXWPT0Hki5LKp/G/yItAqrFXmdxZ5IecIYFXCZxPlITxUdaCqoDQCBTlgYPeiGGtOdXDzVOHzjq1FY72Hr9JsaY2+OmpmdKj5YEGMVGSRz2gNkt4aj0g0ZvxpXyLpcrGeAAfac/Bq5zZ9uIzXCQoEn0tDZJRsQUxkiy6hic/VTBKH2o9LBuSGGWF9p4UkPFySj1lDi0WV9nnUsbCOQqaiEfJpIv0haAIYIK673FBztT2yiPVSiqcg4WyyZECxKVk4lina7mv3hGHhAMqjyCXp2SoHw4CclHZH9IZvAqJqfVZkibFgKOyqUibFh/xQl6YznpOTF+POekfQc4qH9fUMyRLw6BrSaOUB4EeyatHYpStkEbyK4ONTYvMUS0QlfLEEixJ3zrUZei1HrFu773lMOhlss7WlUNBzDyxYY3Mw1q3ZyR5REjGhqBS1xwgdXHXsMc5uVoSvH4apFd2XP0Fbp1Z4970GfuVY+MfrAvCQmFQVtUU6HxZt1pysf1hL9g3/+S7lQY0PAVH0jpSzO8i1xKxoYceOk8FKYQfJ2+vVj5xaS86R/ZiUcoFEXsbuYe/wOtnq1k93GAh0UO2PWVj30nMy9dvSIgkvPwm458QGvvWd4jxl97f2adOB+S18Gg0FUq8FCNhVfn9T/XiszgiWSwxWVVAnPRTgiO5rNW6UQuvhiRmQAY5xt5/IFCICUWlkKruGJleAkpKNN92B9pxj0AgEAgEuh+BIDHdj3mvvyNJVi2TND7ooINmhq60I+PRA9FdhrxQ2dorJ3XXOOI+gUAgEAgEAv0GgSAx/QbXlr+qL4XyVIDHbfUIkQc12IUFAoFAIBAIBAJdhUCQmK5CMq4TCAQCgUAgEAgEAt2KQJCYboU7bhYIBAKBQCAQCAQCXYVAkJiuQjKuEwgEAoFAIBAIBALdikCQmG6FO24WCAQCgUAgEAgEAl2FQJCYrkIyrhMIBAKBQCAQCAQC3YpAkJhuhTtuFggEAoFAIBAIBAJdhUCQmK5CMq4TCAQCgUAgEAgEAt2KQCYxlf95YrfePW4WCAQCgUAgEAgEAoFAJxDw/wAGiekEcPGRQCAQCAQCgUAgEOhZBILE9Cz+cfdAIBAIBAKBQCAQ6CQCQWI6CVx8LBAIBAKBQCAQCAR6FoEgMT2Lf9w9EAgEAoFAIBAIBDqJQJCYTgIXHwsEAoFAIBAIBAKBnkUgSEzP4h93DwQCgUAgEAgEAoFOIhAkppPAxccCgUAgEAgEAoFAoGcRCBLTs/jH3QOBQCAQCAQCgUCgkwgEiekkcPGx+gjsueee6ZVXXknXXnttzTfONttsab311ktbbLFFQBkIBAKBQCAQCHQKgaZJzG+//ZaOO+64dMkll6T33nsvzTzzzGmnnXZKiy++eKdu3BUfeuedd9Lee++d7rzzzjTCCCOkZZZZJu23335pmGGGyZe/8sor00knnZSeffbZNMEEE6RDDjkkLbXUUn3d+qOPPkpTTTVV2n777dP+++/f1+tXX311WmmlldJdd92V/vOf/7S9ftlll6WDDz44ffzxx2n++efPY5lxxhnz643G1hXz76lr/PXXX+nYY4/Ne8E8YT/33HOnHXbYIc0000x5WI1IzFNPPZXGHHPMNPbYY/fUNBre9+mnn06zzDJL+uyzz9Loo4+eLr/88rTpppum7777ruFn4w31EVhhhRXy2p944okZX3vhySefzHiH/S8C2223XTr++OPT77//ngYddNAO+bSC4UUXXZQOO+yw9P7776epp5464z3rrLO2FMTi1YQTTtjXnM8+++y0wQYb5N/zaWIHf37HHXf04eerP+j8r7/++umhhx5KQw45ZFp++eXTMccckwYZZJCWwnWjjTZKMKw0OIsJTFzda6+90m233ZaGHnrotOSSS6YDDjggx4ta9txzz+Wk9qWXXkrjjDNO2nHHHdOGG27YENOmSYyLn3rqqXkAE088cSYGFv6RRx5Jc845Z8MbdfUbfv755zTllFOmRRZZJO2xxx6ZWCFVSMSZZ56ZnnjiiTT77LNnkJdbbrl03XXXpW233TY988wzadJJJ+1jOF5/7LHHcoCqJjE//vhjdqxffPFFuuqqq9o29+OPP54WWmihdOGFF6YFFlggnX766enmm29O9957b/r111/rjq2rseju662yyipteM4zzzwJwX311VczyT3//PPT0ksv3ZDEdPeYO3O/IDGdQa25zwSJqY8TQicpQ/AKiemIT3P1Rx99NPsryQYfxX8fddRR6e23307DDz98cwvVC94lOEq6//jjjzTQQAP1NaOffvopE5GJJpoonXPOOTnoViar1R/g3xCWU045JX3zzTdp1VVXTauvvnoO2K1kK6+8cpp++ulrzvvvv/9O00wzTf6DuHz11VeZlIi9Yma1ISJ4xWabbZbjtL274oorpltuuSULBPWsaRJjwBZbIMeqDj300EwesPxdd92129cOyzvvvPPS7rvv3saATz755LyxXn755Qzcww8/nG6//fa2sa277ro5+6PIFDOffffdN29yLLKaxAD0l19+yWoPclQ29yabbJJGHHHEdPjhh/c190Zj63awuvCG119/fSaFfnKylUaZ4iCpMP689dZbaayxxsqKmExy5513TltuuWX+SHU5CQE644wzMll0/SOPPDLjy/z9pptuSpzRHHPMkQ466KC2bNL7sXVrveiii6Zddtklq0HUMff+8MMP86F48MEH875dbLHFsiMval09aILEdOHGqbpUkJj2sf3zzz9zAuZ88U2FxDTr08qVqQwDDzxwOuuss9puNu2006atttoqJ2ytYvfdd19abbXVMiGsZfz1iy++mKsKgw02WLr11lvbJTH82ySTTJKT5vHHHz9fjt8ToPkaeLeKLbzwwtlXF59eOe8vv/wyY3L00UenUUcdNb8kweW733zzzb4gOvfcc3NcrnzNdb///vtETaxnTZOYyotQGmwK6sb999+f5ptvvh5fN5PFkJU1ECzSIJWINFhMuUdgwu6Yz2CKQAKiTVlJYqgzHAmVgQRbSWJ8bp111knXXHNN7v2g1ihdKUtVW/XYehysfzAAEjcVClOuZ0gMkrn22mtnYmGfKMnBavLJJ++DxCjXUfo4A2U/ThbpQZSsH3buPUgJuRfmH3zwQXYYa6yxRiYsDghFaOutt86f+fTTT3MJyLpMMcUUmQjJmjbeeOO8RtUyaK25BIn5BxulwUeDxLQPUCHtVAEBk4Ig82/Gp1VeVaLg7JSSideUAIYYYojsq1rFbrjhhuxTlDP06FGhkDjl72prRGL4JG0HpWTi86VcxeeMMcYYrQJrJtp86RtvvJH9uoqMfUXRqmX77LNPrnhUxuTyPoTn66+/zjGjGJ+OBL3wwgt1Me0wiSG7IS/YlcNG3ehJe+2113LphqlTIhoOvHrlvPPOm+65554spfq3w+x/65bRM0wPAAiMJtNKEsNxKE3ZsD5nYSpJjIMw2WSTZZAFZSoDNUA9T52UtTe2nsTrn94bqVOvpHjVMySGw7C5i5ELjzjiiCwTVioxyy67bJYS1ZXZu+++m5UTBAgxkeFw5gzDH2200fJ14W89ORYKC0NOOGoORR/AXHPNlf/uM+zGG2/M9//v/9ye/vWvf9WdQ5CYf7pb2v98kJja2Nj7/I7SEZJOfi9KTDM+rfKq4447bu6pgXUxCYV7UEdbxZQv+ATltPHGGy9RZgRbmX/1gwWNSAy1WOsA31BMy8Fwww2XWyxmmGGGVoE1J4fiotjHR4ujfiId/HKlFZJz99131+x74+tHGWWU3GtZjPoupvP59azDJEbdT9AwKJmxck0t9aG7VtIEkAeZvtqvslA5oDIZJSZ9MILmggsumIMjZ4ARUm4QjZFHHrkvEqNMRlZ0XVZJYvQCIUo2tMyeKbVpTlSeUtZg9cbWXfh09X2QBVg0Q2KU9RDeYvaJ0iPiW0liSNycyeabb97XcL/99tssqWPvr7/+etvrHAZiojxIgiwkxz2pZIgLZyXb+uSTT9o+p8QlMMgeqnujqm8eJKard8//v16QmNrYkuglX7LWslcrG3vr+bTqKwrYEgMKaDEkBrnXpN7KBl8tAtWKciMSI5Hl+/ifYoXEPP/882m66aZrWVh/+OGH7I8vvfTSPh6g0SvKt+MO2jBqGRIz0kgjZdJdDInRKvD555/XxbTDJKZcTQnGjddcc82GNavuWlVkRqOpSZfMu/Leu+22W5YBkR1lBo3Aa621Vn5LpRLjPaQxQbCoPNVKDAehbGX+lUEaK8Ueq63R2LoLo396H6SN2tRMOan6EevOkBjr4n4nnHBC7nXRn6RXhhPB3GWb6tRFwnRPT2E0IjGVxKc9TILE/NPd0v7ng8T0jQ3nr8dOuXbwwQevSWKqP1V82hVXXNHXBfWPUZErAwdFYthhh+0j4+13q9z/Xvniiy/OZW6l6EprRGIouRIuikOxUk7SvCohbmXj47fZZptcxmRIN5z9rO6hrMRJ3NSzVNn0q5zE71eqXrWwbYrEUBn0mpB1BBSMidrhKRUNv7UOUL9eSH0t6prGUzrtS/e+zSR7oRiVBjblIRk/cDXn+nstk53r+6jVrOT9mKFGOQSOElUae2Hk3/o1lEDqjW1A3ujYMQXL+ldmeLCRpfg91aTWI9btkRjlJCSkSImadUm2HDR5VkmP82XUsSWWWCKTGGSF03nggQdy9srsRU8LVJaTHI7SXGZP6OeSNUQ5qV+f0iAxHUHYEy76wmqZXgEKb3s+TfN6tQkm+vEEg2JK3wceeGD23a1ifIKvdFDKLkbd9ZUZkstKa0RiJMj8PJWsPLYtoddaQYlpFRPv9Bn5U74WgU/VamAP89HiAF+r6qH0X8/EjVLqLO8TQ62HrwWoZ02RGBdQRlA6kgWr2doUBo05FTWjOxdQiYB0p0dHsDMWgdOj1x5z1nEOOGoLZcR7PDpHZalFIqp7YqrnUq3EuIfeChvYImKSSJTgqoG03ti6E6d+cS9ZNGdqA+s38jQFBcTTE0idEk5HSIymXRuWQmbNyI6IByejaRxZUc+2dhwwp6RMRXpHqKw5pq8Oyzlbm8rGXp/3RJKsCxkqDWiwUTa0t2vVskOJ6Re753+vGUpMY2yry0mNfJpeF+UjZ8RXYXhM2/lxrpTSBQPnyPsEh1YxfZF8BWzEKn0Z1Cmli+qezlokRvuBPkr+ruxdLQWnnXZafppSIi/pRRpbyXzFCGUcriofmnOV/HEDIgKe4EGZympFJT4qGZqtxUrXQQqJDEQEbR9IvXaO8t1j7WHbNIlBEjwZQgEhn1EybICefFRPA5HAWb50yPPkQFPqYSRD0h9APc9u0+rFqGUdJTGuoZEJAxcwBUb9N4WdNxrbgLzZqVpw1xynZ8WckRmHvHzZX0dIDCwqH7H2hYTIkKeLEE/Kiv2ntOffmneREkxfDRZJ9SSaLECzHvZfSoqeYjIue4Rj90igx/xK45nfkSw9aVZttUiMa1ebOeu7CmsegVokptanqb/Khq1otXpi6vk0ZSglJGSnfImkrNh+dw74bAqnnrFWM36DT3GmqVECZQmuzn8tJUtsQ1QoONQs/XaMusXnUICV5vgnAbnWd9D0ZpxLv6ISGyKBKCM0ekP1wdT6Yll4lDMNO/iWdVBVgbnH3cVwyWwtf1uNadMkpjcvRsyt9yCgnGfjK+k1Y4gneZiiFxYIBAKBQCAwYCEQJGbAWq8YbRUCGo2pNFQxMrnyoUdTZQLNGDnTZ2s1gjfz+XhPIBAIBAKBQM8hECSm57CPO3cBAiRNfTD6Z0jomrbJ555aCgsEAoFAIBDo3QgEiend6xuzCwQCgUAgEAgEei0CQWJ67dLGxAKBQCAQCAQCgd6NQJCY3r2+MbtAIBAIBAKBQKDXIhAkptcubUwsEAgEAoFAIBDo3QgEiend6xuzCwQCgUAgEAgEei0CQWJ67dLGxAKBQCAQCAQCgd6NQJCY3r2+MbtAIBAIBAKBQKDXItBGYnrtDGNigUAgEAgEAoFAINBrERjof/7nf/7utbOLiQUCgUAgEAgEAoFAr0UgSEyvXdqYWCAQCAQCgUAg0LsRCBLTu9c3ZhcIBAKBQCAQCPRaBILE9NqljYkFAoFAIBAIBAK9G4EgMb17fWN2gUAgEAgEAoFAr0UgSEyvXdqYWCAQCAQCgUAg0LsRCBLTu9c3ZhcIBAKBQCAQCPRaBILE9NqljYkFAoFAIBAIBAK9G4EgMb17fQeo2d10001p2223TW+//Xb6/vvv01hjjZWefPLJNNVUUw1Q84jBBgKBQCAQCHQPAh0mMfvvv3864ogj0uijj57eeeed7hlljbu8++676cADD0z33HNPGn744dOSSy6Z9thjjzTMMMPkd19zzTXp9NNPT88//3waf/zx03777ZcWX3zxvq708ccfp5lnnjlttdVWaa+99sqvb7HFFun888/v470TTDBBevnll9t+J8huvPHG6eabb84Bd9BBB62JxS677JJOPvnkuu/pMRC78Mazzz57eumll/IVhxhiiDTeeOOlaaaZJtkvE000UVN36m4Sc8opp6Sdd9653bEZ+2qrrZbmmGOOvOfXWGONtvd+/fXXadZZZ02777573gdhfSLgzH311Vc1YfnXv/6VX1tooYXyHjnppJP6eN/SSy+dz/RFF13UUrBOP/306a233upjzmuuuWY644wz8u9+/PHHtPnmm6cHH3wwjTvuuAlOu+66a7sYXXrppemYY45JH3zwQZpyyinT0UcfnX1dK9n7779fMwk69dRT0zrrrJOhOOuss7K/lzzNNNNMaaeddkrzzz9/TZi+++67tNlmm6VHH300+7llllkmHXbYYWmQQQZpJVjzXK+88sp05JFHpk8++STNO++8abfddkv2MOsoTi+88ELabrvt0iuvvJLGHnvstM0226R11123KUw7RGJef/31NNdcc6U//vgjjTzyyD1GYn7++ee82f7zn//kIGSjIjAARBieeuqp9O9//zvZqEsttVQSHL3v4YcfTpNMMkkfwKy66qrpiSeeSBtuuGEbiVlrrbXStNNO266DeO211/IBmGWWWfLmb4/EPP3002nllVdOn3/+eUuQGA7X5vv111/Tq6++ms4999x08cUXp6uuuqpdp1C5GN1NYhBYjot98cUX+dAgvggYQ1z9/frrr09bb711evzxx9OYY46ZX9too43yut54441NHbRWe9MjjzyS/QQ74YQT8p4ohHGggQbKTu+9997L/sQZWnjhhfN7zzvvvHTQQQdlBW7EEUdsKdgQP8QNNrVslVVWSQMPPHA6/vjj07fffpvWW2+9tPfee+cErtrsVb93Buebb74cqH3uxRdfzASxVUxwnHvuudMPP/yQ7Ltqs/dOPPHEdMEFF+Szfvfdd2dckZQpppiir/evtNJKmbAcd9xx6Ztvvsk+g4+vRyZ7I9bOp9hqX9lf55xzTrrtttvSrbfemvdoR3Dy/x9JZvhUAoJ4LGEkRLh2I+sQiaFk/P3335nZ//LLLz1GYgQfhx1jLgxY8DnzzDMzgTn00EPzJrzhhhva5i9bVp6QXRe79tpr08EHH5xmmGGGHLCKEiPDsUCbbrppTfxkQpQo2STnW4vE/Pnnn5lIcSSccj21ptEiDQivU2IKiakcL6UCObEugw8+eCY3MpeHHnooDT300Hmzw93Gr0di6n3ut99+S3vuuWfOUBGLeeaZJ6sjzRyAMtaSsTlAU089dV+Qb7nllunLL79MV1xxRT6sMmJ7bIwxxhgQlqdHx8gxcVQISrVdcskl+Xw89thj6aeffsrqloAiQWkl41eHG264vKc49Grjc2HjHIw00kgNoaEWOFPUxmKzzTZb9mkStlaxBx54IBMNyn0tk5zw1ZU4TTbZZJkcrr322n18ROVBcmsNSqJDjeDj3njjjYx3q5jKxQgjjJDPbrV1FKcLL7wwKzoIZ7Htt98+E8+zzz67IaRNkxiMlTMSfKgXsqyeLCdVzgxBwIbJ/gcccEAmJpxiZZbs988++2xCXJjPcApAAqJNWUgM8oGFk3apLg4/WXbCCSfsA1DZZnskBlPHSqlBNr4F6c2SY3skBqlQTkIwqGeLLbZYJhlIgfXwUx8Mp1uPxNT7nGwAqYU1KdJ1kBrr1yzmjUjMf/+PsTZyZG2PPfbYmhlwwxPXgm+oR2LAIfMdcsghMwGdeOKJs0NrNSs9YJTMO+64I2f5EikJmRI58kxV4Uv4MKQHGSHh11IYEHiZbSmZwNM6KIHwZa1iyv077LBD9juSWirUBhtskBVj5nV+//bbb0+jjTZaeuaZZ9Jyyy2X7rvvvr7K4PwKxaWyraD4DbFQYtsqJnZSS6jUYiTfrlypbNlRnJBA5flSNoUhBZ+CS1FsZE2RGDdQSzXoQw45JGGq/QOJUd4CHsOalZIErUIubrnllqyG+LfMmaNEbhimJzuk4GyyySZ9kJgZZ5wxKzNqdFQfJOejjz7KgA411FBtmLZHYopMfv/992d2Pt1007WsEgOsUUcdNUu2+kvgKOP0hykxcNjIZD0SU+9zSCvH7w+1pzPWiMS4pixZH8eKK66Y1YKw5hBoRGIQfKVg51MJ1s9Wsw8//DAnTvzSIossknv5nAkqMQWLQ5eICcjIiQSA30LW/aw2PhoZXHbZZdte8l77vJV6jSh9EiWltHHGGScnU3y+HsmCGx9UlBj9WuIIVbnalEysibaEYvqUqLF8Az/fKqasrjUDyZ500knzPhRblZn0YnUEJ/tZe8rhhx/eBh8BQGJrvzaypkiMm5QBcjD9C4lBQmwe6pBMBfkoB1SQsVmfe+653LtSyMxdd92Va26UG6wbeNUkpho0TtZCcSaVzcHtkRjlKLV+DFPPRauTGNk1p4FoyngQGtjLPtnyyy+f160eian3OaTRHlXu4bSttUyhEKVGh8DrzZCYfffdN5csZcYIbav1bDSDY633NCIxd955Z9KH5jxbZ2cnLOWHFvgS/VqanwVRiVsx5F2ihLxX2+STT57Lts5WMYEGWWp1Al4eCLn33nuzoorowAqRFjyRmssuu6yvPj5KGLVAzKkmMeIjlawV7K+//krDDjts3pPrr79+nrJSMD9PQbHHOoIT382XViqw1oHfaK8MWIlzQxKjTjXnnHPm4I0MMFmBiVAqBCYSfk9byZJNmixYbWqcgp2NqJyhhLH66qvntzUiMd5DiaLmALxYLRKDTJFrOReqQKuTGEqWDFNwQhiVnRAaaoYnLBA9m74eiaGu1ftcWQ8OnuNX+iS3y5jae2qsen80IjGIrzPA8dn3+qtaKaP9J+e7HonRoIoGH6t5AAAE9UlEQVRwChyffvppbuZzlvVLtbo5OxJG/WSCpKBBqSom0CIymnWrzdM1SklKJ8Wsg+BTmfG2IsZwU0JSbkaYEWjYFIOZshOCU2mUfWdf/0ux4jf0LPFvrWJIcnl6s8xZjIQPHDqCk4dyEHVtAcWQIepYperVHrYNSQzlolKSrL4Qp65npDtNQNSQRboqnfbliSSbSalLVl8a2PzbGP3b4W5vvOQxoJFsSVmlVEWJ4UwEx0UXXbQuiVHf1+xVy7DTWjJld2LXr+7VXk8MPN588802tQyB0RhXbMEFF2wjBO0pMZx0vc8pd+oLKA2Pnl4bZZRRkqa+Zh8prUdirL8nHDQIaiZX/0bsHTJkLKw+AvVIjBI1SV7/mgZtT+ZIMtTXW8kki3qtqJSFwPGt+mIojIi+gOsslX2utK88ImutNvuU0kk5LKY0JZlrpT179dVXZ9UX2SumGRW2nkRaYIEF8p5TqitWSxnwmp4tMYI/0m7AlE6sWzO9G71pP8NIGa009lJiYEPV8mBER3CSuCCVHq8uJr4PNthgTfmBhiSmFvA9XU6SsQmapNYdd9wxO0FBzhNTDrQMhjRIbaEU7bPPPolk7XtMarHlaiWG43AtEqN+DmoB58FhaIwrVq+xt7ynFZWY33//PWePSJ/ghHR64gIh1hfjNSqMTAdpLGWE9kiM7yGo9zkbXkavfCgAkNc5apmWZjsBUQN2vZp1PRLjiQ7rb/zlCQRZA8dIobFHwtpHoD0So6zBecGwPOUlQGhK1TDYkafLBnT8PelIkdKAyt8ImJ4AQcJLvwZ/R2VGXuAkKVMaobhQmREgJMVTIxQbvTWUZ+XV0047LRMagUJwaBXToAs3vpwP8W/+QulCQnnUUUdljKjnEipk0ne/6IP0bz7e7yS1jHqvCqEaQT0QX8SPSiWnFbBVaYCf3hdtHEqV9hy8xMhGOMGdIKAEJ9b6QlPESP+Sa0h+xQ3Eu5ENkCTGpBxiG9OE9elg0xyi4MhIhprkBFRA2bSlHFYNSjWJERAFKPKhrJ4TcK/iaMmP5SmnymtZUAel0lqJxJQvuyvztwE5B4STeZRxhRVWyGSAI/VkBbIhG7du6qu1vrGXdFnvc8iSfhWEyL5AKjj68uV0Sj8OTeWX1VXvgfZIjHV2sPRdVX9pH+eoZOh7cMI6RmKUfalbSiTWttKslbMku+1IX9OAvgae8pDZCrSSLf0spPZCOjTAI9R8nj1e+ZQNVZrKjGzb74wi7EsaqTiyY4G31tcHDOi4NRq/BJYf0gytt9F5Ln6a+ifJ8ZQS7MQKfqgo5hItpQ2JF6NuITR8jd44/ouKU+sJsUbjGtBfR/SoUJ999lmubsCqKFSNcJJcarYu6+CJL0+M+SkW+JJYfavNWKdITDMXjvcEAv0LAhQa3fQyrLBAIBAIBAKB3oNAkJjes5Yxk3YQkOmT02s1fAdogUAgEAgEAgMuAkFiBty1i5EHAoFAIBAIBAItjUCQmJZe/ph8IBAIBAKBQCAw4CIQJGbAXbsYeSAQCAQCgUAg0NIIBIlp6eWPyQcCgUAgEAgEAgMuAkFiBty1i5EHAoFAIBAIBAItjUCQmJZe/ph8IBAIBAKBQCAw4CIQJGbAXbsYeSAQCAQCgUAg0NIIBIlp6eWPyQcCgUAgEAgEAgMuAkFiBty1i5EHAoFAIBAIBAItjcD/Ban1EbSeDUFQAAAAAElFTkSuQmCC;imageBorder=default;" vertex="1" parent="1">
          <mxGeometry x="348" y="263.13" width="551" height="179.74" as="geometry" />
        </mxCell>
        <mxCell id="FJbFZdLH_GVMFSv8Vmyc-5" value="" style="shape=image;verticalLabelPosition=bottom;labelBackgroundColor=default;verticalAlign=top;aspect=fixed;imageAspect=0;image=data:image/png,iVBORw0KGgoAAAANSUhEUgAAAjMAAAC3CAYAAADn7N8lAAAgAElEQVR4XuzdA5QlyRYu4BjP3LFt27Zt27Zt27Zt27Ztm++OZ9794q2ol52d5+SpqtOOvVav7qqTGRnxx8a/9448PdD/+T//59+QJSOQEcgIZAQyAhmBjEA/isBAyMx//vOffnT6edoZgYxARiAjkBHICAzICPz3v/8NmcwMyBqQ154RyAhkBDICGYF+HIFMZvrxDczTzwhkBDICGYGMwICOQCYzA7oG5PVnBDICGYGMQEagH0cgk5l+fAPz9DMCGYGMQEYgIzCgI5DJzICuAXn9GYGMQEYgI5AR6McRyGSmH9/APP2MQEYgI5ARyAgM6AhkMjOga0Bef0YgI5ARyAhkBPpxBDKZ6cc3ME8/I5ARyAhkBDICAzoCmcz0Bg249957wyKLLBLWWWedcPHFF/eGJ+ZHZAR6HwILLbRQuP/++8Prr78epphiit734PykjEBGoK9GYJtttgmnnnpquOaaa8LKK6/c6bleeeWVYY011gjbb799OOGEE5reP0CTmdlmmy08/fTTPQA0xhhjhJlnnjlst912YbHFFus0+FU3vPfee+HSSy8NU001VZc2tGrMG2+8Maywwgrxo/vuuy8suOCCHZdNNtlk4eeffw6ff/55W+afB/l/CPzwww9hxBFH7IBjsMEGC+OPP36YZpppwoEHHhimm266lqG66qqrwuqrrx7+/PPPMOigg7Z8X2cv3HnnncNxxx0Xb7v11lvDUkst1THE1ltvHU477bT48+OPPx7mmGOOzg4fr+8umanDIq3h2GOPDTvttFPHHJOj4+wuv/zyLs29eNM333wTRh999HDXXXeFhRdeuNvjDegDVPnXhMn7778fXnzxxejD/Ln++us74Priiy/CmGOOGfhiPmzppZcOt912W/Sha621Vsd1f/zxRxh11FHDr7/+Gj755JOw7LLLhqeeeio888wz0Yd3VWafffa2jNPV57f7vqLfOuCAA8L+++/f8YhNNtkknHvuueHll1+OfqzdkslMuxFtMF4yNk58mGGGiVchHv4IVIjO9NNP35tm07nHFMnMTDPNFJ599tmOATKZ6RyWrV6dnALyscACC4TffvstvPTSS+Gnn34KAw88cBCUW80+1l9//XDRRRf1NjJjzptuumkHebHmiSaaKHz88cfhr7/+6qNkpg6L3kVmOHXO/Z577slkplWjaHLdFltsEd59992OKyRYTz75ZBhuuOECMvPwww+3RGbYCR1Ze+21wyWXXNIxHnK+zDLLRBJz0003hXaRkHaN0wYI2zJEkcyIc/ZktNFGi2NnMtMWiPv8IInMIC2zzDJLx4QYzWWXXRYOPvjgsM8++8Tfn3feeeH0008Pb7zxRiyl77HHHh2B6+uvvw6bbbZZeOCBB8LYY48dzjzzzDDffPPFTP35558PVW0mhnj44YeHV155JYw00khh/vnnD0ceeWSHks0111wxwHzwwQcBm5aZzDnnnOGUU04J44wzTkhkZvLJJw9vvvlmnO+aa64Z51omM+ecc0644oorYsYy8cQTx6DG0ZDdd989HHXUUeGGG24IDz74YJDtLrHEErE0KBM6+uijI9E78cQTw9xzzx3v+fLLL4MAo7UgELpeCbBYtejzu9v+GSSnMPzww8cqDVFZgc2uu+4as3qtFjh89NFHUXdkijL+xRdfPBx66KFhggkmCMgnvUhCX+gPR7/XXnuF5557Lmac9NAYgwwySJcXs8suuwQVDc/87LPP4p+BBhoovPDCC2HGGWcMbMAcn3jiiRgMms37l19+CcMOO2zUA9UQeklv9ttvvx7aTMlBHnPMMVFPZNCukX3Luj3TZxKFRlgUF9wZMtPMTu2Veahk2ifzgC9iusMOO8R9TJJbwl1WuYY3Ih78Xmo5JB9WV5mhdyo1Eobvvvuuwx5SZVHr3n61i4QUx+Ffk86rcKpqSBxXXXXVcPzxx4fBBx88rpevpD/iw7TTThvMrVhFaubvi3Yl5uy7777hf/9fYvQXYggbprOrrLJKOOmkkzoquc10vbgJyW+JW+a35ZZbdiQ1ZTLTzFZb8f3Ipnmzc/uNuKr+pj2vG59fVM2RJIrJyy+/fNhxxx1zm6nOHBuRma222ioSF45P+4DDXnHFFcO8884bicAZZ5wRHnvssRgEZp111hh0kImRRx45rLbaavH3FN5mIEplMkMxUxlbJv/jjz/GbNBYggqj1TZCjjh747jnnXfeCRtuuGEkVskRmJ9gONRQQ0UHraJUJDPmwjiNoUSPnFAYmYyMxhoZ0JRTThmvu/vuu8Onn34aydi///4bx/NsczOW37nu1Vdf7SB6Bx10UAzWcOqfpYrMpPWm/brjjjsiFsstt1y4+eabA2yQBw4KbvaX/iAt33//fSQEyugI6qSTThpJjAALcw4yEYKu4pqIAOeKoD766KMBUUakPZs++31qMzWbNzLAeavo0FH6s9FGG8WWbDozQ4+33Xbb6OxVqgi94/hl1/TKc5Fg+izrLmNRTCzc3yqZqbNTur/bbrtF0u8Mm39zrm+99Va0CXvEbtmYPWm1ytbVvRmQ7pOoSQCLZx9aJTNwWnfddWNVhn+yd2SsscaK7XTJ5JBDDtlLyAwyQeeRKckKG5YY8tn8MF3hSwVdNsEeJI2SBddpJdf5+7///rvjGeONN15sXbOdEUYYIR5NQEKuvvrquFY67ll1ul5FZtzHf99yyy2RLEw99dQ9VWaa2aoY08z3iz/mCy8xUWIkWZf8JjLTbPwUuyTwjnjAm1/RQsxnZmq8RVWbSevgkUceCf4XccHbhi+66KKRbGC1mDrn52+kh5NWueDoOcQZZpghGpzNkPnKsstkZskllwyC3mGHHRb23HPPOMvUF04l7nQOgbNnyIkcUWxKkwzIGCoFghVnjcWXycydd94ZAxgClUq2KjJHHHFEzDQEXAEI60fKKKJ+NWX8559/YmbC4GAjGArcxcx1vfXWiwebZf2Mvn+VZmQmGansTHBX7fr9999joFZZSXrDIdEXhECpPZ2ZQSgRy7POOisSDKKKA3v97K5KIgL2VaYooCAyiDnnQUdlnInMNJu3gOEeUjyXQK84bG0aFT+ZKRvi/JAF+jnKKKPElhZRKbRG51xUeMpYlNdaPPdThUM6M9PMThE2AYENIzOTTDJJnIO5pLNEG2ywQbjwwgtzm6mrytbgPkmZvZEQqf4mHSq2yqtuTWdmfCYAI88qaHwu/TNe0Q/1isqM6mGaryCLaHg+e1dNlUgmvUsVVomeeZrPIYccEur8vaq8ZyBDzghpAYk7r732Wqx4C+QSAIlrSrDrdL2IJ+KFGJkHUilBdnYO/sXKjLjRzFbtRzPfz3eZp2SMPyOqnvYcmbF/zca3br4EHnSGSDBgmMlMi2SmfJkNszEcHknOtnwdhVBCE3RUZbQTiMqGTLsRmTGuvmUiP+4RZCiaNhJiksiMQ3KyA0FPMNGSkokkR4DMIDCu8fy33347GpFzHAxDCZNyqRI4C5TEMzwrkZn0XOTL4TnZD1JGHAxjoJ6LRG288caVyKasv82+sK8ZrhUykwil4M6gtY4cUExiTziFcgBPgbS8WFkOEqm60xVJRMD5BHrixD9yzXGYq/kUyUyzeSMknC7HqKqUJOkq8mKtSDFyTFRfVJyqBKmi962SGUSeXSWhj+wjkZlmdoqwmAtyaY3ffvttxzgpg85kpisa1vweWbkEjyAg2vBJkg+TgSPASfg6AbBIZvzO3ksyJQECu8CJ5EgESa8kM+zFWkiqtGj7IMhJ7/hIlYmy1Pn7zTffPNoVHLRniKrgddddFysTCAHiLxlJQb1O14tzSH7LcYDbb789+m9VJWOr/iL0EibxpZmtwqCZ7z///PPjWKntZw5aWirRyAxi2Gx8lTbV20QS3Z+S60xmamyz3GaijAyPwXB8Sv4kKQ7lKp4LkTVz8MiMa7/66qt4vYoGBl9HZmSqyTlTaASqTGaKr7sKbJhtmcyo7qQ3OwQsVR/ERqCiBIKLoKaHifFyBGUyk7IKZUGOJSm+9aRzDUUys9JKK3UErASz+5C6/lWakZmUKTFaeiXwIp6cBkfFCSCTdWSGg5aZFEUVpavnZtKZGZUSAWLvvfeOpFllTqZJNxKZEWiazTuRGTqbqizmmciMedIfTtE5LvaRyIyzWhxdUcYdd9x4hqtVMlP3NlMzO0XQ2aPy/wUXXBDt09qd48lkptdYrFaipEiSIzESlIvSmTaT+xBk/tEeqqrxsxLHZBu9kswUdZ4t0fUymWn01QSJzDTy94nMFJ+hekgvJSHzzDNPuPbaa+PzymSmKiaV3+Qqkxm4sfN0Zk1CXiQzjWyV/+DHGvl+iQkbVwXVtSCIydlnn90DmWk0Pj1BZopvJyJGKv+ZzHSSzLg8HSqzacn5pkAlo+W4Hc5yFgaTRGRkpNoxensCQupn1rWZONL0ejUSJcsst5laJTPmrpXE0M3LHAXOdJA4VXhSO4OyUbpUmWmVzAhWKlfKgeZKUtXGs9KBuF7jHvvsqI3IjOzMWSmH3ejAQw89FImj3yGZ2k2IjapIasWlwKvqMsQQQ8QqjhJy8dVJjsxnyFFXpViZQYRV8BBveqoymD7XZlKtaDZv9yFmZTKT2kxaOCqADkOndoCMGi7eppJ1Dj300DEAqSDKYmV7ZSzKa231zEwzO2UTyFUxw07Xp3ZXqsxoy7braxm6um/9w330wJmvYju9O2RGsBPYtXgQ8NQaT2P2KTKT9Iits3lVd+1W5xAR5tRmauTvU5upM2Smma5rFxWlTGZ8ll78YIPaWciMVngzW3VdM9+fzuFZuzOnBLFS7ZfkOY/XbHyxhS8xJzGFOPybWm35e2aaeIWqA8CqK0ph2jSpDYT9Kvtptwg2lFYgFwAoACbpd9gu9qycqjrSiMykMmW611gM1VsiApiWQtV3dzSrzFhm8aBZKtHqKSslUl6KhcBg2IiHMw4cuTMzrZIZQVmvmoI6QAkTxEgmobLUP0v51WxrdaAOySXwdABQUOfIOCdnMBxcRH4ZqyzIoUFOwWFgPWtnomQrnJAsU0/+ww8/jAQnVQ26imuRzAgEnoFI6EXb9yKZ0T5qNm/zRAgaVWYQb+vQ71f1QaCNlxySA4iyLD1w60T6JALe0iti4ZBwUVolM3V2at6IFHtg5/bLnnC+SL0AqfUmUFirP1m6hoAXJNLbj+nAbnEk58okgK18z0zxPvqrwpHO7/FjfZrMpOQV2edvnbXkz1OFos7fO49YThLqKjN1ul5HZrwVBsvUbk3fM9PMViVWzXy/MSRL1iIm6nCINfxhOgDcbHwJj8RGQojU+MoUb/GKw7kyU2OHjd5mwjD11pUSOVyiXSAQcdKyV5uSvoOGYxTEOGRvsijta82kt1eqXs3Wu/QKGwVgBAzez6lN0xUyY57p9cdEZpAOZ3scAkOuOHLZgj4mgiMYd4bMaDUICLIjLasJJ5wwBmfrTwfluub++v67yl+al2aM0AnQgnWSVF7VSlEStwcw0qqzJ87SyFz1/+2FSiD90TJkvAIBkpjOA3QVnTKZSRlZ+jqCIpnhPJrNm5O2nmZkBqFPJXE6TPcFHq1Nv1ep4agFMzpKtBvKWHSFzNTZqZ6+kr7qEMLCDqxX4qGipMpqryQU9grZydI1BJIONLpb8uSMSGfJTHr7UtArfoeN5/Spyoxn86sqB94Sol/0Ob3c4fNm/l47rrNkpk7X68iMz9MbZv6dyEydrdb5fvvqJQIYqM5KnLxokpKyuvGRYL5BFRchUrVS0UnHIppp4wD9DcBdM9Oe73LI1nkIjlz1JJ2057QdYMqSEcgIZAQyAhmBjECvQyCTmTZgm06ey3odnD355JPjSfRij7QNj8lDZAQyAhmBjEBGICNQgUAmM21QC4c6leuV0ojvC9CmSu/at+EReYiMQEYgI5ARyAhkBBogkMlMVo2MQEYgI5ARyAhkBPppBDKZ6ae3L08+I5ARyAhkBDICGYFMZrIOZAQyAhmBjEBGICPQTyOQyUw/vX158hmBjEBGICOQEcgIZDKTdSAjkBHICGQEMgIZgX4agUxm+unty5PPCGQEMgIZgYxARiCTmawDGYGMQEYgI5ARyAj00whEMvO/FfzbT68iTz4jkBHICGQEMgIZgQEagYH+9z8sZzIzQKtAXnxGICOQEcgIZAT6bQQymem39y/PPiOQEcgIZAQyAgM8ApnMDPAqkAHICGQEMgIZgYxAv41AJjP99v7l2WcEMgIZgYxARmCARyCTmQFeBTIAGYGMQEYgI5AR6LcRyGSm396/PPuMQEYgI5ARyAgM8AhkMjPAq0AGICOQEcgIZAQyAv02ApnM9Nv7l2efEcgIZAQyAhmBAR6BTGYGeBXIAGQEMgIZgYxARqDfRiCTmb50/2655Zaw/fbbh3fffbcvnWGeVkYgI5ARyAhkBPoOBFoiM3///Xc44IADwt133x0+/vjjMNdcc4XTTz89jDLKKL19FTvttFP47LPPwhVXXNFbnv3II4+ExRdfPKy33npxzb1LeieZ+eeff8LJJ58crrrqqvDBBx+E4YcfPsw555xh2223DTPMMENPS15uueXC/fffH1555ZUw/vjjtwWSp556Khx++OHhySefjGOuu+66YauttuoY+6WXXgo77LBDeO2118LYY48dtttuu7D++ut3fG4Nhx56aDjqqKPCTTfdFBZccMGOz3755Zdw2GGHBZj+/PPPYb755gv77bdfmHjiiRvOvTvPqxr0/fffDwcffHC47777Ir5LL7102GuvvcIwwwzTcfltt90WNttss7DFFluEffbZpy249m+D0Lkdd9wx6t5MM80UNt5447DSSivFZf7555/hxBNPDDfccEN4++23w4wzzhhOO+20MNFEE1XC8MMPP0SsH3/88TDkkEMGen3EEUeEQQYZpFuw0bEtt9wyPPzww2HccccNyy67bNh9991b1uV04aeffhpmnnnmsM0223ToQ50ut1vPLr/88nDccceFjz76KEw55ZTh2GOPjXMi5bmwOXqb8J5++unDO++80wOWa6+9djjrrLPi75rZ2GKLLRYeffTRnvZh6623jjZOmtl8tzawyc0//vhj2HTTTcOtt94a/HvQQQftuPqNN96IfmvUUUcNbLkozz33XDjyyCPjmkYYYYR4XVEnHnrooXD00UeHZ555JkwyySTRt22yySZt92/33HNPWH755StX+OGHH8aY/sADD8R9fvbZZ+Nemos1J2mmE65phlHxwbvttls49dRTe8DxuuuuC2eeeWZ48cUXYxzAO5ZccsmWtrMlMgNkg1LmCSaYINx+++1hoYUWCjfffHNLD2nnRb2bzHBK/hOru+66K7z55pthuOGGa+dyGo7VO8kMw7KXyAOi+scff8S1UjSOZ6mlluqYJ2eJ4HD8U0wxRdh77727jQeHhzztvPPOYYMNNgiPPfZYJCuC/4Ybbhjxn2aaaaJxmyPis9ZaawWKj5hwqmuuuWbUzYsuuigGsyKZYYiJkCMPJ5xwQrzm+eefrwxc3X1eGZBff/01Bt6FF1447LrrroHTQGQ4exgT5AqR+99/LxKWWGKJTGYqtAqOU001VXSsghrHTx84aKQBkaGvJ510UsSW3/LZ008/HQYeeOCeRlxllVXi/tOH7777LjrtVVddtYcg0xXlXm211eLzzOf777+POr3vvvtGAlunW8Xnrb766lHXEbZEbpvpMrttp57RR3M+//zzo52dc845cU0vv/xyJOTW9cUXX4QDDzwwBsFDDjkk2tQLL7wQlyEYXXLJJWHeeeftCcbO4ODm33//PcwyyyzhlFNOCfPPP3+tzXdl3+ruQVYkteZx4YUX9hCE+RPrn3TSSePvi2QGuUUAV1hhhZiQqbZvvvnmcU/5MYFbPD3ooIOi/iETrjvmmGPi5+32b+V1nnvuueGyyy4L9957b0wWzQVhmXXWWSOJpQP22NrrdKIZRsXnIkrW+uWXX3bgyJ7traLBMsssE5NP/hIBRPDqpCUyM/XUU4dvvvkmvP7662GkkUYKiy66aAw4lNbm9U6pIzOffPJJBMD8/vOf/8S5yspTBgyoa6+9NgBd5rbiiiuGjTbaqHIJMrfJJ588kjfPZbz+JFlkkUUCx6V68+2338ZAhPQtsMAC8ZKvvvoqOtsnnngiuFZGiSwI3mOOOWZ0BLvsskvM4MwVAzVXWWKZzBhj//33j4o/zjjjxHnI2Mh7770XDSGtmeOBAQdfJ57DaarKUNqiXH311QF5waCTeA6Fp9jmzrF1N5NlIFdeeWXMAJPA7d9//42KffHFF8fAJJNLAsuffvopMEQZ7Kuvvhpkc7Ke66+/vgcyw8EjSrJC8tZbb8W9l91POOGEPUHU3eeVBzQ/Th1eCSvZx9lnnx0DMuEckUpVBs4yV2Z61lwOF24PPvhgpVqrgAicSV9l7kgNveIHisJmpp122ujTxhtvvPgRfd9zzz2jflSRnzpb8jnnLwgkX1m+p0630vV0WKVR4oCkJ31opsuDDz54W/VM1QoOqltJZpttthiIESw2ufLKK3dUYtjT7LPPHqti/JvET9VLItJVHNJ9Ehu+6Lzzzou/qrP5Vvaqs9fw06OPPnqMhfSpWJmhO/wPm1Z9LZIZ+oo4m7M9SvbOJ+h28NtiAp+aBLHmy5DHurV21r8V120t9lQ12z4hMaqT4kwSSaQK1BlnnBErmc10ohlGaTyJJdIi3iCACUeVefpiLkmQ97HGGiuSqTqpJTMCrnL83HPPHasTRJbBQVx66aWRbfZOaUZmBL955pknEhCOQLYl4KsgCIoIDKKBRds4gViA8/N0003X0zIopmxEsJW9qV5gr0koL8Jy4403xiyEs4UNxRxooIFiVUFLTLYoaxJQ3c+RMgpz4Wz9Hs6yc/NQRi2SGezV7xEdeMvWVC44Ez8jY8haqpLYmxRA6/aG45e5ahvVieCAvCpBUkT/Fly04dotqhOqK0qxAgyymMrTnkX3ZOD2pihVZEYVBL50YIghhogtNY4ECR1ssMF6mnp3n1eHBeOVlcwxxxyRhBbFfmYyU42gbBUZ1Oq2d0iIIC+LI3QSkS+W7+mRRAKRLAr7ch0SnETFTOUn2WfdPlZ9LilQyUCUEBI+SeDfY489ok9oRbfoB0KEqCM/aZ2e1xld7q6ewVIgKwZZSYZkq5h4mJcWH/8j4xagVSMEIX5K3OCL7ZOAxVe1gkPCF4lRueWnqhK0Kpvvyt61eg/yUSYz6V7VlDKZUWmRNPPjicyIAwgOXOhFUcQP1RG+tdxiaYd/Kz5L54EP5EsJP4mQiokSvq+//jraD72T9LaqE80wEksVCPhjdiIpZdditqS92PHhH1X72FKd1JKZxLYF7jSgDVMlOP7442OPv3dKMzJD2SmBMt5oo40Wp4UhK9XZFOWqVLpt5awHYqTywiDdr9Qlk07VKJhwOjaBeC7SwRkqu/rDuaWsUPbNGficQ+ZokQ4BlmC1FJzSF8mMzaf8xU3WfxXItVo4cQSu7GBa2RdB1RkUz6gTfWLlfZkXA1D9MVetnXYKokKJOUaOj0MdeeSRY885CWOQJQhARakydo4VSWAoBJGEW9V5IJ9393mNsNC6k0URVRgtpnJVK5OZxpq0xhprxCyWnrNzeoIk2FdOEbm/4IILYjAdY4wx4ud0dJ111okl+6LI8JGF4rkMeuI+2WFVctOKjgsKdJefokccMR8p0Pu7Fd1SddSGEczcUyQzrehyu/Rssskmi5gWz1hYB5uTDCRxHT/GF0rokBj+TRJpLfykTB/ebM4etYJDGp+d8zeSkCrp28mMCr91Wwd9hY0kWwsUUUuxik46pzjUUEPFFjuiUZZ2+Lc0pjik/WVvUnXSZ6oz5vfbb7/FS81bAkta1YlGZMaZTN0J1SoVHnaWKjPpHjFb5cbPMIBH8t3NbLCWzCTDqCIzAmDxYFArxt7da5qRGaU+ylJ8AygRDBuG1QvGnJ0zH0gG9lnF9h3YUhnAkh3oIpypkq8yHIGJbAPZIQzaZmvDYODIj9ZIOmjq9wyeEiEuxQOsRVxki0hkepvJmjm2shjX+IiOOSjtOt+ibKiSVmb8VdhzVFotrZAZ66f06QAejGBIR9pxGFwWy2gEeSQQVoTjG3HEEaNjTYLMIIacQVGqjF3rhjOUXficM/UHMb3zzjt70GGVNrh39XnpoGSakwSAnhABSqBUVbA+ulcMCq7JZKaxh9BGQkRVS5Mg8vREe5fzVY5WprYPiLrfscNyBUz1RKXPfiRJZCaRo674KoRbUGITSSQ7nLcKRZ0uq7qaN9tC4Mtkppkuu76deiZB4utUFZIgM4JxMYGBoURSNq9tgSAOO+ywPcGnYmEPO2NjsnZ+jr9Ejqqkbycz5gyT1EbhK/lrVXFJsiMG5PPPP48+CU4IhYJBmdB01r8lnajCjc0gF3xhEnupdcjXSrbNR8eADoitrepEIzJj/5EZlbkUm4vtOnol1jnCokKdSA3iVye1ZMaDMG296DvuuCOOp7SrKuOcQyrx1j2oXZ93lcwUSYWWBedCYSiZMiASUpRGBIIiIjiCYzMyo8dozOK5DH10G4TMOL2u9F2uLKQ5FCszshtKXw58xflqAaUSL2dPafRb6wS5Q7Lq2kzKjxT5r7/+6mlIRpoIXd3zGn1uXGMIJLK7ouNCQjjAYhCTdevll994KBs756oKV862BTjzRsa0ApNoM3TnecaBZxJEucqxm4/ybTEzc08mM401CBHg+FNJ3JV0RgtXP79KHLpW7SwHBdmftpXzMUlSmwkRahYEmuk4kuSQKltM4s1LhEZbu5lu8Umqwci0A+2kSGbqdBkJKkt39EwbXIupeKZQAkGfi1XS9EzE0dsv1p/eMCvOJyV7AqT2WSs2zUcjnc38U79AZsr7Ioly9giZqBKVxGuuuaanijA8PsAAACAASURBVERn/VuVTqTnSaYcXSi2shAs/rAYa/hde4Bot6oTVWRGAqeqSs91I6rITBkLxzZgRF/qpJbMGEBvn9NNh9oESkxZ9iFT6p3SSpsJWUjVFKRABUQwFjARGQdok2CfNpMDSeLkvFaSQK9Xm8TBJcphYxlrMzKDAFI82ZgqCXHwmHNIbSas0zmeVBlygFgmosJSbjNpUSlZJ9HeUX5zyE7bR/aSDi2q1CitY/p1osLB2VPeYgbmPo5ZO0Z7i3G5phhIXONzBKSVMmCzucioZSRaWcXXldMzEOgiSVCOVf1K5c80dtnYYaqMW6yQuBbR5JDLa+7u86rWyHGZr+zVWyAkndwvB85MZhpriYqHLFIikEQypcfP6SELHB//RPzbywscq7NpRWE/CK17VFuJwKlCWT6HVWdDxc/5RJknm/SyBBEw+Eu2xl4a6TLSoKpaJeZqHc10GdFrp55JtiSzzg4m0S6BNdKl1ccfIIyEf4UlMoPUwFJraOihh46fIyT2S2ImMW7FplX+tcFVERpJ305mnCeiW84WpniJXPP1kjL6gXQWjxHATvC350Vph38znoQcmWEHqTLk9ypv9L9YCWF3dMAcm+mEik6SKjLjpRXdkyoRUyV34p4zZkmf2IOfxeI6aYnMyID1nvWltRkEHMG8FbZUN4HOft7KAWCvkFMQwVwmwdlhhBRKi4TSIDTKpQiFKlOxLyxo21RZWzrPkuaplyjDSMGxUZtJNQBJkK046IR4IDJYafEAMOU2J+QHK9ZqochVB4ARLpvKaVAc//a39cnkZJpaSwyfMqpawAAR0vdkCFXiXs9zjQNeSBuSpXKhd5u+b8b8HVYuCgxVM5C2IvHrzL4qKSKU5lv1nSAw9AyZuTUzFIaBJJTPvVQ5NgTBmpRLtSQYp38jh4n0Fufb3eeV124P7JEgCz/tjNQWEeCKkslMY81x9kCPnQ+giyp4SvH0QdWQTSIESLjWqcwXMU6O2XUqtPSc0HsVTQFZlcA5JpWQ4vcbdUaP07X2Gengg5AlzpgdmXNndMt45TZTM13mF7qjZ8gf8oGssCPVJQkbPPlJ1S9BLbXRkRkVaC08CRkSIyawK36IrUkWtRQETb7TGQ3xpFUcBDP7rcXdSPp2MmPe9gXRk0AhKZI3L44I4HynpErCKGbQUWv2b3tRlK74N5VBSW/xKzaQCi3EYgXRc/hge26P6JrEXqxHxMylTifSXJsdAE7XlCsz4qqkQ5xji3y0IyG6G61USlsiMwKs4M5ZyHQFPOcaUpbZFYPv6j2N2j/py5QEV9dgkebHsQAlsU8KIytgcAIcZ0HBiudLBFZOs6qUmg4Zy7w4p2ZkRtma41S1SNmFKlFqLagWIYmyNkGVw/CqWtWr2diydVB02SbyhWQQZ2wopmsoBDKn78hx6L1rERZfQS1jzwkiLu7xvRiMzh6bO+VSMUGasPkqpVKtQso4s65IaluW7/XslJlYo5aCvzlOxC+VUBPZLt8viAhUcBZMEEkBkYOEezPy1Z3nVWEgqNkj60Fs7Yl1W4s9rZqLVlvZ2XQF3/7pHmffODtkW3VNIE1fhWCd3lCih848qZDwU4mwSlpkwul1eFUHOs6BIz103HitnDVrhqk3VBApe+3ZCFaxDdtMt8rjlslMnS53R8/4NljybZIrIuhJtvhVfoc9+ZuosCBsKsHWrIKPrCddtkf8mTY+vyFga7OlN3pawUGVWvJRfqunzuZ7hc6rdle9VeNgM73TBiyLhJjvT2/O8v2IN30oviWmQEBv01dvIB7G5Cvq1lqnE/yk/SweO0BaVQmr2nc6CColkkxJOXIj/ptLnU40w6hMSKvaTIiXYxWqWelQv6MZrUhLZKaVgfI19Qhg4siMgNo7hdFQ3j5BPnvnOvOzMgIZgYxARmDARCCTmV6476pFWgrKs0q4shLnWjDi3iWyT2y5T3xbc+9aY35ORiAjkBHICAzYCGQy0wv3X8tGVUSbRplPCVePv3gAuRc+Pg+dEcgIZAQyAhmBAQKBTGYGiG3Oi8wIZAQyAhmBjED/i0AmM/3v3uaVZQQyAhmBjEBGYIBAIJOZAWKb8yIzAhmBjEBGICPQ/yKQyUz/u7d5ZRmBjEBGICOQERggEMhkZoDY5rzIjEBGICOQEcgI9L8IZDLT/+5tXllGICOQEcgIZAQGCAQymRkgtjkvMiOQEcgIZAQyAv0vApHMFP+jqf53qXllGYGMQEYgI5ARyAj0bwj897//DZnM9G+7mteTEcgIZAQyAhmBAQiBTGYGoM3OS80IZAQyAhmBjED/iEAmM/3jruY1ZQQyAhmBjEBGYABCIJOZAWiz81IzAhmBjEBGICPQPyKQyUz/uKt5TRmBjEBGICOQERiAEMhkZgDa7LzUjEBGICOQEcgI9I8IZDLTP+5qXlNGICOQEcgIZAQGIAQymRmANjsvNSOQEcgIZAQyAv0jApnM9OFdvfHGG8MWW2wRPv/88z48k/z4jEBGICOQEcgI9JsIdIrMPPvss2HdddcNr7/+ejjxxBPDdttt15ZVC+inn356ePHFF+N4M844Y1h55ZXDxhtv3Jbxy4NMN9104eWXX+5p7MEGGyz88ccfveSZjQb95ptvwptvvhnmnnvu3vrc8sP++eefcPzxx4fLLrssvPfee2GEEUaIc9ppp53CTDPN1NPcFl988XDPPfeEd999N0wwwQRtmfsTTzwRDjrooPDYY4+FCSecMGy44YY96NgLL7wQttpqq/DKK6+EccYZJ+y888496Ig1HHDAAeHQQw8Nd911V1h44YU75vXLL7/Ez+jaTz/9FBZccMFwyCGHhEkmmaTh3LvzvKpB4brvvvuGu+++O+K73HLLxTkNM8wwHZfffPPNYf311w/bbrttOPDAA9uCa784SDMcLr300nDKKaeE1157LermHnvsEegj2WSTTcK5557bw5LpEuyr5Icffoh69sgjj4ShhhoqrLjiiuG4444LgwwySLdgu++++8Lhhx8enn766ahjfNmWW27ZMebVV18d1/D8889H+znssMPCMsss0/H5JZdcEo444ojw4YcfhqmnnjqcfPLJYdZZZ42ff/HFF1GPPOPHH3+Maz/77LND+hZ3NrnffvtF+xxuuOHiuOxq2GGHjffXza28cL6S3b300kthlllmicnXqquuGi+rs6t///037LXXXuHKK68Mv//+e1hqqaXC0UcfHfW/KH///Xdcn9+bH7nwwgvDBhts0NM+vP322x1220wXurWBDW6G93rrrRduuumm8Oeff4ZBBx00XnnnnXeGJZZYovKur7/+OowyyiihTtfqdMIen3XWWcH6YbXnnnuGhRZaqKd9+Pnnn6Pvs+cTTzxx5Zw++eSTsM8++4Q77rgjDD300GHppZeO16d9qfPFXfW1dTjRJ/ZaFja90UYbNd3SlsnMaaedFnbYYYe4cJvSLjJz7bXXRuVgzMsuu2wwIZsq0Fx11VWR1LRbkJn555+/p7EHGmig+PsBUVZbbbVwww03hO233z7MM888kdQhrSeccEJ0KvYmicAw+eSTR8c/1VRTxYDcXWGgM8wwQwxMApLgsvnmm4cjjzwybLrpplEvGCZHao6PP/543L/bbrstLLDAAtGpms9EE00UzjvvvGikRTKDIPz1119Rzzh1DvWaa64Jb7zxRmXg6u7zynj8+uuvYcoppwyLLbZYdO4ffPBB2GWXXSJx56QI54TI/e+/F4nOZUAlM81wQLYFVkRg0UUXjbq59957x0SILgqy008/fXTUrQi9Rlz4t++++y6svvrqYc0112z5/qpnvPrqq2HOOecM119/fZh99tkjIRF0kBsO+amnnoq/56BXWGGFDrt77rnnwqSTThp1m+5aK9It0TvmmGNi4jD88MPHe+jnUUcdFcnKZpttFgMAPaLj9IzteJbA5vOxxhornH/++aFublV6i2zBnP83d8SMfY433niReDezK/MWgJGZscceO45hrhKOoiCQ1mMPE5k56aSTwi233BITkyqp04VW9r8z1/CH/GTauyKZqRrnzDPPDBdddFF49NFH48fNdK1OJ+inmEjv+Wd7jXxI7OgMnVXdp2OjjjpqJLOKDxLlsiCY00wzTfxjDAm1xNA4F198cSRLzXxxu31tEScJ5Mwzzxx1SjzujLRMZrB/wePbb7+NzpiiyR67KwyNowdiUQQaxjLbbLPFXws+FNti55hjjrixKVOxuWuttVZ48MEH48YIBoJWYq3lOSIzGL+qQ5XsvvvukbBRjmeeeSZ89tln0XnstttuUTE//fTTsOSSS0bjG3300eNnSN6tt94ale3777+PTFw2laoWDJSD5UzM170yrmKbCYHYdddd4zpkX/PNN190IoI1aTSGz9xjfE593HHHjU7GWK0ohDlwkP5WLSjKFVdcEZ2ogJFEVsiIOEvVuXfeeafbmSwHnrKs9BykhuFx+hyxPWVoSbbeeuuYmcpiZRoySPsy+OCDh9tvv70HMsPBI0pwIYx8iimmiGtDgMrS3eeVxzO/Cy64IBKWlPWfeuqpMYjSCWKdqgSIDL0fUMlMMxyQF5W1ou+ZbLLJok9i0wgOXaYbdWLvVU0Qy/HHHz9eTt859o8//jgMPPDAdUNUfk4fBYm33nqr43MVbZVfRNtn/IgsNQm9FOzpOLvy7HPOOafj82mnnTZss802UT9U8lRd+AfCJhA4fgp54Tfff//9Dt8j8EkK2Gnd3MoL4pf5tCeffLJyrc3sCmmR9Kj40ulGguwh9fYMLonMHHzwwdE27EmV1OlClzavyU187BhjjBFUWuadd94eKjPl28Qhe4aI+btO18SzZjrBN4455pg9xDRzQQLFPnqDiKdKDF8ozvE79Koo5k/Hjz322Eh8CCzNgS7V+eJ2+toyTg888EBYY401YvzrrLRMZrAxRoT5cRztqswAVGBn5EqQVcGXQsjIVXFkGFj9ddddFz766KNo9Iz6yy+/jM4BecCGBS6ko2q8OjIjcKsKyZyXX375qMCIAgVRqfjtt99iEB9ppJFixuFnJWrMm+Ep96omIFWyB/PAet2remDNlBMhsHnpzMwZZ5wRAx4stFFUShAo99vcRmN4DqesQoIcKm1znsrUVWXaspLIljgrSlwnyovmhqghPgzFnO1duwWJW2SRRSL2jA+R9qwkDBCWyt9FqSIz9hI5he0QQwwRHayxkFVBpizdfV4dFkgYfdHKY1NFQcgGZDKTsGgFB8SGPmpLqarKmmX3iIQ2lAqJYFxFWJH3HXfcsYcWFGIjCNMVdt8VcS8fozooyxQ87DP7FHj8rQJXrDhIEGTSKo32nk8oltUR+yGHHDL6EL4GmUlVZEkQnVYtmWuuuWKy5zkqmD5DlLQPVHjq5lZer2QK+eZrBXP+FcnmF0kzu7JuiRXCbt58mJaX/VBhSuJ32oXGRrYSmTG25Iw/9Wykla0UK67F+ZZ1oSt718o9cK4jM6pX/AqfTup0zXXNdKI8L3FFMs5/0f+iqBhJZMWBhx9+uCVSrpKjtdSoClb0xe30tWWctO+QduRXZZOeqDI2KjwU59IymUk3tZvMMDasUqlJoKQksivGmHq8eq0ypXS+gZGMNtpo0VnJDJAZBowUERmIwM94VE7K0gqZAWrxXI3gg9AllqtyhARgqYnMcKip7y1oInyMUakV6aFcRH/YepUssfFEZjg5FYWHHnooOqeiNBtDFYETSGeO3EeZla3vvffeWvtEShgEp1MncOFYESzGymHC2fraKYgKB2+PkWjkTLULCUmiUidTpQ91BiZj1dPmMIhApZJWdR7I5919XiMstLXoLDF3WXP5fEYrQbydWPetY7WCA2eoEiq5IaptiAv95zPYhr8R3nSmJK1X+4MdIhFJ6InWjbMsSu1dFfYooeEbCActASApGAra2kh+RlzMT+UZAeA7VlpppY7HS2pUW7Tg6THbk9zxn5Iva5HEabPxA4IBGyXOuaRzWn5uNrfyeiVfAqIqYmrrCSzmqRrUzK4EWuRKpUyVRZCVXPHNl19+eXyU5I/fM2cJXpHMSMwke4iQtgNCYI38aNXelHWhq3tXd18dmVGFSYQ6VfzqdE1sEfsa6USaE78EI3HI36lqnz6nO2ISUk8/ylWZqrUl0i9W0JWylH1x8fOqxLFVX1uFk0qg+IJ4qzDaf+QXR0Csm0kfJzNpcogM5afQiAACQ3GVnDir/fffP7LGYg8wORxkhsEk9mYzbWqx1FoEodEBYKVOBIBz4PyQkyQ2PGVUyUkIrgJpIjOMLCmDdchgZIjKp9aATZel2GYyX8r61VdfxZYeR4ekca7Nxqj6DIYciDHrhHMUAFohM5wbA+VgiD1jhAIGPLor2koqSpw5bBglgYtKmN8nQWY4MFW5OgPj3AUAejTiiCPGEj4iYV9lw85tJeFYEMyuPk/ZvHgo2vgCM2FwCKxMkz7I3AWoorQSxLuLc79wfzMcOEzOzf6pgKRyeXldsnUOXfAsHrB1nf2n8/xIkkRmBFd+oitif+kbXfVMVU+VYkQDQSfsE0Hgb1RitMSRhnQWRftglVVW6Xg8MkOvJA2qJFrh1i3I81eIEp1WAdK+XmeddSI+Wk/siU4jNK3MrbhmZ7wkhMVjACoj/JIKeTO7UnkWbBF47SYiWLufHSBiyCdCo8oEkyKZqcKer1FtS4mra1rVha7sZdU9dWTGfjhXmAhbq7rWTCfSPOg7nyuplIwJ9slHusb+0jfJtthEv1JRoGotxnAwXfUbeSxKI19cvKaKzDTTiZFHHrnj9iqcquaoakR36zoHfQ2ZKS4CscHObIQMAJtnGM7pyKSRBwGpO2Sm6gCwcy/O4QCZ0ihzEZuqFynL0GJjgIiOObaTzCQMGL/Nc3YAFnBQAWlEiBqRGT3QRm9xFPGWQcK3TlmUqLFlDrQs2j2tlAKbORTjIhEMUqadKhjukWmrABWdqoyBThQza9eWDUxfVrArZ9uCnHkjc4mgul8w6M7zjJHOwfg3zKocinU6P4WMqTQmyWTm/yHRCAc2p0UHM4Sw+DZYlX7JkrWF6VZR2LCAj4gnSW0mOlN0vM30tvyZii19KpJUbQTkpeotSvcjO2xVextRUKkpBhe+hg4VK5PpuYmA8ZWq0tZZrFbyZXQasXF2pjNzk0Twi6ld4pnGR0QQimZ2JTnkK+GbWiEp0ZSVqzanKrVxWyEznm29kkXSWV3ozD42uraOzFiztRXJc1d0ragTVXPR2tet4APLIkaqPiPs6c2z8jXwRpL9XT4r2cwXF8fprK9VnEhShVPVOu11Om7RbP/6KJkRqLFCWQTGXRRlOYZH6Rmi3jaDJloxNrI7ZKbZAeAymWH8jFFVSN+WOMgpE2qFzFBsG1LMAP1O35mjSW0mZ0Kc8VERIA5GKz076S6TbzSGszU+48ySOPOhuoQU1YkKh+DA+RazQfcxBr9XFdNidM5Eab4oHLD2TfH5dc+s+lx2YL7KneUAZQ6p1J7u1UtlTKl8n35fNjBnioxXrJC4VvVOcCiv2WfdeV7V2jzbfJHGdF4gvcFQDpyZzPw/BKtwkFioYiAoys/FM3GqD9o5/qQKaTpHIfsvn+tCIp3BQwDS66AqA142KLZsO6vL9JQ9CHpJ+DOlcz4AKVd1pA9E4HBINL2ph3hpayPrSVQ2VFq1ptmiMzDp5Yh0sFzFxrlB11hbItCptSkZUq5vNrfyWs2bn6OrSZxjk9ipDjWzK1VcuFp3OgCcKjOCreplo4OeKsoq82xUOzaJvbdu1aZmutDZPevM9c3IjAO0gjTCVWxr1ulanU5U2YL4AV+xSLWKX9YKTDqF7PPfVW8E0yHEwjmZFNOKGDTzxcXruuprG+Eklqg8FStvqunOiKW3whrtVctkBvtjYDYSEFgnpfJ6F6XtqsiMOHotGSVJrQAKrxyrdSTYaCMhNIxC9sKoLVoQt3ldaTN1hsxwkgIQR+cVOA5DpuJvSmrODuU1ajOlA8AMkAJhwsrIXvWDZyIznJvXQzkn2RDSBmcZFYen11w1hpYchq4SI6Oz6dbH2Tvh7n5VHm+AlL/fIe2b/jwHKxBob8mYEC1vXiCVyCSHanwZQ1E4UUblrE9Xvy9H9clz/V313Qicn2fASuarJG8vkLzyuZeq0idnYE10R1mWk7YOBLWqRdHd55XtwR5oW7AVzxVkkWaE9f777+/h8kxmGpMZfoj9KKWXz5W5S6C1d+yLM0fq7TEH6QAte0O66Tmh95Iq9qy9K4tV6ezOd2jRTT4JCUCU0/erIFPsSXVCAHHAVaCmD1pGfJtqED/iflUnwRtZ5/sEeLqtSssH+9zvtFr5UW0fhEVFk92zE2RAEqhFRc/q5mY82LETvsJbnXwL4uI5CIbgiZQJ2nV2Zb0q3IgZP6mdy5cXD/In5S9XZsxBNQuOqlX2SELFR/BFdbrQ1ZhUd18zMoM0WzPfWZZmulanEzCHIcLCx6r08MViUCKXvvNGfFAJFjedF0v+TbLruIKkFdFSNRNz11577Z7mWeeLm5EZn9XphGsa4ST2i+l0UJFDYqtCqWWb3kTtNplhfMXXYtOAHlClmHUKkT7neIDKOSnNezsJQZJdMB4/M3TGKQAwVD8LzqobjNpGd/bMTGfIjLlyFOm7K5TkOBJzQhw4CmSnEZlxv01KFR+GKUNyXqJ4ZgZpshYOR2YoyFpjOs/RaAzjIxLuVcaW8Qj66cAUR659VnwFtbw/yBIjTK+WIw7IBadP8TFj2ZWgXFV+h4myJpLQFeEsi2w8jZHOMflZVQPhs0YGaz9S2ZJj4+TL4npOUItM7xWGHL5MRsuwGfnqzvOqMFApg3H6gjbkne5biwBrrWWh71WOsSsY9wv31OGgIlDVDrX3znGl83WcvUwNGeAYvdZK6JigkNqAEjSEgv2oZLBpAbOVrzRohqdkK52JYY+IjDN3kh4iuLBPh2IdpOWsU6UlOXvJiURB1UYQ4xcJP8HfcfTOr/m3dmk6SM4P8Vf0zJoQI8SAnpFmc+OH+afiK72Iiwo6PURgBMz0tRd1doUoIm3OcPAxgqn9kKyVpUxmVF4QOUEZ0VNtk1ilqludLrRb3xFd6yiLJDeRAiQCvlU6WqdrzXRCIkZHXCMOS4wcD0gBXoeAfomHKvz8GpKc/Ft68xQpdk6mfH4srck4KpPNfHE7fG0znMR3++z4ANKKlFeRrvI+tFyZabdi5PF6LwKcNKJRfCWy984gPy0jkBHICGQEMgK9BoFMZnoNrn3VqDIC5e5Wzs/0VRPPk8kIZAQyAhmBjEALCGQy0wJI+ZKMQEYgI5ARyAhkBPpeBDKZ6Xv3Js8sI5ARyAhkBDICGYEWEMhkpgWQ8iUZgYxARiAjkBHICPS9CGQy0/fuTZ5ZRiAjkBHICGQEMgItIJDJTAsg5UsyAhmBjEBGICOQEeh7Echkpu/dmzyzjEBGICOQEcgIZARaQCCTmRZAypdkBDICGYGMQEYgI9D3IpDJTN+7N3lmGYGMQEYgI5ARyAi0gEAHmWnh2nxJRiAjkBHICGQEMgIZgb4SgYH+978K/9tXzixPKiOQEcgIZAQyAhmBjEALCGQy0wJI+ZKMQEYgI5ARyAhkBPpeBDKZ6Xv3Js8sI5ARyAhkBDICGYEWEMhkpgWQ8iUZgYxARiAjkBHICPS9CGQy0/fuTZ5ZRiAjkBHICGQEMgItIJDJTAsg5UsyAhmBjEBGICOQEeh7Echkpu/dmzyzjEBGICOQEcgIZARaQCCTmRZAypdkBDICGYGMQEYgI9D3IpDJTM3ezDfffGGdddYJm222WW/bxR9++CGMPfbY4amnngpTTz11T8+96KKLwqmnnhqefPLJ3jan/KCMQEYgI5ARyAj0rQi0RGa+/fbbcMghh4S77747/Pzzz2HOOecMe+yxR5hhhhn61nXVzmunnXYKZ555Zg/XjTPOOGGuueYKu+yySweJeO6558IYY4wRxhprrNox23XBX3/9FR577LEw88wzh6GHHrqXk5l//vknnHzyyeGqq64KH3zwQRh++OHjHm+77baVe7zccsuF+++/P7zyyith/PHHb8uyEbfDDz88EjRjrrvuumGrrbbqGPull14KO+ywQ3jttdci0dtuu+3C+uuv3/G5NRx66KHhqKOOCjfddFNYcMEFOz775ZdfwmGHHRZuueWWqL8I6n777RcmnnjihnPvzvOqBn3//ffDwQcfHO67776I79JLLx322muvMMwww3Rcftttt0XSvMUWW4R99tmnLbj2T4NceumllUmFvbKXf/75ZzjxxBPDDTfcEN5+++0w44wzhtNOOy1MNNFElTBIGmD9+OOPhyGHHDLQ6yOOOCIMMsgg3YLtoYceCkcffXR45plnwiSTTBL1dJNNNoljfvjhh2GqqabqafzTTz89rLfeevH37GrHHXeMf88000xh4403DiuttFLHPVdffXUc/7PPPgvzzjtv9MXTTz99/Jy/OvLII8Ojjz4aRhhhhGhHu+++e8e99H/LLbcMDz/8cBh33HHDsssu28Pn5Yk1syvXNpuLOb3zzjs9DLn22muHs846K/6uzsbSjZ9++mn0hdtss00PdlGHU7c2sRM333PPPWH55ZevvMN+jzLKKKHO/q+77roYj1588cXo/w444ICw5JJLdox5+eWXh+OOOy589NFHYcoppwzHHntsxCRJs30oTqyVuTbTX2Odc8454cILLwzvvvtu1E/xcoEFFoiP+e2336IN3XjjjeH7778P88wzT9h3333D5JNP3pJ+1j272ba0RGYY4zXXXBODuo2hRBwyZfRzvyjIDGdwxRVXxOn/+++/0fkwtCeeeCI8/fTT0cH1jdLuygyHd/PNN0fygMz98ccf4c0334zVH3gstdRSHTAwSiSW459iiinC3nvv3W2IODzkaeeddw4bbLBBJHLIiuC/Gy11ZgAAIABJREFU4YYbBv/vxjTTTBMDgjkiPmuttVbgABATZGXNNdcME0wwQYCNYFYkM5tuumn4+++/o4NAHk444YR4zfPPP18ZuLr7vDIgv/76azT6hRdeOOy6664xoCEynD2MCXKFyP3vG7nDEksskclMhVYhJrfffnvU1SpBZOjrSSedFLEV8DlvtjzwwAP3dMsqq6wS958+fPfdd5F0rLrqqk2De52yC0YLLbRQOOigg+JYDzzwQCThxxxzTNRZPnPuuecOP/30UxhooIF6Go6uIDt0duutt44+ic5bB/JhLcsss0wMKHT/vPPOC3fccUfEhe4IcCussEJ8pmCz+eabR13ybLLaaqtFLGAl2LA3wQa5LkudXTWbi2cIypdcckkkXGWps7Hi9auvvnq0eaQukfw6nOr2qVd/fu6554bLLrss3HvvvaHO/u3x/PPPHxBaeyvp4icQUmSYX7A/559/ftxze2//Xn755RiH6/ahbq3FudbpLxIj8eVnxxtvvLg+OiQhEA/4beuRmNJXSaTP6L09b6afdc+uW0ctmWF0Y445ZlC1QGIGG2ywsNhii0WgORWG2y9KmcykNTDg0UcfPToPATa1mSaccMIYMDHj//znP/FySmrDrrzyyhioKAVnKlhpD3ESibHCSRak+iGLZOSU99prrw1vvPFGzCJXXHHFsNFGG4Vym0lw32233aJzmnXWWeOYnpnaTMjX/vvvH1m9faJcsphWhOFwFuZVdmjYPvLi2Uk4adURWSRGzqC6m8lah/XIPJJw4AgmjC6++OIYmBhEEpkr3YS5zO3VV1+Neikbvf7663sgM4gEoiQrJG+99VbEmz7b17J093nl8czPfsMrYSULO/vss6PhE04CqZSBzzLLLJnMVCivjO/111+PWFUJ+xI4k76qKiA19GrRRRft4Zb33nsvTDvttHE8TpnQ9z333DPqRxX5acWe2Cpynqos7kGS6KUAJPP0M7uqEgGQbjz44IOVn7NrY6mUl8U9CBp9G3zwwTv0iu6pqvNd/Ic1jzTSSLXLqbOrZnNhu8MNN1wMZBKRztpYup4tq7hKoCQriczU4VS7uF54wTfffBNmm222WCG29jr7F/jh5PokyKxuwIEHHhirh/QRmU9ifEQVwWu2D3XLLM+1Tn9V6yWGxblMNtlkMdbxX5IyiWRKJlMlkn/272b6WffsurXUkpmqARZZZJEIPuPhePtFaURmvvrqqxjgZDscYyIzlAZL5pBUJYjKgCDJed15550xGzrllFNiFs4IOUYBmFIKtJipErDN17pDSlQIKDxSINj6mXNNZ2YmnXTSWFZEdFRBEBfKqyKGBHz55ZdhuummiwxYRiaDwY4Ffz/XCceP2Wsb1YngYD5KnIiPf3O8iy++eN2tnf5cdYJBKJHDEV6pPG0wLQcZePncUBWZUQX54osvIjEaYoghYmbBwT/yyCORnJelu8+rW+yPP/4Ys/Y55pgjZvBFsWeZzFQjaB/ZyVBDDRX3jj1y9slx0kn2Wmyr0CP+CpEsChLvOk42SXK8iI6Eph3CN0hk2Im2wa233hr4HvMSvGTWEhg2S/gQhPfjjz+Oa+QLBHAZO0FGVFmU8SVBfA175CNUgfgJPiGRGZmzAKLyhKzJ7pE4/gnh4Ne0qaqqRMX1V9lVs7nQcX7Puu666674fGsQuFVHW7ExY3iGhEWCkbBoBad27F1Xx9DG41f4pyop2z+yxq8XK478gsqxfaLTqtJFgizZ0zlA1JvtQ90a6uZapb/0UbwbbbTRYluTz6J7Ve1cbXVnTo0jNjXTz7IOlp9dt5ZOkRnBTPnrjDPOiJmOwNuvShWZcVZFaTedB+EQigeAsVJ9eesnFIyRKyEr38r2GWkSmSLCgvAgM0iHa4nNT+XT8rmTYmUGc0aeOFrPIttvv31UfoFciZzDKhoCwuQzZKtOBFXEyTh1whHDx3kExkoXOE4lx3YKosKYn3322ej44DzyyCNHIphEWV3GApc6p+ucAIODGRGoYNPozFd3n9cIC607wYfIYrSYylWtTGYaaxIS76yHc1FsFSGRofsd20LgL7jggliF0BKnR3SUM012l0bXnhEkVZiT0BP3SdSM1x0xPn+BeGmXChrEfNmQpEgV1dwRHS1Q56XWWGON2GYVpJAga0A26C4SokqOxCEFkomU4EhIfv/996jT7MI9CBHMVJlVgrTU2RXfR8cFS880Rt0LDlVkptlc+C1tBxVUvk/VGN7mZ49asTH3SgDhY35FMlOHU3f2rjv3IsJaKdabKn5pvEb2b7/FU2fmtJv8TF/ojn2X/NLt4rkce8b3Scqa7YMxGkmzuTbSX2OxqVSZEQf4sVT1Lj5L25MO83X0UFxrpp/IEWn27GZ70zKZwSaVvgQ0lQTBpJVSZXcUo1feW3UA2PMYIEatr02KZAZpcIaDY1Bqo6zOEjnkNPvss8e2RVmwaRUBBi0zY6CE4+HUOF5khTIjQ9pWRTIjE1XCQyCSUCSldoSl0Tq0soptmUZYMhCVqFbIDAdizYIJwcrNm5G24+yUTFGWyTi0vWQchOMbccQRo0EnoX+yk3K5vsrpat0wOpm9zzlTf7R4ZBj0OonKHLLY1eelA3ppPJmVvSccs0Ap47Y++80ZFSWTmc5ZPf1TcpfdOnyoUqPiYR8Qdb8T/MsVMBUKlT77kSSRmUQcOjeTHq/+/PPPo37JTB3e1AZOhKY8bjoYLomSACHbzkUkUXFiC0r4ww47bKz+8kNEW5ytIz0qUMhZaluwSZUR1devv/46ViQFCvaaBG4q7KonzaRsVxLburmUx4OF9bViY7J4+8fHSGTKZKYZTohhnxLP9hIF/1KWZvYvIUTaXnjhhViZTaQGEXV4VotVVSMJMoOsek5n9yGN0WyujfT3+OOPj4TcfLRw+WHkBlFORyqMT8eQarYn+U9JWzP9TMc3OmM7RYxbIjMOhCqLCp6YFkNrVxm2TykdEqDEnA6wcmSIB5KQSrrmViQzCIzNcQ0niW3aNOUxDtVZleIbOMW1CWjGTeXk9Jn2CWfC4dloFRsMNbWZkBmOsOiAimQGOeKoykGxVVwRKmdg6tpM2jSMSkZcFs6zvK5Wn5+uM64xBBLGglQmQUI4wKKD57zhUMysXV92ujJEla9ytp2yW8HQQfAkDl9253nGgWcS5JSzKYv5CD7IWMpIXJPJTOc0h84I6IJ0lTjLps1SJhKyYC0d52OSpDYTIiSAtktUhSQ9qTJYHlcgULpXVkfcOfVii8Ia+WBBgQ0ibBKLJCoB1iIDLguy7myFAIvAIUIqnkk8G6HhZ5pJVZLQ2bk4O6LKgORpGzWyaf5QgiipcE6RlMlMHU7t2rvOjiNB0fIvvolUNUYj+0/XSmDtGZyQBLFJOzKJOMOvqFZ3dh/SGK3Otai/XhBR6SzGOfPSLkV0CP1CRMVDBLyZFPWz6ro62yne0xKZSdk/xZI1O3fQr0tVm0l1QvlXVjDqqKPGJZa/ZwZ5ULpz+LR4EE+bSVDiLJIIVEiJdlWZzDg8jMgoNSdBGBmBA4KJzAjGK6+8cvjkk0863q7iuBhDajMhV0rGSbR+zNEBvDrBrDl7ZKjI/N3H+WnHaGFRKteU+8A+56QbOeq656fPOWiZm8pf8XVln3sGZ18kCUr4cFXJKUrZ6Sp12pdihcT1nCpHUF5zd59XtV4Ga75aAYyepDcYyoEzk5nGGoM0s5di0PamnWCuuiEgCwCyduLfDuIr26dXl4s2gtC6x8FSIqHgA7rz/U3p7Y1i29eYKnHm4cC/agMCkcRhXsmEyi9SJtt2UDiJJEjlV4ATxLXC0gFgRM46JADO+FmDM2wp2UTi+CrkX0IkGKnypqq6+Wp18QPNpIrMNJuLqpB1qwalr5ewRmuRfDmT2MimBUfJYZVYqxZOHU6t+p12XoeMIgj8b6oyGL/O/lPL1Pkl4mfr97Nk03kvnREvDCTRrqEPYkOzfWj0gk6judbpr/Np9KxY6SxWzq2drooX4kpRHNFopp91z67bq1oyw9gdVCRaL0Uiw6kI4v2iVJEZpdP0RoxMipTJDIOkRLIMQZbyEpkeI9RSUhbmMGwmp8YAy2TGpmrX+JyDVjJUWsRu/V08AKxKYSwHFpEGbHfQQQft4QCwLIbiMwQK7t/YsZIdsqPkl87clPcLSXX+wDXWqwLlcKHgIUik75uRHTj/UxTzVs1Qpvb2V1dEaRWJU2WpOkSmCuYZjMa6BAWsn5Mon3upcroIgjXBTbmeI/RvBDCR1uK8u/u8Mgb2gIELsvBTBVTi9ZxyEMlkprEGKW0rxavIpYOhnCa9QU4RVjaIhGudqkggxkr1hN5ovdJzQu/ZPIKuSsCfqQA0qq62otvsAEFOztzz+Br2y2+ovNIDa1Fd8TP70kJ17kCL2Xkd97A3JEVl1txl4KoWrnP+hO9RWZYJ+9yBUHqGnCHqCJQkwWFhVUDi2ci9wMG3C5hs3LOQP+TDPMu+osqums0FybJHEjTnCAU5lWzE0/51xsbMu1yZqcOplb1q9zUOWNvXYuXLM+rsXyxBtvnw9EaQ4weOLagQGk/8oNdigwodYiO5k9DV6YTqm8S2+BUbjeZap7/02jzSmS767ZiEChLi5HA6Itvo8HMz/ax7dt1+1ZKZxKarBpIdpDMgdQ/q2z5v9DaTQ1FYsQoNp1EmM6nVJLMpK60gydmqohiD00xv+lS1mSiGDEVQNS6D5YSw8OI3AMucHOgT9CkDhaHQ6bVemaTgTLFkos7BcJBEFohJF19BLe8FAoS4mLvvnuAMrdv8GZmKCYKEzVeV35EmmWCxKtWZ/ZahpRJl8T7P5qSJlqByu7+1bpwD8FzCOerbloWjZlRaZBw2o+cE7Y3rm5Gv7jyvau0CB0dnPapm9sS6rcW+Vc0FiS3rWGdw7d+uLb6qL/A6TG1f06Fq60X46aEzT6oQKsmJsNIxFYpkN+yMjiNDSA8dl3HWvdlTh6vqojmkr0oQRMwrHcYUqAQDdu8QL4JebBu5T2CTUCBp5lQ8jyBwqHrQa7psXam6lN6KVBVGfthM8S0YbxUhefQQLsU3qVQOPUci5k2kOruCQ7O5mL8YgbDxG0ieFm5606qZjZUxLpMZn9fhVLdP7f4cEZTgVrXsm9m/eSAcYqnqhYPeyG3xTWHkQ/IreeTj+bXit8M32wd+0n6KaUmazbWZ/mp3qoa7hp6Yq/NbYmX6WpMqXNmdRK1OP+tsp9me1ZKZdm94Hq/3I8CZUd7U4uj9M8hPzAhkBDICGYGMQK9DIJOZXodtXzGy7NOBrUbfmtpXTDJPIiOQEcgIZAQyAt1AIJOZboCXb80IZAQyAhmBjEBGoM8jkMlMn9+DPIOMQEYgI5ARyAhkBLqBQCYz3QAv35oRyAhkBDICGYGMQJ9HIJOZPr8HeQYZgYxARiAjkBHICHQDgUxmugFevjUjkBHICGQEMgIZgT6PQCYzfX4P8gwyAhmBjEBGICOQEegGApnMdAO8fGtGICOQEcgIZAQyAn0egUxm+vwe5BlkBDICGYGMQEYgI9ANBCKZKf6nWN0YK9+aEcgIZAQyAhmBjEBGoLci8N///jdkMtNbIc8PywhkBDICGYGMQEagnQhkMtNONPNYGYGMQEYgI5ARyAj0dgQymentkOcHZgQyAhmBjEBGICPQTgQymWknmnmsjEBGICOQEcgIZAR6OwKZzPR2yPMDMwIZgYxARiAjkBFoJwKZzLQTzTxWRiAjkBHICGQEMgK9HYFMZno75PmBGYGMQEYgI5ARyAi0E4FMZtqJZh4rI5ARyAhkBDICGYHejkAmM70d8v//wNlmmy1ssMEGYauttuqDs8iPzghkBDICGYGMQL+NQMtk5osvvgj7779/uPvuu4Ob5p9//vjzVFNN1dcjcOONN4bTTz89vPjii3GuM844Y1h55ZXDxhtv3EvmPt1004WXX345jj3kkEOG8ccfP/jd4YcfHiaeeOKOZz7zzDNhzDHHDGOPPXYvmUdnBv3nn3/C8ccfHy677LLw3nvvhRFGGCHMPffcYaeddgozzTRTT0Mtvvji4Z577gnvvvtumGCCCTrzqIbXPvHEE+Gggw4Kjz32WJhwwgnDhhtuGLbbbruO61944YVI/F555ZUwzjjjhJ133rmHPbSGAw44IBx66KHhrrvuCgsvvHDHvb/88kv8jC789NNPYcEFFwyHHHJImGSSSRrOpzvPqxoUrvvuu2+0Ifgut9xycU7DDDNMx+U333xzWH/99cO2224bDjzwwLbg2r8NwrbowUsvvRRmmWWWsMUWW4RVV121p2V+8skn0T/tuOOODbH84Ycfop498sgjYaihhgorrrhiOO6448IggwzSZdg++OCDqL9lOffcc8NGG20U9t5773DYYYf19Dm/9Nxzz8XfN1vjb7/9Fg4++OBw7bXXhu+++y76Yj9PMcUU8d5W1/T333+HWWedNerifffd13C9zeayySabBOsqirXT9SSvv/563J/RRhut4XPq5tJoLy+99NJwyimnhNdeey36qT322CPwTb1Sfvzxx7DeeuuFm266Kfz5559h0EEH7dRaXbzDDjuEE088seP+VnSimX8rrpderLLKKtE/F31g8Rp47rPPPuGOO+4IQw89dFh66aWj76ULrcylGe7d1c+6ONBob1siM0CcfvrpYxARmIcYYojw1ltvhVFHHTW88847YbjhhuuVutOtsW0sxeM8ll122UjErr766hjIrrrqqkhq2i2Ii4oLIvD777+HV199NZx99tnhwgsvDLfccktYaKGF2v3Ibo+32mqrhRtuuCFsv/32YZ555gl//PFH4IROOOGEOG/YJeGoJp988uj4BQsBubvy9ttvhxlmmCE6Iw5ScNl8883DkUceGTbddNO4b4igwGWOjz/+eNy72267LSywwAIBWTGfiSaaKJx33nnRSIuGjCD89ddfUQ+GHXbYcPTRR4drrrkmvPHGG5WBq7vPK+Px66+/himnnDIstthiYa+99goC3i677BKJNd0ge+65ZyRy//vvRaJzyWSmZ62CI/KMzAgITz31VCS09GW88cbr4YYVVlghcIz0qBGW9BpxOe200yIxWH311cOaa64ZHX1XBQmeeeaZo74NNNBALQ2zzjrrRAKElNStkQ1Y97HHHhvXzP4effTRwIaspdU1IW1HHXVUtOFGZKZuLkiK2NAIL/53v/32i/4CyWr0nLq5VO2lxIseIDOLLrpo9FMCsaS1VyXZfCJfOfvss0cSVyQzra716aefjomMAkGZDBWVpagTdf4t3ffzzz9Hgv/VV19F/1ZFZv79998wzTTTxD8IzDfffBMTw0knnTRcfPHFlfpanEsd7t3Rz7o40MyYWiIzH330UXQYFJLikCWXXDIGDM53zjnnbMlg+8RFm222WXQO5U2y0RyBVg8R3BANjmiOOeaIZEfWQgT3tdZaKzz44INx4wUbQbERKSmSmeKaKYzKAHKDEBbbTEiPYObz77//Psw333zh5JNPDuOOO24c4sknn4zZur1Ye+21o8KqQCCYxNw4FIbsHsF71113bcmZeiZn4W9GVpQrrrgiVl84iSSqC54ry1Q5QWi7k8kaFzlJbD89B6lheJzG+eefHzGn7Em23nrrIEu65JJLgkxDBkkvBx988HD77bf3YMiIBKIEF/Lmm2/GTNbaEKCydPd55fHM74ILLoh7nLA69dRTYxClD8Q6VQkQGbqRyUzPHoMd80HsoZmwb5VjpAJJqMLS3qvMIZaSNELf2enHH38cBh544KbPaPThAw88ENZYY40YrFqR+++/PxJ2+qs6VLdGOrTIIot06HeqBEkyJJ6trOnDDz+MRJoNIUKNSEbdXJAIvsM4VQJPNknPVSSrnlM3l0Z7ibyosvKLSSabbLKYLEgme4Xws2OMMUb4+uuvw7zzztsDGWllrSpQiBA/Sz8bkZmyTtT5t7RWiZ7KCKwlSVVkxtzpODKsIEFgKeYV/WsaszyXOty7o5/sulkcaLanLZGZ8gBYH2dLkSiiTLdvFRsm+5CtL7XUUpXBXUsCm8SsxxprrEgSrrvuukgcODTE4ssvvwx33nlnzAovuuiiGBg//fTTyvEakRnOTVsJM0dGimQG8dB2MtdRRhklHHHEEfG6Z599NmZ4qhLLL798dMoI1zbbbBPLm0rtn332WXRgMjTkzX3rrrtuHKMVo5bhUiKEok44Sy0eRItBapEJ0rBtt6i4cNpIGuP79ttv47OSMCr7C4OiVJEZVZDPP/886gEiqaVmLJgPNthgPU29u8+rwwIJk0Fr5Wk/FoXzz2SmGkGZODLINgUW9sgm2EYS2Mo6kVykFFGpIjPIuxZUsSWSiAFdEbS6ItoP7BMpvf7668Pwww8fq0MqtWURzPgLOi5JIa2ssTiOdoK2Aj8giLWypmWWWSa2ZeAHp0Zkpm4uArMqiEq9Vo/EFtksJwh0vBGZaTaXVvcSHuIR36RVq/XWK0UlsExm0vOarTUlzfwQn823lxPBKp2o828+V4Xkk1WPJOKNyEwVLqpn7hcLi1I3l1Zw74p+FudQjAPN9rTTZEZPjYJNPfXUMZOkzH2zaJfI6M8888yYtVBA2YRKSyJhqiIysXR+AnPV32WcMnpkRrUG0SAqEUpyyMnoo4/e0/IbkRkX6k+eddZZ0XElMrPlllvGXqU2j7McRDXJ2Kpf2DyGrSqUWnoqDM8//3wM5AyEQ0pngtyPHOm/33vvvbXbwwA4AdlTnXDUKiaIHBIgE4DDlVdeWXdrpz5HVFSA7IEzJcgZkoeEJFFJU8mwX3XGrvy6xBJLxEoiEahuvfXWyvNAPu/u8xotVluLThFz53DKziyTmcaqopX48MMPB1Wt1FpAEhB87Q6iSsCxITLIfCMyww75BQlDEnrCxtiWtmdXRDWDjTinp/qrUiPA80Plw/7mmAh5qgS1ssY0L1XiueaaK+qSpKSVNakgSHz4C1lwMzJTNxfVTcSFv+FDrcff/NJ//vOfDvgaBfi6ubS6lx6ke6CqLRHt1dIVMvP+++/HapgWob0WQ6oqM1U6UeffkCJjI7Iq5vakVTKTSKhYIckuSt1c6nDvin4Wn1+OA832tdNkRjapxSCDQQxUK5RG+3ZBZGThjBcrRmBUWJSDGYCSH1aq/ZAkOTRkRik1ZVZKflo5lLPq8GszMpMqP5xPIjMrrbRSrNhUCWVSSdDmKWaQHKU/nAaDtwa9zCTWqP9ujnUiyFP+VsgM5yY4OEtDYEoPODBko7uiraSi5HCczDmRZeRipJFGir9PgsxwYKpmdcYuS0a+7POII44YzjnnnGjsDNm5G+eqkuhPq9R19XmqlUW9MD6CQhicsr6qgv3SBnGGqyiZzDTWImeOkPxi2xjRl2yoqMou+SikceSRR25KZuw/nWfnSRKZEejZcbtE5qsyUa5+8i18UJHk1K0xzcka+RGtFfaOFNetie0iIEiE6oX7mpGZVueS5qQ6olp7+eWXBxWXJFVkRlLcbC6t7qU9gx9blvyl1km79q5qnK6QGeSbr6QLKSGuIjNVOlHn3/hMrXV+hbRKZiR0kmmVQVX9sjSbSx3uXdHPZHON4kCzPe00mUmDKZvKAs4444xYQu2XBLGROalcyOhkbwjaSSedFDN1PUcBr91kBgniTCiccziJzCAISE6jbBABE4QZQBK4c8TNyIweaJEANdoj/Xrrr2szKb3LNGUBZZFdVpXRO6MXxkUiBHvZVapgGEPmpwJUDGJYuz0rZtauLbeZVLQ4uDK+nK55I3MqTUlUHbvzPOOkczD+DbOqVqx10gNkTCUwSSYzjbUGqVXdpP9J6IwKLH8ks9RSdGCRNKvMaEcIgoh4ktRmojPIULuEDe+222496Jm2ENJbrLh6XrM1Ih8kHSLlxyQtSerWpNqp0qsiRerITCtzKWOk7eQsnX1JUkVmYN9oLnxBK3upKou8sh/JQfHNwHbtXdU4nSUzyJ2XGbTzJaeNyEwjnSjOoezf+HjtPRXA5DNbITP2nk76u3xW0vOazaUO967qJ5trFgea7WlLZOahhx6KB9S0IlLbgrI6NyGYFA9g9UoF6uzYSAvWybFhxEXh+CiXQ4CCl/Icx0AwXGdA2k1mvCWht6ya4S2HYptJaRs54TySYLYOXTuA5UyAMyMUmcAcKUptJs4SMUvizIfPZIN1osLBIagQ6L0XRabn96pWHJJzJskRpuu8FaZ9U3x+3TOrPpcdmC8dKzslc2B4xUoTEg0PetjM2JU6jVeskLhedU3bqrxmn3XneVVr82zzRRqdoSDKzSpP5cCZyUxj7WG3qmqwS+JclVaLt0ymnXbaypuV9NleUZBISYTAkl6lVqXQti22bDury+whnX9L90pGnB1AYJNo0yPk/GtRmq3R2ydIvQyW3nv7qjNrUgFudDC5qtLcbC7s0dkgf1J7Ip1bUfkpnqOrIjPN5qLCIsmokrSXsncvYSBP2nitvjnW2f2sur6zZIbvh0mV8KnpxYRGOtHMv4kbjQ5gq1yzl7Lw5yqCql8qe1XSaC51uHdHP82jWRxotnctkRmvLGJ8Dv6qLDB8LNB3qDiB3+y7OtqhON0ZA/sXSBwAdJBIq8FhNxmK1pFgppSG0GjbYLkyHQ7JGRalwe60mZQROV6K4TAgx5UcbvkAsHmmc0icqtcVU7VE4NUK4RQ5ZYqoJ108AKwSo1/KYcpIGThnh2EbFwFyNqdKtLq0dTgm53ZkTMq2nCfSh+whVsZ3+LkoDmPSCWtzoLUrokrmuf4ufhdPGku1zDNke84GODfBQSB05e/BqToAjCBYk71FIDhp69BWrCpLd/d5ZQzsgQCkCue5nL7WobNRyGpRMplprEFe7+Vvdt9999hi1Cr29oTEI33PSvHucmVGEEoH6F1H7yU9Kj38m1eNBYbi9xt1Vp/5F36D/UrFm6j0AAAXzUlEQVSkkHMlfC3SFLSM6Tl0slhl8vu6NfpKAjpbvi/NszNrKldmEBrzZid8Rd1cEEm24h7VEUkUm0LmxIckzQ7FpmvqqkTlvZRIuydVOzq7T925vrNkpvysRpWZRjpRvL/Kv5XHL1dmJLsSZkmr9pDzNWJiOnRehUWjudTh3h39rIsD3SYzBgA+BRdEOGKnpZXi+8bvTCkumKHZNAqv9O/glTcdZHGcoZ9lAYK+dSFtfhb8jznmmFiR4Cw7e2YmfWlemouAi1wUX2Mvv5rtlUKEwpkNuCIuCARRsYC3jBEpcwYE4UnVEETCPD1X6VrQT314jsV+FV9BLSuF0h7iYo7O3yAOyAVyQ/FllZ4pKFeV35UpHapFEroiglM6YF28v/hFYqoaqhvWqHWDwSN1hIE5jFwW13P6WmR61QKN9dkHeDcjX915XhUGiCeM0xe02Ue6aS320VrLQh+Ryiz/HwHERcUVLgiM8wKN/FA5ANIx1ZDUBnRuw7kT9qMVyA8IvN3N8vkQSYAWKBtGwMuBA+lAzKr0vtEa+YZGb496hVkg6cyaygSCn3T+SEs8fZlnM7zTeUPtLZmxfUBs0hlApEvlsSxaeyr9ReksmVGNq2qN8wPpTF+77QbZhXNZ+GJ73OpaG5GZRjpR59/qyEx681TC7pxM8TxT8V7to3T2sdFcmuEuoe6OfrYSBxrtaUuVmXYrRB6v+wiolHgFj9NsRThpRCO1OFq5J1+TEcgIZAQyAhmBfgGBTGb6gV1SitYG0+JRxtXiU3Fwxqfc8qlajkzNuZBWzs/0A3DkKWYEMgIZgYxARqAHBDKZ6UcUQrnaGRHf0Ki07kCw74oo9qX7kaXkaWYEMgIZgYxARqCtCGQy01Y482AZgYxARiAjkBHICPRuBDKZ6d2I5+dlBDICGYGMQEYgI9BWBDKZaSucebCMQEYgI5ARyAhkBHo3ApnM9G7E8/MyAhmBjEBGICOQEWgrApnMtBXOPFhGICOQEcgIZAQyAr0bgUxmejfi+XkZgYxARiAjkBHICLQVgUxm2gpnHiwjkBHICGQEMgIZgd6NQAeZ6d0Pzs/LCGQEMgIZgYxARiAj0C4EBvrf/yr8b7sGy+NkBDICGYGMQEYgI5AR6N0IZDLTuxHPz8sIZAQyAhmBjEBGoK0IZDLTVjjzYBmBjEBGICOQEcgI9G4EMpnp3Yjn52UEMgIZgYxARiAj0FYEMplpK5x5sIxARiAjkBHICGQEejcCmcz0bsTz8zICGYGMQEYgI5ARaCsCmcy0Fc48WEYgI5ARyAhkBDICvRuBTGZ6N+L5eRmBjEBGICOQEcgItBWBTGbaCmceLCOQEcgIZAQyAhmB3o1Ap8nMEkssER5++OGw6qqrhgsuuKB3z7fjebfccks4++yzw8svvxx/N/3004cVVlghrL/++n1sTr3rwXfddVeYcMIJw6STTtqWR/7zzz/h5JNPDldddVX44IMPwvDDDx/mnHPOsO2224YZZpihp2cst9xy4f777w+vvPJKGH/88dsyh6eeeiocfvjh4cknn4xjrrvuumGrrbbqGPull14KO+ywQ3jttdfC2GOPHbbbbrse9toaDj300HDUUUeFm266KSy44IId9/7yyy/hsMMOC3Tm559/DvPNN1/Yb7/9wsQTT9xw7t15XtWg77//fjj44IPDfffdF/Fdeumlw1577RWGGWaYjstvu+22sNlmm4Utttgi7LPPPm3BtX8bhM7tuOOOUfdmmmmmsPHGG4eVVlqpY5nnn39+OO+888K7774bZp555rDzzjuHBRZYoBKGH374IWL9+OOPhyGHHDLQ6yOOOCIMMsggbYHt77//DvPOO28YYYQRgr1NUqdbdWv48ccfw6abbhpuvfXW4N+DDjpox9iffvppOPDAA8Pdd98dhh566MBf0yVzINddd10488wzw4svvhjt7IADDghLLrlkw/U2m8tvv/0W8brxxhvD999/H+aZZ56w7777hsknnzyO995774VDDjkk+ophhx02Psdc/JvU4dBsry+99NJoK2UxZjO7bsvGVgxSt1a3vPHGG9GvjTrqqD3ow4cffhimmmqqnkY9/fTTw3rrrRd/f8UVV8R9MwafTK8XWWSR+Nm///4bfQm/R6fnmmuu4N5RRhmlcrnPPfdcOPLII8Ojjz4a9cKcdt99945rW9URusbGttlmmw5/xWdfeOGFPTx3ggkmCK+++mr8nTj9zjvv9PD52muvHc4666z4u7o40Gz/OkVmTFIQ+euvv/oombnhhhuiMTPEpZZaKvh/Ga6//vq4QRdffHEkNf2zWLN94KjaIZT55ptvjuSBIfzxxx/hzTffDKeeempUMs9LIigzJo5/iimmCHvvvXe3p0C5kScGusEGG4THHnssrk/w33DDDeP+TjPNNGGTTTaJc6Twa621VnTMiAmysuaaawZGc9FFFwX6USQzdEVgoS/IwwknnBCvef755ysDV3efVwbk119/jYF34YUXDrvuumvgvDgfhg1jglwhcv/7Ru6OANRtYPuzAeDI6dvPrbfeOjzzzDNRH+65554w7rjjRl3lA4477rioT5ItBPnpp58Ok0wySU9orLLKKnH/6cN3330XybEkrejYuwPhSSedFI4//vgw5ZRTdgSvOt2qW4NgJsDNMsssMWgUyYygNuuss0aMkIZvv/027LnnnnHt55xzTsRr/vnnj4FumWWWieSePgpqVfjUzYWNGhPG8JcwIIYIhbnQ+Y022ijOl40KemOOOWYMynU41O31aaedFm6//fbot/q0iIfN1mp+/A1iJwG1Z2VyO/fcc4effvopDDTQQD0t58orr4wE/thjjw0LLbRQuOyyy6Ive+KJJ6Ju0TG6LvbBd5dddon6XIWNZA4BESMlh0j/5ptvHvWFT+2Mjqy++urRF0soUvK1zjrrhGmnnbahDSHQl1xySST5ZamLA3X73DKZ+eabb6IBCRIy+D5ZmWEUsgIGWhSEhlGZJ+GkKDzjYuT7779/3EgiaAgoPufQbIhgSpkozLLLLhvXieUD//XXX49ZyCOPPBIzHo7QBg488MBBpYTTYNyUVtbDgI1z4oknxmqC8Tha4//+++9xLpwJJk2RKeo444wT54Zxr7baavFZHJK5Ul4Z5mKLLRadD0l7oFJ20EEHxSqVMTBdilplGGWFMAdKaa2qBUW5+uqrA/Ky2267dfzac6zH+hiNZ3Y3kxXEGawglESQ4hA5XkZ69NFHx31MwrgZ/7nnnhtkCJg/bGQa9KBIZjgaewsX8tZbb4UZZ5wxZvcqXGXp7vPK45kfHYJXwopDV1nkPIjAhFSqMtDfXJnp2XVx4nB78MEHe/7wf7+RvY4xxhg9VGLsL7ul40WRSXO67Hq88caLH9F3dkw/2HV35KOPPoqJgeqBoJOCV51u1a2BrY8++uiBP1500UV7IDNff/11nD9yIfsnKhj8Dtvxe2RDBp8EMRxrrLFiNacsdXNBwNlZsrVUYWCLqkUqNHxFqt6q8rBxPqMOh7q9tqf2rlwF6M6edfXeTz75pOlak27xT2xedbZIZh566KFIpPnaKrGHfN2WW27Z8bFECBFN5GGPPfbo8G+ff/55JKfPPvtsTDiLwnbELj5p8MEH7/A9/JNqXqs6wseqhEtsJZHJX4lziDKCVBb+fLjhhos6KDktS10cqNuflskMpZcxU0Ksqk+SGQQBURHoFl988cqgfe+990ZywSg4OMFQOVTFgaMSoAUSyvXVV1/FcrMqABJA6WQOnMBkk00WHYMqiDKqjFBG7+/tt98+3iczVBmwoX7H4bgeITE+RZx99tnjfBEVJMoYmPrII48ciQzFQ1IQEM83J/PlCKxB+RZz9bnfceqeQXE5ZRUS8zeOCoaqBkWvEzjIXJWC60QrR2ZhvoiPf5uHPWi3WBsnKUvmoJG6VIpMTlrmywCKUkVm4P3FF19E/IcYYojYUmO8yOJggw3W09S7+7w6LGRm7GeOOeaIJLQoMqZMZqoRZJvI4Mcffxz3Dglhc5xnlSDInLxrtSaLgsTTrVT+9lkKxogOwtAdWXnllaOjZ6tIQQpendEtz2+0Br64TGaq5ssPyJ5l6YIPYlXM2OkfXyQ41UkzPN0rSPM5/NRQQw0VSSUfyFeq9iJ2Wqz8dx0OdXvNppEiz7G/gjdCVkxi6tbTrs8F6WZrLT7nmGOO6YnMaBfutNNO0Z8jmjBS0RK/qkQ8EZeQb76fbpfba8iOmIG4FOWBBx4IK664Yvjyyy87yIxY6TrVHNW1Oh3hvxQHJJL4QLJDz1H5Q6DogCribLPNFgmspMJ9iLN1KQB4HttFoIrt9uJ8i3Ggbr9aIjOYo34n8FQqZLp9kswwDOQEmBRJBqQKwnBSP1b1A2NO/VNZCwYp2MsYlOMQDUySMAjlwlT9mG666QLFS2IsrNIfghXbDHNAZiiIbEmw9OyRRhop4pVaNIK/jVFVsqEcnI0nSqo2W1VHgENmKAvnQ5QCzSc52SKZQeouv/zyHoI6Q1cdYiR1Yh8Zg3HqxHgc09tvvx1JAAwYhdZOO0UmwsnaK0qOnCF9yGUSFTVEUgAqShWZUVpFEhgpEai0qKrOA/m8u89rhAUizXaIKowWU7mqlclMY01aY401YkLFObJ3eoKs2FdOPYn9YxPsjH1qRZbFuRqfpSqnz+mJxEfmyN66Kuw+BQUEoEhmWtWtujW0QmZULuDEbuldugex4nv8LNtHCJJtVK25bi7uUT32LHrNxxFkQ6Xxs88+iz+bAyLFRutwqNtrz5A0OiPHbyOnkj6/687edXXPm621OGYVmTFvfhXJU1m3BkmianzVuSB7pqJPx5NPUQnkI5MgdXx78dyhz9zH7/GdbEdiAEsxTGUICUGSm+mIqrhk3xzNr0hmVLzFWWRU9QfZETslnRJSRMf9YpwYxQbNp+r8bTkO1O1NLZkRmAVYD1QmTOD1STKTFqVS4DAThyGgmiuCYm4OpCEDWKeycRKOarT/284d5EaOw1AA3fcumz5AtjlMLpdFLpF9covcJ5vBK4AYgZAtl5Ourga+gMZ0T7ks64siPz/p+v37QnIoErPGK0Ajb0Cv8fHxccnozYdhGgiMDJ8hKFONgVUpitqBmRqCFGXHYX98fJzuC+OQ2ZgfYy1mzigw8ZJsRzLjGRmovakBCzKs61fj+fn5QqSOkBkOhuFyIAYsGD6b2Go2W80/fo6YUn0EeWUvhM7g+B4eHi4EtgYy46B2aXZGZjhU5AvJ87mD4w9lzr5SHWtQxKhrZ+fjVNSxa8h47afBAbA/xNn6HHz2M46QmW2LkXggomN5WZLATjj+GoI4tUEQf39/v/wpW6prnBdKn/2oUWSmk6NrbJhvsK/KHxRsZ7GTmSO2tVrDisxYMzumPsnyR9/Az3x+fl4UwCI1fNjWWD2L8y84UkdeX18vBJ164P58hoBHQXa2kR6EZnWmj+71+Mx8EX9bSeA1+/ada1drHe89IzOzuetlgVExZ5/8vf2Q+KoYVMncixtVWnQ/ZEZp1b70gcBXOYnfFmco9BL+X79+XWx2y0aofOIr3488dTLT54INBZ+/nTWaU/PsNb8rZhpbcWC1R0syI4BjcGpgSAA1QrCRCZGm9AHcw0BsBDeHlDMCsmDOeBAxPTYUiKNkZiQTDqsyEYdJPtaXQybFaq8lM8gKIrWX/f0EmaFijBL61h7JCOC0KjMp01C0ZEF9OBhbkuhR23Bf97B3MpWx1ouEMPYxiGHtmgDHzNpcncxQy5C/jjfH67k5wMocfR+5/c587jGSSLZSauGIhedRckTGnKsaITPbFiMAcrbKizXYDKVWEJ0NCYfzNqqsrpN5yh7HRKfKTD3LPWrDrnNPzeb8ptHJzDW2VfPO1rBHZsyp/Kas2vvg+lqUIgRCGfSR0Z+Feiq4adzXQ1NDsEWmxgRPEEZwKM32cO9Mn9lrtqDRmOp2y7FaK7WvxlEygwDbw3rzB9GAM8KCiFdZBllQZUAu6i0ycykzUbclq6shoRPf2cFslI2YV0JuX7VVGCsy4xp9qtQke9pHJeoSS0ngXhxYrWNJZgTwMSMeb8ixAPmWA2kBJsavcXYcjJgErbHToSGfOWSGGp2DKIggYtVVX5sNTMFfI1YnE5QfODiMNUiqZOxryYxGVMatA133eA2EifpSPTNHlRmKCsMfZWJECwZHOv0pHEipdcBnHIxXOcZ9HELXjIHEtT43955MfcQ+1LuxdNl0r5+aw8EeSYLXxjWwyfbG0cmMTBBZGBUS18Ma4etrrjWdnW+2Vs7C81IC1cONemugB86QmW1rcb5leMreNZwTiQaHO8NO6ZnsXWpifU95FKFVHvC5QbZ3nnof1hH7rWuoru49G+xX8N+zraNr2CIzlGg+THLSf7rBcynHUJENgYOS4d+Smj5Wz+J+sOcbem8Gv0KFRtaLzJeqL4A563s4rPZaIqIkY44aSvoCJ1XjlmO11not3jPNyMzb29uFjIyKUr3Sbj8pFdYmwRPf+osdYh3/Uj9LUoknIjSqNeb/+vq62Lk+x+oLQzSQIgnino1owahKQ8fXWZJY6v2hBlU5vfp7KJVirvOF6JcKw06d4VKF9uLAak+XZKbf4B7KTLIfAcJhIOUqIWhsYsT11hBCgumpQzpQyi6CosDvFVmyGofg0JCGkQw9LTKnTmZIsMiTACTTRkRsnLKB57imzETJMgdyRVkgfzMuG2xj/d7FSpnxHUSNbCcLRM5kRd4wQiqwbEGegyHvMiQGNh6qcV+xbE7ONfoL3FPzFocB0/q9GfeH0zioU9QM6/E67JlBTbMWmM5KcFQ1c2D2nK59Q1Jh3/teZmUmTtmaYAQ7e+7vShH9sHv+787XMbAHnD7bhB+5GDk2D0c4jpCZbQtSTtUPwWGyRQqetwLZg6zUnnLIzpLSePVVaaSXfLhOo2RJ7+xeclQqgcAo0+x9Bmdsur7TlZmVba3WUPedkRl2pX/QywD8VR9IhIxdMmit5vIGi8RHyUBmDjvE0DlaPYtkTJmiJzjmVeYX0PggZxbxgCt/YV9WOKz2mj9XCikfqvcCUeBDJCq3HKu1js8yIzNiF99gTfbNv/lcIoI3MK2RHXkTSU9mH/ZMydR5QFDERy+5VAlbzNPrWf2bfBECL5lT7kYgnBFK8cpG+txdmUFM6veH+FaJtR5LfUBUM/5XnPX/ESdxDAG1xlUcWO3pP0lmgKXBDrmglmCqT09Pl2Yz7NRGOqQcHmaI0ZICBXXkRsc4p6h8JiCq8TIaAPt7JxMCoXsjLdQA31NucpiRG8z2aM8MMqO3RzBDIGwwxmvuOoQrMiM75Wg4LoaqB4NTpywpqXiWahzD+BG+8RXUbhQyNMSFc3AwGTpSw+lzfrIo68X0xyazug/50yF6eXlZ2dv0c6QUQezD3Jy2YW1kZP+FOTJqXsNB0IzcBxw4WpkKUsYZcJKyC9fvka/vzDdbJAWAs7IeDZf2xLqtRYCdPQu7lcln/I+ApkHBGNl2Xkjp9aN4zqkSOCVVKcPrn97wq1fy2RiyU6/DS2LYuABIDWTj7nfkJw2O7kknMytbXq1BmXr25pFgjoBYw2wo9yAe/IW+Cxm6JEjArJ+yoBzCUvChOu89C7+19cYXjJFytksRo4bDl5LOb7H5FQ4+39vr8WcbkDDEyRkvReDo/vzUdau18stK3n0oc2p/EK+oLhIsihoCWIQUEZ+pha6BLyzgSuGxL3BWdi0VmJ+0n2KfwRc5E5J8SQC/Wj/O5/M9G+nP38lM9aoq43qxRU8Wv1elNueW6oSwiSWUccm9uHokDuzt19Vk5qc2P/e5HQIMFXsv477dzJkpCASBIBAEgsCfRyBk5s9j/FdnkH3K5o70z/zVB83kQSAIBIEgEAROIhAycxK4fC0IBIEgEASCQBC4DwRCZu5jH/IUQSAIBIEgEASCwEkEQmZOApevBYEgEASCQBAIAveBQMjMfexDniIIBIEgEASCQBA4iUDIzEng8rUgEASCQBAIAkHgPhAImbmPfchTBIEgEASCQBAIAicRCJk5CVy+FgSCQBAIAkEgCNwHAiEz97EPeYogEASCQBAIAkHgJAIhMyeBy9eCQBAIAkEgCASB+0DgP6QyjSuyq4/UAAAAAElFTkSuQmCC;imageBorder=default;" vertex="1" parent="1">
          <mxGeometry x="328" y="503.38" width="553" height="179.75" as="geometry" />
        </mxCell>
        <mxCell id="FJbFZdLH_GVMFSv8Vmyc-7" value="Zillow Home Value Index" style="rounded=0;whiteSpace=wrap;html=1;flipH=0;flipV=1;direction=west;horizontal=0;fontStyle=1;fontSize=13;" vertex="1" parent="1">
          <mxGeometry x="248" y="143.13" width="40" height="180" as="geometry" />
        </mxCell>
        <mxCell id="FJbFZdLH_GVMFSv8Vmyc-10" value="Zillow Affordability" style="rounded=0;whiteSpace=wrap;html=1;flipH=0;flipV=1;direction=west;horizontal=0;fontStyle=1;fontSize=13;" vertex="1" parent="1">
          <mxGeometry x="278" y="203.10999999999999" width="40" height="180" as="geometry" />
        </mxCell>
        <mxCell id="FJbFZdLH_GVMFSv8Vmyc-11" value="Zillow Market Heat Index" style="rounded=0;whiteSpace=wrap;html=1;flipH=0;flipV=1;direction=west;horizontal=0;fontStyle=1;fontSize=13;" vertex="1" parent="1">
          <mxGeometry x="308" y="262.87" width="40" height="180" as="geometry" />
        </mxCell>
        <mxCell id="FJbFZdLH_GVMFSv8Vmyc-12" value="Combined ZIllow Dataset" style="rounded=0;whiteSpace=wrap;html=1;flipH=0;flipV=1;direction=west;horizontal=0;fontStyle=1;fontSize=13;" vertex="1" parent="1">
          <mxGeometry x="288" y="503.13" width="40" height="180" as="geometry" />
        </mxCell>
        <mxCell id="FJbFZdLH_GVMFSv8Vmyc-13" value="" style="shape=flexArrow;endArrow=classic;html=1;rounded=0;endWidth=12.741935483870968;endSize=4.1822580645161285;fillColor=#000000;" edge="1" parent="1">
          <mxGeometry width="50" height="50" relative="1" as="geometry">
            <mxPoint x="588" y="461.76" as="sourcePoint" />
            <mxPoint x="588" y="491.5" as="targetPoint" />
          </mxGeometry>
        </mxCell>
      </root>
    </mxGraphModel>
  </diagram>
</mxfile>
